<?xml version="1.0" encoding="utf-8"?><svg width="100%" height="100%" version="1.1" viewBox="-354.3219 -363 1878 2094" style="background-color:#FFFFFF" xmlns:xlink="http://www.w3.org/1999/xlink" xmlns:inkscape="http://www.inkscape.org/namespaces/inkscape" xmlns="http://www.w3.org/2000/svg"><defs /><g id="layer1" inkscape:label="Waist assembly" inkscape:groupmode="layer"><g><rect x="-36" y="0" width="1008" height="1296" opacity="1" stroke="#000000" stroke-opacity="1" stroke-width="1" stroke-linecap="butt" stroke-linejoin="miter" stroke-dasharray="none" fill-opacity="0" /><g><line x1="-36" y1="0" x2="180" y2="216" opacity="1" stroke="#000000" stroke-opacity="1" stroke-width="1" stroke-linecap="butt" stroke-linejoin="miter" stroke-dasharray="none" /><line x1="-36" y1="1080" x2="180" y2="1296" opacity="1" stroke="#000000" stroke-opacity="1" stroke-width="1" stroke-linecap="butt" stroke-linejoin="miter" stroke-dasharray="none" /><line x1="-36" y1="0" x2="-36" y2="1080" opacity="1" stroke="#000000" stroke-opacity="1" stroke-width="1" stroke-linecap="butt" stroke-linejoin="miter" stroke-dasharray="none" /><line x1="180" y1="216" x2="180" y2="1296" opacity="1" stroke="#000000" stroke-opacity="1" stroke-width="1" stroke-linecap="butt" stroke-linejoin="miter" stroke-dasharray="none" /><g><g><rect x="-9" y="198" width="162" height="36" rx="18" ry="18" opacity="1" stroke="#000000" stroke-opacity="1" stroke-width="1" stroke-linecap="butt" stroke-linejoin="miter" stroke-dasharray="none" fill="#FFFFFF" fill-opacity="1" transform="rotate(45 72 216)" /><rect x="-9" y="270" width="162" height="36" rx="18" ry="18" opacity="1" stroke="#000000" stroke-opacity="1" stroke-width="1" stroke-linecap="butt" stroke-linejoin="miter" stroke-dasharray="none" fill="#FFFFFF" fill-opacity="1" transform="rotate(45 72 288)" /></g><g><rect x="-9" y="342" width="162" height="36" rx="18" ry="18" opacity="1" stroke="#000000" stroke-opacity="1" stroke-width="1" stroke-linecap="butt" stroke-linejoin="miter" stroke-dasharray="none" fill="#FFFFFF" fill-opacity="1" transform="rotate(45 72 360)" /><rect x="-9" y="414" width="162" height="36" rx="18" ry="18" opacity="1" stroke="#000000" stroke-opacity="1" stroke-width="1" stroke-linecap="butt" stroke-linejoin="miter" stroke-dasharray="none" fill="#FFFFFF" fill-opacity="1" transform="rotate(45 72 432)" /></g></g><g><g><rect x="-9" y="486" width="162" height="36" rx="18" ry="18" opacity="1" stroke="#000000" stroke-opacity="1" stroke-width="1" stroke-linecap="butt" stroke-linejoin="miter" stroke-dasharray="none" fill="#FFFFFF" fill-opacity="1" transform="rotate(45 72 504)" /><rect x="-9" y="558" width="162" height="36" rx="18" ry="18" opacity="1" stroke="#000000" stroke-opacity="1" stroke-width="1" stroke-linecap="butt" stroke-linejoin="miter" stroke-dasharray="none" fill="#FFFFFF" fill-opacity="1" transform="rotate(45 72 576)" /></g><g><rect x="-9" y="630" width="162" height="36" rx="18" ry="18" opacity="1" stroke="#000000" stroke-opacity="1" stroke-width="1" stroke-linecap="butt" stroke-linejoin="miter" stroke-dasharray="none" fill="#FFFFFF" fill-opacity="1" transform="rotate(45 72 648)" /><rect x="-9" y="702" width="162" height="36" rx="18" ry="18" opacity="1" stroke="#000000" stroke-opacity="1" stroke-width="1" stroke-linecap="butt" stroke-linejoin="miter" stroke-dasharray="none" fill="#FFFFFF" fill-opacity="1" transform="rotate(45 72 720)" /></g></g><g><g><rect x="-9" y="774" width="162" height="36" rx="18" ry="18" opacity="1" stroke="#000000" stroke-opacity="1" stroke-width="1" stroke-linecap="butt" stroke-linejoin="miter" stroke-dasharray="none" fill="#FFFFFF" fill-opacity="1" transform="rotate(45 72 792)" /><rect x="-9" y="846" width="162" height="36" rx="18" ry="18" opacity="1" stroke="#000000" stroke-opacity="1" stroke-width="1" stroke-linecap="butt" stroke-linejoin="miter" stroke-dasharray="none" fill="#FFFFFF" fill-opacity="1" transform="rotate(45 72 864)" /></g><g><rect x="-9" y="918" width="162" height="36" rx="18" ry="18" opacity="1" stroke="#000000" stroke-opacity="1" stroke-width="1" stroke-linecap="butt" stroke-linejoin="miter" stroke-dasharray="none" fill="#FFFFFF" fill-opacity="1" transform="rotate(45 72 936)" /><rect x="-9" y="990" width="162" height="36" rx="18" ry="18" opacity="1" stroke="#000000" stroke-opacity="1" stroke-width="1" stroke-linecap="butt" stroke-linejoin="miter" stroke-dasharray="none" fill="#FFFFFF" fill-opacity="1" transform="rotate(45 72 1008)" /></g></g></g><g><line x1="972" y1="0" x2="1188" y2="216" opacity="1" stroke="#000000" stroke-opacity="1" stroke-width="1" stroke-linecap="butt" stroke-linejoin="miter" stroke-dasharray="none" /><line x1="972" y1="1080" x2="1188" y2="1296" opacity="1" stroke="#000000" stroke-opacity="1" stroke-width="1" stroke-linecap="butt" stroke-linejoin="miter" stroke-dasharray="none" /><line x1="972" y1="0" x2="972" y2="1080" opacity="1" stroke="#000000" stroke-opacity="1" stroke-width="1" stroke-linecap="butt" stroke-linejoin="miter" stroke-dasharray="none" /><line x1="1188" y1="216" x2="1188" y2="1296" opacity="1" stroke="#000000" stroke-opacity="1" stroke-width="1" stroke-linecap="butt" stroke-linejoin="miter" stroke-dasharray="none" /><g><g><rect x="999" y="198" width="162" height="36" rx="18" ry="18" opacity="1" stroke="#000000" stroke-opacity="1" stroke-width="1" stroke-linecap="butt" stroke-linejoin="miter" stroke-dasharray="none" fill="#FFFFFF" fill-opacity="1" transform="rotate(45 1080 216)" /><rect x="999" y="270" width="162" height="36" rx="18" ry="18" opacity="1" stroke="#000000" stroke-opacity="1" stroke-width="1" stroke-linecap="butt" stroke-linejoin="miter" stroke-dasharray="none" fill="#FFFFFF" fill-opacity="1" transform="rotate(45 1080 288)" /></g><g><rect x="999" y="342" width="162" height="36" rx="18" ry="18" opacity="1" stroke="#000000" stroke-opacity="1" stroke-width="1" stroke-linecap="butt" stroke-linejoin="miter" stroke-dasharray="none" fill="#FFFFFF" fill-opacity="1" transform="rotate(45 1080 360)" /><rect x="999" y="414" width="162" height="36" rx="18" ry="18" opacity="1" stroke="#000000" stroke-opacity="1" stroke-width="1" stroke-linecap="butt" stroke-linejoin="miter" stroke-dasharray="none" fill="#FFFFFF" fill-opacity="1" transform="rotate(45 1080 432)" /></g></g><g><g><rect x="999" y="486" width="162" height="36" rx="18" ry="18" opacity="1" stroke="#000000" stroke-opacity="1" stroke-width="1" stroke-linecap="butt" stroke-linejoin="miter" stroke-dasharray="none" fill="#FFFFFF" fill-opacity="1" transform="rotate(45 1080 504)" /><rect x="999" y="558" width="162" height="36" rx="18" ry="18" opacity="1" stroke="#000000" stroke-opacity="1" stroke-width="1" stroke-linecap="butt" stroke-linejoin="miter" stroke-dasharray="none" fill="#FFFFFF" fill-opacity="1" transform="rotate(45 1080 576)" /></g><g><rect x="999" y="630" width="162" height="36" rx="18" ry="18" opacity="1" stroke="#000000" stroke-opacity="1" stroke-width="1" stroke-linecap="butt" stroke-linejoin="miter" stroke-dasharray="none" fill="#FFFFFF" fill-opacity="1" transform="rotate(45 1080 648)" /><rect x="999" y="702" width="162" height="36" rx="18" ry="18" opacity="1" stroke="#000000" stroke-opacity="1" stroke-width="1" stroke-linecap="butt" stroke-linejoin="miter" stroke-dasharray="none" fill="#FFFFFF" fill-opacity="1" transform="rotate(45 1080 720)" /></g></g><g><g><rect x="999" y="774" width="162" height="36" rx="18" ry="18" opacity="1" stroke="#000000" stroke-opacity="1" stroke-width="1" stroke-linecap="butt" stroke-linejoin="miter" stroke-dasharray="none" fill="#FFFFFF" fill-opacity="1" transform="rotate(45 1080 792)" /><rect x="999" y="846" width="162" height="36" rx="18" ry="18" opacity="1" stroke="#000000" stroke-opacity="1" stroke-width="1" stroke-linecap="butt" stroke-linejoin="miter" stroke-dasharray="none" fill="#FFFFFF" fill-opacity="1" transform="rotate(45 1080 864)" /></g><g><rect x="999" y="918" width="162" height="36" rx="18" ry="18" opacity="1" stroke="#000000" stroke-opacity="1" stroke-width="1" stroke-linecap="butt" stroke-linejoin="miter" stroke-dasharray="none" fill="#FFFFFF" fill-opacity="1" transform="rotate(45 1080 936)" /><rect x="999" y="990" width="162" height="36" rx="18" ry="18" opacity="1" stroke="#000000" stroke-opacity="1" stroke-width="1" stroke-linecap="butt" stroke-linejoin="miter" stroke-dasharray="none" fill="#FFFFFF" fill-opacity="1" transform="rotate(45 1080 1008)" /></g></g></g><g><line x1="180" y1="216" x2="180" y2="1512" opacity="1" stroke="#000000" stroke-opacity="1" stroke-width="1" stroke-linecap="butt" stroke-linejoin="miter" stroke-dasharray="none" /><line x1="1188" y1="216" x2="1188" y2="1512" opacity="1" stroke="#000000" stroke-opacity="1" stroke-width="1" stroke-linecap="butt" stroke-linejoin="miter" stroke-dasharray="none" /><line x1="180" y1="216" x2="1188" y2="216" opacity="1" stroke="#000000" stroke-opacity="1" stroke-width="1" stroke-linecap="butt" stroke-linejoin="miter" stroke-dasharray="none" /><line x1="1188" y1="1512" x2="180" y2="1512" opacity="1" stroke="#000000" stroke-opacity="1" stroke-width="1" stroke-linecap="butt" stroke-linejoin="miter" stroke-dasharray="none" /><line x1="324" y1="414" x2="324" y2="1008" opacity="1" stroke="#000000" stroke-opacity="1" stroke-width="1" stroke-linecap="butt" stroke-linejoin="miter" stroke-dasharray="none" /><line x1="378" y1="360" x2="720" y2="360" opacity="1" stroke="#000000" stroke-opacity="1" stroke-width="1" stroke-linecap="butt" stroke-linejoin="miter" stroke-dasharray="none" /><line x1="756" y1="450" x2="324" y2="1008" opacity="1" stroke="#000000" stroke-opacity="1" stroke-width="1" stroke-linecap="butt" stroke-linejoin="miter" stroke-dasharray="none" /><line x1="1044" y1="522" x2="1044" y2="1278" opacity="1" stroke="#000000" stroke-opacity="1" stroke-width="1" stroke-linecap="butt" stroke-linejoin="miter" stroke-dasharray="none" /><line x1="990" y1="1332" x2="378" y2="1332" opacity="1" stroke="#000000" stroke-opacity="1" stroke-width="1" stroke-linecap="butt" stroke-linejoin="miter" stroke-dasharray="none" /><line x1="882" y1="504" x2="324" y2="1224" opacity="1" stroke="#000000" stroke-opacity="1" stroke-width="1" stroke-linecap="butt" stroke-linejoin="miter" stroke-dasharray="none" /><g><ellipse cx="288" cy="1368" rx="4.5" ry="4.5" opacity="1" stroke="#000000" stroke-opacity="1" stroke-width="1" stroke-linecap="butt" stroke-linejoin="miter" stroke-dasharray="none" fill="#FFFFFF" fill-opacity="1" /><ellipse cx="1089" cy="1368" rx="4.5" ry="4.5" opacity="1" stroke="#000000" stroke-opacity="1" stroke-width="1" stroke-linecap="butt" stroke-linejoin="miter" stroke-dasharray="none" fill="#FFFFFF" fill-opacity="1" /></g><g><ellipse cx="288" cy="328.5" rx="4.5" ry="4.5" opacity="1" stroke="#000000" stroke-opacity="1" stroke-width="1" stroke-linecap="butt" stroke-linejoin="miter" stroke-dasharray="none" fill="#FFFFFF" fill-opacity="1" /><ellipse cx="1089" cy="328.5" rx="4.5" ry="4.5" opacity="1" stroke="#000000" stroke-opacity="1" stroke-width="1" stroke-linecap="butt" stroke-linejoin="miter" stroke-dasharray="none" fill="#FFFFFF" fill-opacity="1" /></g><line x1="378" y1="360" x2="324" y2="414" opacity="1" stroke="#000000" stroke-opacity="1" stroke-width="1" stroke-linecap="butt" stroke-linejoin="miter" stroke-dasharray="none" /><line x1="1044" y1="1278" x2="990" y2="1332" opacity="1" stroke="#000000" stroke-opacity="1" stroke-width="1" stroke-linecap="butt" stroke-linejoin="miter" stroke-dasharray="none" /><line x1="720" y1="360" x2="756" y2="396" opacity="1" stroke="#000000" stroke-opacity="1" stroke-width="1" stroke-linecap="butt" stroke-linejoin="miter" stroke-dasharray="none" /><line x1="756" y1="450" x2="756" y2="396" opacity="1" stroke="#000000" stroke-opacity="1" stroke-width="1" stroke-linecap="butt" stroke-linejoin="miter" stroke-dasharray="none" /><line x1="1044" y1="522" x2="990" y2="468" opacity="1" stroke="#000000" stroke-opacity="1" stroke-width="1" stroke-linecap="butt" stroke-linejoin="miter" stroke-dasharray="none" /><line x1="882" y1="504" x2="990" y2="468" opacity="1" stroke="#000000" stroke-opacity="1" stroke-width="1" stroke-linecap="butt" stroke-linejoin="miter" stroke-dasharray="none" /><line x1="378" y1="1332" x2="324" y2="1278" opacity="1" stroke="#000000" stroke-opacity="1" stroke-width="1" stroke-linecap="butt" stroke-linejoin="miter" stroke-dasharray="none" /><line x1="324" y1="1278" x2="324" y2="1224" opacity="1" stroke="#000000" stroke-opacity="1" stroke-width="1" stroke-linecap="butt" stroke-linejoin="miter" stroke-dasharray="none" /></g></g></g><g id="layer2" inkscape:label="Waist assembly notes" inkscape:groupmode="layer"><g><path d="M1520.678 -251.7068 C1520.678 -251.7068 1123.568 -253.193 1119.009 -249.4737 C1113.239 -244.7686 1117.542 -47.15975 1117.542 -47.15975 L1288.361 -47.15975 L1146.013 72 L1356.693 -46.22372 L1520.678 -44.34808 L1520.678 -251.7068 Z " opacity="1" stroke="#000000" stroke-opacity="1" stroke-width="2" stroke-linecap="butt" stroke-linejoin="round" stroke-dasharray="none" fill="#FFFFFF" fill-opacity="1" /><text x="1164.491" y="-183.088" font-size="32" fill="#000000" fill-opacity="1" font-family=".Helvetica Neue Interface" font-weight="normal" font-style="normal">Glue side panels to front</text><text x="1224.347" y="-145.088" font-size="32" fill="#000000" fill-opacity="1" font-family=".Helvetica Neue Interface" font-weight="normal" font-style="normal">and rear panels.</text><text x="1183.147" y="-107.088" font-size="32" fill="#000000" fill-opacity="1" font-family=".Helvetica Neue Interface" font-weight="normal" font-style="normal">side panels should be</text><text x="1266.731" y="-69.08799" font-size="32" fill="#000000" fill-opacity="1" font-family=".Helvetica Neue Interface" font-weight="normal" font-style="normal">set inside.</text></g><g><path d="M1232.678 288.2933 C1232.678 288.2933 835.5679 286.807 831.0089 290.5263 C825.2388 295.2314 829.5422 492.8402 829.5422 492.8402 L1000.362 492.8402 L858.0132 612 L1068.692 493.7763 L1232.678 495.6519 L1232.678 288.2933 Z " opacity="1" stroke="#000000" stroke-opacity="1" stroke-width="2" stroke-linecap="butt" stroke-linejoin="round" stroke-dasharray="none" fill="#FFFFFF" fill-opacity="1" /><text x="893.509" y="379.46" font-size="60" fill="#000000" fill-opacity="1" font-family=".Helvetica Neue Interface" font-weight="normal" font-style="normal">Transparent</text><text x="883.009" y="450.46" font-size="60" fill="#000000" fill-opacity="1" font-family=".Helvetica Neue Interface" font-weight="normal" font-style="normal">acrylic panel</text></g><g><path d="M-351.3219 -143.7067 C-351.3219 -143.7067 28.75668 -145.193 33.12021 -141.4737 C38.64266 -136.7686 34.52385 60.84023 34.52385 60.84023 L-128.9693 60.84023 L7.273944 180 L-194.3694 61.77626 L-351.3219 63.6519 L-351.3219 -143.7067 Z " opacity="1" stroke="#000000" stroke-opacity="1" stroke-width="2" stroke-linecap="butt" stroke-linejoin="round" stroke-dasharray="none" fill="#FFFFFF" fill-opacity="1" /><text x="-287.041" y="-68.35999" font-size="40" fill="#000000" fill-opacity="1" font-family=".Helvetica Neue Interface" font-weight="normal" font-style="normal">Cover vent holes</text><text x="-293.361" y="-20.35999" font-size="40" fill="#000000" fill-opacity="1" font-family=".Helvetica Neue Interface" font-weight="normal" font-style="normal">with mesh screen</text><text x="-274.861" y="27.64001" font-size="40" fill="#000000" fill-opacity="1" font-family=".Helvetica Neue Interface" font-weight="normal" font-style="normal">from the inside.</text></g><g><path d="M1484.678 1727.673 C1484.678 1727.673 1087.568 1729.327 1083.009 1725.193 C1077.239 1719.965 1081.542 1500.399 1081.542 1500.399 L1252.361 1500.399 L1110.013 1368 L1320.693 1499.361 L1484.678 1497.277 L1484.678 1727.673 Z " opacity="1" stroke="#000000" stroke-opacity="1" stroke-width="2" stroke-linecap="butt" stroke-linejoin="round" stroke-dasharray="none" fill="#FFFFFF" fill-opacity="1" /><text x="1136.214" y="1584.3" font-size="50" fill="#000000" fill-opacity="1" font-family=".Helvetica Neue Interface" font-weight="normal" font-style="normal">Screws to hold</text><text x="1136.664" y="1644.3" font-size="50" fill="#000000" fill-opacity="1" font-family=".Helvetica Neue Interface" font-weight="normal" font-style="normal">acrylic panel in</text><text x="1235.739" y="1704.3" font-size="50" fill="#000000" fill-opacity="1" font-family=".Helvetica Neue Interface" font-weight="normal" font-style="normal">place.</text></g><text x="-77.41797" y="-225" font-size="90" fill="#000000" fill-opacity="1" font-family="Helvetica" font-weight="normal" font-style="normal">Waist assembly</text></g></svg>