<?xml version="1.0" encoding="utf-8"?><svg width="100%" height="100%" version="1.1" viewBox="-579 -111 2562 942" style="background-color:#FFFFFF" xmlns:xlink="http://www.w3.org/1999/xlink" xmlns:inkscape="http://www.inkscape.org/namespaces/inkscape" xmlns="http://www.w3.org/2000/svg"><defs /><g id="layer1" inkscape:label="Head assembly" inkscape:groupmode="layer"><g><path d="M1314 522 L1003.5 792 L382.5 792 L72 522 L382.5001 252 L1003.5 252 Z " opacity="1" stroke="#000000" stroke-opacity="1" stroke-width="1" stroke-linecap="butt" stroke-linejoin="miter" stroke-dasharray="none" fill-opacity="0" /><path d="M1305 243 L994.5 513 L373.5 513 L63 243 L373.5001 -27 L994.4999 -27 Z " opacity="1" stroke="#000000" stroke-opacity="1" stroke-width="1" stroke-linecap="butt" stroke-linejoin="miter" stroke-dasharray="none" fill-opacity="0" /><rect x="378" y="0" width="621" height="252" opacity="1" stroke="#000000" stroke-opacity="1" stroke-width="1" stroke-linecap="butt" stroke-linejoin="miter" stroke-dasharray="none" fill-opacity="0" /><rect x="378" y="540" width="630" height="252" opacity="1" stroke="#000000" stroke-opacity="1" stroke-width="1" stroke-linecap="butt" stroke-linejoin="miter" stroke-dasharray="none" fill-opacity="0" /><g transform="rotate(180 -216 328.5)"><path d="M-245.3018 413.7642 L-288 413.7642 L-288 243.2358 L-245.3018 243.2358" opacity="1" stroke="#000000" stroke-opacity="1" stroke-width="1" stroke-linecap="butt" stroke-linejoin="miter" stroke-dasharray="none" fill-opacity="0" /><path d="M-245.3018 414 L-144.0001 328.5 L-245.3018 243" opacity="1" stroke="#000000" stroke-opacity="1" stroke-width="1" stroke-linecap="butt" stroke-linejoin="miter" stroke-dasharray="none" fill-opacity="0" /></g><path d="M1512 558 L1440 774 L1440 234 L1512 18 L1512 558" opacity="1" stroke="#000000" stroke-opacity="1" stroke-width="1" stroke-linecap="butt" stroke-linejoin="miter" stroke-dasharray="none" fill-opacity="0" /><g transform="rotate(180 -216 535.5)"><path d="M-245.3018 620.7642 L-288 620.7642 L-288 450.2358 L-245.3018 450.2358" opacity="1" stroke="#000000" stroke-opacity="1" stroke-width="1" stroke-linecap="butt" stroke-linejoin="miter" stroke-dasharray="none" fill-opacity="0" /><path d="M-245.3018 621 L-144.0001 535.5 L-245.3018 450" opacity="1" stroke="#000000" stroke-opacity="1" stroke-width="1" stroke-linecap="butt" stroke-linejoin="miter" stroke-dasharray="none" fill-opacity="0" /></g><path d="M18 288 L-288 558 L-288 306 L18 36 L18 288 Z " opacity="1" stroke="#000000" stroke-opacity="1" stroke-width="1" stroke-linecap="butt" stroke-linejoin="miter" stroke-dasharray="none" fill-opacity="0" /><path d="M18 576 L-288 306 L-288 558 L18 828 L18 576 Z " opacity="1" stroke="#000000" stroke-opacity="1" stroke-width="1" stroke-linecap="butt" stroke-linejoin="miter" stroke-dasharray="none" fill-opacity="0" /></g></g><g id="layer2" inkscape:label="Head assembly notes" inkscape:groupmode="layer"><g><path d="M-576 -107.6817 C-576 -107.6817 -152.0798 -109.2947 -147.2105 -105.2584 C-141.051 -100.1519 -145.6491 114.3104 -145.6491 114.3104 L-328.001 114.3104 L-176.0415 243.6328 L-400.9424 115.3262 L-576 117.3619 L-576 -107.6817 Z " opacity="1" stroke="#000000" stroke-opacity="1" stroke-width="2" stroke-linecap="butt" stroke-linejoin="round" stroke-dasharray="none" fill="#FFFFFF" fill-opacity="1" /><text x="-533.41" y="-36.53998" font-size="60" fill="#000000" fill-opacity="1" font-family=".Helvetica Neue Interface" font-weight="normal" font-style="normal">Drawer cover,</text><text x="-481.27" y="34.46002" font-size="60" fill="#000000" fill-opacity="1" font-family=".Helvetica Neue Interface" font-weight="normal" font-style="normal">hinge and</text><text x="-526.81" y="105.46" font-size="60" fill="#000000" fill-opacity="1" font-family=".Helvetica Neue Interface" font-weight="normal" font-style="normal">latch in place</text></g><g><path d="M1980 0.1553599 C1980 0.1553599 1520.754 -0.6319665 1515.478 1.338166 C1508.805 3.830684 1513.786 108.5102 1513.786 108.5102 L1711.335 108.5102 L1546.714 171.6328 L1790.354 109.0061 L1980 109.9997 L1980 0.1553599 Z " opacity="1" stroke="#000000" stroke-opacity="1" stroke-width="2" stroke-linecap="butt" stroke-linejoin="round" stroke-dasharray="none" fill="#FFFFFF" fill-opacity="1" /><text x="1590.92" y="71.46" font-size="60" fill="#000000" fill-opacity="1" font-family=".Helvetica Neue Interface" font-weight="normal" font-style="normal">Drawer front</text></g></g></svg>