<?xml version="1.0" encoding="utf-8"?><svg width="100%" height="100%" version="1.1" viewBox="-79.5 15 901.5 1860" style="background-color:#FFFFFF" xmlns:xlink="http://www.w3.org/1999/xlink" xmlns:inkscape="http://www.inkscape.org/namespaces/inkscape" xmlns="http://www.w3.org/2000/svg"><defs /><g id="layer1" inkscape:label="Base smallparts" inkscape:groupmode="layer"><g transform="rotate(180 486 1422)"><g><line x1="684" y1="1422" x2="582.6982" y2="1593" opacity="1" stroke="#000000" stroke-opacity="1" stroke-width="1" stroke-linecap="butt" stroke-linejoin="miter" stroke-dasharray="none" /><line x1="582.6982" y1="1251" x2="684" y2="1422" opacity="1" stroke="#000000" stroke-opacity="1" stroke-width="1" stroke-linecap="butt" stroke-linejoin="miter" stroke-dasharray="none" /></g><line x1="582.6982" y1="1251.472" x2="288" y2="1251.472" opacity="1" stroke="#000000" stroke-opacity="1" stroke-width="1" stroke-linecap="butt" stroke-linejoin="miter" stroke-dasharray="none" /><line x1="288" y1="1251.472" x2="288" y2="1592.528" opacity="1" stroke="#000000" stroke-opacity="1" stroke-width="1" stroke-linecap="butt" stroke-linejoin="miter" stroke-dasharray="none" /><line x1="582.6982" y1="1592.528" x2="288" y2="1592.528" opacity="1" stroke="#000000" stroke-opacity="1" stroke-width="1" stroke-linecap="butt" stroke-linejoin="miter" stroke-dasharray="none" /></g><g transform="rotate(90 90 1318.5)"><g><g><g><g><line x1="9" y1="1152" x2="9" y2="1228.114" opacity="1" stroke="#000000" stroke-opacity="1" stroke-width="1" stroke-linecap="butt" stroke-linejoin="miter" stroke-dasharray="none" /><line x1="9" y1="1228.114" x2="77.20985" y2="1228.114" opacity="1" stroke="#000000" stroke-opacity="1" stroke-width="1" stroke-linecap="butt" stroke-linejoin="miter" stroke-dasharray="none" /><line x1="9" y1="1152" x2="77.20985" y2="1228.114" opacity="1" stroke="#000000" stroke-opacity="1" stroke-width="1" stroke-linecap="butt" stroke-linejoin="miter" stroke-dasharray="none" /></g><g><line x1="9" y1="1237.629" x2="9" y2="1313.743" opacity="1" stroke="#000000" stroke-opacity="1" stroke-width="1" stroke-linecap="butt" stroke-linejoin="miter" stroke-dasharray="none" /><line x1="9" y1="1313.743" x2="77.20985" y2="1313.743" opacity="1" stroke="#000000" stroke-opacity="1" stroke-width="1" stroke-linecap="butt" stroke-linejoin="miter" stroke-dasharray="none" /><line x1="9" y1="1237.629" x2="77.20985" y2="1313.743" opacity="1" stroke="#000000" stroke-opacity="1" stroke-width="1" stroke-linecap="butt" stroke-linejoin="miter" stroke-dasharray="none" /></g></g><g><g><line x1="85.73621" y1="1313.743" x2="85.73621" y2="1237.629" opacity="1" stroke="#000000" stroke-opacity="1" stroke-width="1" stroke-linecap="butt" stroke-linejoin="miter" stroke-dasharray="none" /><line x1="85.73621" y1="1237.629" x2="17.52553" y2="1237.629" opacity="1" stroke="#000000" stroke-opacity="1" stroke-width="1" stroke-linecap="butt" stroke-linejoin="miter" stroke-dasharray="none" /><line x1="85.73621" y1="1313.743" x2="17.52553" y2="1237.629" opacity="1" stroke="#000000" stroke-opacity="1" stroke-width="1" stroke-linecap="butt" stroke-linejoin="miter" stroke-dasharray="none" /></g><g><line x1="85.73621" y1="1228.114" x2="85.73621" y2="1152" opacity="1" stroke="#000000" stroke-opacity="1" stroke-width="1" stroke-linecap="butt" stroke-linejoin="miter" stroke-dasharray="none" /><line x1="85.73621" y1="1152" x2="17.52553" y2="1152" opacity="1" stroke="#000000" stroke-opacity="1" stroke-width="1" stroke-linecap="butt" stroke-linejoin="miter" stroke-dasharray="none" /><line x1="85.73621" y1="1228.114" x2="17.52553" y2="1152" opacity="1" stroke="#000000" stroke-opacity="1" stroke-width="1" stroke-linecap="butt" stroke-linejoin="miter" stroke-dasharray="none" /></g></g></g><g><g><g><line x1="94.26379" y1="1152" x2="94.26379" y2="1228.114" opacity="1" stroke="#000000" stroke-opacity="1" stroke-width="1" stroke-linecap="butt" stroke-linejoin="miter" stroke-dasharray="none" /><line x1="94.26379" y1="1228.114" x2="162.4745" y2="1228.114" opacity="1" stroke="#000000" stroke-opacity="1" stroke-width="1" stroke-linecap="butt" stroke-linejoin="miter" stroke-dasharray="none" /><line x1="94.26379" y1="1152" x2="162.4745" y2="1228.114" opacity="1" stroke="#000000" stroke-opacity="1" stroke-width="1" stroke-linecap="butt" stroke-linejoin="miter" stroke-dasharray="none" /></g><g><line x1="94.26379" y1="1237.629" x2="94.26379" y2="1313.743" opacity="1" stroke="#000000" stroke-opacity="1" stroke-width="1" stroke-linecap="butt" stroke-linejoin="miter" stroke-dasharray="none" /><line x1="94.26379" y1="1313.743" x2="162.4745" y2="1313.743" opacity="1" stroke="#000000" stroke-opacity="1" stroke-width="1" stroke-linecap="butt" stroke-linejoin="miter" stroke-dasharray="none" /><line x1="94.26379" y1="1237.629" x2="162.4745" y2="1313.743" opacity="1" stroke="#000000" stroke-opacity="1" stroke-width="1" stroke-linecap="butt" stroke-linejoin="miter" stroke-dasharray="none" /></g></g><g><g><line x1="171" y1="1313.743" x2="171" y2="1237.629" opacity="1" stroke="#000000" stroke-opacity="1" stroke-width="1" stroke-linecap="butt" stroke-linejoin="miter" stroke-dasharray="none" /><line x1="171" y1="1237.629" x2="102.7901" y2="1237.629" opacity="1" stroke="#000000" stroke-opacity="1" stroke-width="1" stroke-linecap="butt" stroke-linejoin="miter" stroke-dasharray="none" /><line x1="171" y1="1313.743" x2="102.7901" y2="1237.629" opacity="1" stroke="#000000" stroke-opacity="1" stroke-width="1" stroke-linecap="butt" stroke-linejoin="miter" stroke-dasharray="none" /></g><g><line x1="171" y1="1228.114" x2="171" y2="1152" opacity="1" stroke="#000000" stroke-opacity="1" stroke-width="1" stroke-linecap="butt" stroke-linejoin="miter" stroke-dasharray="none" /><line x1="171" y1="1152" x2="102.7901" y2="1152" opacity="1" stroke="#000000" stroke-opacity="1" stroke-width="1" stroke-linecap="butt" stroke-linejoin="miter" stroke-dasharray="none" /><line x1="171" y1="1228.114" x2="102.7901" y2="1152" opacity="1" stroke="#000000" stroke-opacity="1" stroke-width="1" stroke-linecap="butt" stroke-linejoin="miter" stroke-dasharray="none" /></g></g></g></g><g><g><g><g><line x1="9" y1="1323.257" x2="9" y2="1399.371" opacity="1" stroke="#000000" stroke-opacity="1" stroke-width="1" stroke-linecap="butt" stroke-linejoin="miter" stroke-dasharray="none" /><line x1="9" y1="1399.371" x2="77.20985" y2="1399.371" opacity="1" stroke="#000000" stroke-opacity="1" stroke-width="1" stroke-linecap="butt" stroke-linejoin="miter" stroke-dasharray="none" /><line x1="9" y1="1323.257" x2="77.20985" y2="1399.371" opacity="1" stroke="#000000" stroke-opacity="1" stroke-width="1" stroke-linecap="butt" stroke-linejoin="miter" stroke-dasharray="none" /></g><g><line x1="9" y1="1408.886" x2="9" y2="1485" opacity="1" stroke="#000000" stroke-opacity="1" stroke-width="1" stroke-linecap="butt" stroke-linejoin="miter" stroke-dasharray="none" /><line x1="9" y1="1485" x2="77.20985" y2="1485" opacity="1" stroke="#000000" stroke-opacity="1" stroke-width="1" stroke-linecap="butt" stroke-linejoin="miter" stroke-dasharray="none" /><line x1="9" y1="1408.886" x2="77.20985" y2="1485" opacity="1" stroke="#000000" stroke-opacity="1" stroke-width="1" stroke-linecap="butt" stroke-linejoin="miter" stroke-dasharray="none" /></g></g><g><g><line x1="85.73621" y1="1485" x2="85.73621" y2="1408.886" opacity="1" stroke="#000000" stroke-opacity="1" stroke-width="1" stroke-linecap="butt" stroke-linejoin="miter" stroke-dasharray="none" /><line x1="85.73621" y1="1408.886" x2="17.52553" y2="1408.886" opacity="1" stroke="#000000" stroke-opacity="1" stroke-width="1" stroke-linecap="butt" stroke-linejoin="miter" stroke-dasharray="none" /><line x1="85.73621" y1="1485" x2="17.52553" y2="1408.886" opacity="1" stroke="#000000" stroke-opacity="1" stroke-width="1" stroke-linecap="butt" stroke-linejoin="miter" stroke-dasharray="none" /></g><g><line x1="85.73621" y1="1399.371" x2="85.73621" y2="1323.257" opacity="1" stroke="#000000" stroke-opacity="1" stroke-width="1" stroke-linecap="butt" stroke-linejoin="miter" stroke-dasharray="none" /><line x1="85.73621" y1="1323.257" x2="17.52553" y2="1323.257" opacity="1" stroke="#000000" stroke-opacity="1" stroke-width="1" stroke-linecap="butt" stroke-linejoin="miter" stroke-dasharray="none" /><line x1="85.73621" y1="1399.371" x2="17.52553" y2="1323.257" opacity="1" stroke="#000000" stroke-opacity="1" stroke-width="1" stroke-linecap="butt" stroke-linejoin="miter" stroke-dasharray="none" /></g></g></g><g><g><g><line x1="94.26379" y1="1323.257" x2="94.26379" y2="1399.371" opacity="1" stroke="#000000" stroke-opacity="1" stroke-width="1" stroke-linecap="butt" stroke-linejoin="miter" stroke-dasharray="none" /><line x1="94.26379" y1="1399.371" x2="162.4745" y2="1399.371" opacity="1" stroke="#000000" stroke-opacity="1" stroke-width="1" stroke-linecap="butt" stroke-linejoin="miter" stroke-dasharray="none" /><line x1="94.26379" y1="1323.257" x2="162.4745" y2="1399.371" opacity="1" stroke="#000000" stroke-opacity="1" stroke-width="1" stroke-linecap="butt" stroke-linejoin="miter" stroke-dasharray="none" /></g><g><line x1="94.26379" y1="1408.886" x2="94.26379" y2="1485" opacity="1" stroke="#000000" stroke-opacity="1" stroke-width="1" stroke-linecap="butt" stroke-linejoin="miter" stroke-dasharray="none" /><line x1="94.26379" y1="1485" x2="162.4745" y2="1485" opacity="1" stroke="#000000" stroke-opacity="1" stroke-width="1" stroke-linecap="butt" stroke-linejoin="miter" stroke-dasharray="none" /><line x1="94.26379" y1="1408.886" x2="162.4745" y2="1485" opacity="1" stroke="#000000" stroke-opacity="1" stroke-width="1" stroke-linecap="butt" stroke-linejoin="miter" stroke-dasharray="none" /></g></g><g><g><line x1="171" y1="1485" x2="171" y2="1408.886" opacity="1" stroke="#000000" stroke-opacity="1" stroke-width="1" stroke-linecap="butt" stroke-linejoin="miter" stroke-dasharray="none" /><line x1="171" y1="1408.886" x2="102.7901" y2="1408.886" opacity="1" stroke="#000000" stroke-opacity="1" stroke-width="1" stroke-linecap="butt" stroke-linejoin="miter" stroke-dasharray="none" /><line x1="171" y1="1485" x2="102.7901" y2="1408.886" opacity="1" stroke="#000000" stroke-opacity="1" stroke-width="1" stroke-linecap="butt" stroke-linejoin="miter" stroke-dasharray="none" /></g><g><line x1="171" y1="1399.371" x2="171" y2="1323.257" opacity="1" stroke="#000000" stroke-opacity="1" stroke-width="1" stroke-linecap="butt" stroke-linejoin="miter" stroke-dasharray="none" /><line x1="171" y1="1323.257" x2="102.7901" y2="1323.257" opacity="1" stroke="#000000" stroke-opacity="1" stroke-width="1" stroke-linecap="butt" stroke-linejoin="miter" stroke-dasharray="none" /><line x1="171" y1="1399.371" x2="102.7901" y2="1323.257" opacity="1" stroke="#000000" stroke-opacity="1" stroke-width="1" stroke-linecap="butt" stroke-linejoin="miter" stroke-dasharray="none" /></g></g></g></g></g><g transform="rotate(90 594 1755)"><g><path d="M693 1674 L477 1674 L477 1530 L693 1674 Z " opacity="1" stroke="#000000" stroke-opacity="1" stroke-width="1" stroke-linecap="butt" stroke-linejoin="miter" stroke-dasharray="none" fill-opacity="0" /><path d="M495 1530 L711 1530 L711 1674 L495 1530 Z " opacity="1" stroke="#000000" stroke-opacity="1" stroke-width="1" stroke-linecap="butt" stroke-linejoin="miter" stroke-dasharray="none" fill-opacity="0" /></g><g><path d="M693 1827 L477 1827 L477 1683 L693 1827 Z " opacity="1" stroke="#000000" stroke-opacity="1" stroke-width="1" stroke-linecap="butt" stroke-linejoin="miter" stroke-dasharray="none" fill-opacity="0" /><path d="M495 1683 L711 1683 L711 1827 L495 1683 Z " opacity="1" stroke="#000000" stroke-opacity="1" stroke-width="1" stroke-linecap="butt" stroke-linejoin="miter" stroke-dasharray="none" fill-opacity="0" /></g><g><path d="M693 1980 L477 1980 L477 1836 L693 1980 Z " opacity="1" stroke="#000000" stroke-opacity="1" stroke-width="1" stroke-linecap="butt" stroke-linejoin="miter" stroke-dasharray="none" fill-opacity="0" /><path d="M495 1836 L711 1836 L711 1980 L495 1836 Z " opacity="1" stroke="#000000" stroke-opacity="1" stroke-width="1" stroke-linecap="butt" stroke-linejoin="miter" stroke-dasharray="none" fill-opacity="0" /></g></g><g><g><line x1="369" y1="1602" x2="267.6982" y2="1773" opacity="1" stroke="#000000" stroke-opacity="1" stroke-width="1" stroke-linecap="butt" stroke-linejoin="miter" stroke-dasharray="none" /><line x1="267.6982" y1="1431" x2="369" y2="1602" opacity="1" stroke="#000000" stroke-opacity="1" stroke-width="1" stroke-linecap="butt" stroke-linejoin="miter" stroke-dasharray="none" /></g><line x1="267.6982" y1="1431.472" x2="-27" y2="1431.472" opacity="1" stroke="#000000" stroke-opacity="1" stroke-width="1" stroke-linecap="butt" stroke-linejoin="miter" stroke-dasharray="none" /><line x1="-27" y1="1431.472" x2="-27" y2="1772.528" opacity="1" stroke="#000000" stroke-opacity="1" stroke-width="1" stroke-linecap="butt" stroke-linejoin="miter" stroke-dasharray="none" /><line x1="267.6982" y1="1772.528" x2="-27" y2="1772.528" opacity="1" stroke="#000000" stroke-opacity="1" stroke-width="1" stroke-linecap="butt" stroke-linejoin="miter" stroke-dasharray="none" /></g><g><g><g><path d="M54 72 L54 378 L315 378 L315 396 L27 396 L27 54 L315 54 L315 72 L54 72 Z " opacity="1" stroke="#000000" stroke-opacity="1" stroke-width="1" stroke-linecap="butt" stroke-linejoin="miter" stroke-dasharray="none" fill-opacity="0" /><path d="M117 36 L117 342 L378 342 L378 360 L90.00002 360 L89.99998 18 L377.9999 18 L377.9999 36 L117 36 Z " opacity="1" stroke="#000000" stroke-opacity="1" stroke-width="1" stroke-linecap="butt" stroke-linejoin="miter" stroke-dasharray="none" fill-opacity="0" transform="rotate(180 234 189)" /><g><g><g transform="rotate(90 99 225)"><path d="M54 189 L54 261 L126 189 L54 189 Z " opacity="1" stroke="#000000" stroke-opacity="1" stroke-width="1" stroke-linecap="butt" stroke-linejoin="miter" stroke-dasharray="none" fill-opacity="0" /><path d="M144 261 L144 189 L72 261 L144 261 Z " opacity="1" stroke="#000000" stroke-opacity="1" stroke-width="1" stroke-linecap="butt" stroke-linejoin="miter" stroke-dasharray="none" fill-opacity="0" /></g><g transform="rotate(90 198 225)"><path d="M153 189 L153 261 L225 189 L153 189 Z " opacity="1" stroke="#000000" stroke-opacity="1" stroke-width="1" stroke-linecap="butt" stroke-linejoin="miter" stroke-dasharray="none" fill-opacity="0" /><path d="M243 261 L243 189 L171 261 L243 261 Z " opacity="1" stroke="#000000" stroke-opacity="1" stroke-width="1" stroke-linecap="butt" stroke-linejoin="miter" stroke-dasharray="none" fill-opacity="0" /></g><g transform="rotate(90 297 225)"><path d="M252 189 L252 261 L324 189 L252 189 Z " opacity="1" stroke="#000000" stroke-opacity="1" stroke-width="1" stroke-linecap="butt" stroke-linejoin="miter" stroke-dasharray="none" fill-opacity="0" /><path d="M342 261 L342 189 L270 261 L342 261 Z " opacity="1" stroke="#000000" stroke-opacity="1" stroke-width="1" stroke-linecap="butt" stroke-linejoin="miter" stroke-dasharray="none" fill-opacity="0" /></g></g><g><g transform="rotate(90 99 126)"><path d="M54 90.00003 L54 162 L126 90 L54 90.00003 Z " opacity="1" stroke="#000000" stroke-opacity="1" stroke-width="1" stroke-linecap="butt" stroke-linejoin="miter" stroke-dasharray="none" fill-opacity="0" /><path d="M144 162 L144 90 L72 162 L144 162 Z " opacity="1" stroke="#000000" stroke-opacity="1" stroke-width="1" stroke-linecap="butt" stroke-linejoin="miter" stroke-dasharray="none" fill-opacity="0" /></g><g transform="rotate(90 198 126)"><path d="M153 90 L153 162 L225 90 L153 90 Z " opacity="1" stroke="#000000" stroke-opacity="1" stroke-width="1" stroke-linecap="butt" stroke-linejoin="miter" stroke-dasharray="none" fill-opacity="0" /><path d="M243 162 L243 90 L171 162 L243 162 Z " opacity="1" stroke="#000000" stroke-opacity="1" stroke-width="1" stroke-linecap="butt" stroke-linejoin="miter" stroke-dasharray="none" fill-opacity="0" /></g><g transform="rotate(90 297 126)"><path d="M252 90 L252 162 L324 90 L252 90 Z " opacity="1" stroke="#000000" stroke-opacity="1" stroke-width="1" stroke-linecap="butt" stroke-linejoin="miter" stroke-dasharray="none" fill-opacity="0" /><path d="M342 162 L342 90 L270 162 L342 162 Z " opacity="1" stroke="#000000" stroke-opacity="1" stroke-width="1" stroke-linecap="butt" stroke-linejoin="miter" stroke-dasharray="none" fill-opacity="0" /></g></g></g></g><g><path d="M432 72 L432 378 L692.9999 378 L692.9999 396 L405 396 L405 54 L692.9999 54 L692.9999 72 L432 72 Z " opacity="1" stroke="#000000" stroke-opacity="1" stroke-width="1" stroke-linecap="butt" stroke-linejoin="miter" stroke-dasharray="none" fill-opacity="0" /><path d="M494.9999 36 L494.9999 342 L755.9999 342 L755.9999 360 L467.9999 360 L467.9999 18 L756 18 L756 36 L494.9999 36 Z " opacity="1" stroke="#000000" stroke-opacity="1" stroke-width="1" stroke-linecap="butt" stroke-linejoin="miter" stroke-dasharray="none" fill-opacity="0" transform="rotate(180 612 189)" /><g><g><g transform="rotate(90 476.9999 225)"><path d="M431.9999 189 L431.9999 261 L503.9999 189 L431.9999 189 Z " opacity="1" stroke="#000000" stroke-opacity="1" stroke-width="1" stroke-linecap="butt" stroke-linejoin="miter" stroke-dasharray="none" fill-opacity="0" /><path d="M521.9999 261 L521.9999 189 L449.9999 261 L521.9999 261 Z " opacity="1" stroke="#000000" stroke-opacity="1" stroke-width="1" stroke-linecap="butt" stroke-linejoin="miter" stroke-dasharray="none" fill-opacity="0" /></g><g transform="rotate(90 575.9999 225)"><path d="M530.9999 189 L530.9999 261 L602.9999 189 L530.9999 189 Z " opacity="1" stroke="#000000" stroke-opacity="1" stroke-width="1" stroke-linecap="butt" stroke-linejoin="miter" stroke-dasharray="none" fill-opacity="0" /><path d="M620.9999 261 L620.9999 189 L548.9999 261 L620.9999 261 Z " opacity="1" stroke="#000000" stroke-opacity="1" stroke-width="1" stroke-linecap="butt" stroke-linejoin="miter" stroke-dasharray="none" fill-opacity="0" /></g><g transform="rotate(90 674.9999 225)"><path d="M629.9999 189 L629.9999 261 L701.9999 189 L629.9999 189 Z " opacity="1" stroke="#000000" stroke-opacity="1" stroke-width="1" stroke-linecap="butt" stroke-linejoin="miter" stroke-dasharray="none" fill-opacity="0" /><path d="M719.9999 261 L719.9999 189 L647.9999 261 L719.9999 261 Z " opacity="1" stroke="#000000" stroke-opacity="1" stroke-width="1" stroke-linecap="butt" stroke-linejoin="miter" stroke-dasharray="none" fill-opacity="0" /></g></g><g><g transform="rotate(90 476.9999 126)"><path d="M431.9999 90 L431.9999 162 L503.9999 90 L431.9999 90 Z " opacity="1" stroke="#000000" stroke-opacity="1" stroke-width="1" stroke-linecap="butt" stroke-linejoin="miter" stroke-dasharray="none" fill-opacity="0" /><path d="M521.9999 162 L521.9999 90 L449.9999 162 L521.9999 162 Z " opacity="1" stroke="#000000" stroke-opacity="1" stroke-width="1" stroke-linecap="butt" stroke-linejoin="miter" stroke-dasharray="none" fill-opacity="0" /></g><g transform="rotate(90 575.9999 126)"><path d="M530.9999 90 L530.9999 162 L602.9999 90 L530.9999 90 Z " opacity="1" stroke="#000000" stroke-opacity="1" stroke-width="1" stroke-linecap="butt" stroke-linejoin="miter" stroke-dasharray="none" fill-opacity="0" /><path d="M620.9999 162 L620.9999 90 L548.9999 162 L620.9999 162 Z " opacity="1" stroke="#000000" stroke-opacity="1" stroke-width="1" stroke-linecap="butt" stroke-linejoin="miter" stroke-dasharray="none" fill-opacity="0" /></g><g transform="rotate(90 674.9999 126)"><path d="M629.9999 90 L629.9999 162 L701.9999 90 L629.9999 90 Z " opacity="1" stroke="#000000" stroke-opacity="1" stroke-width="1" stroke-linecap="butt" stroke-linejoin="miter" stroke-dasharray="none" fill-opacity="0" /><path d="M719.9999 162 L719.9999 90 L647.9999 162 L719.9999 162 Z " opacity="1" stroke="#000000" stroke-opacity="1" stroke-width="1" stroke-linecap="butt" stroke-linejoin="miter" stroke-dasharray="none" fill-opacity="0" /></g></g></g></g></g><g><g><path d="M54 468 L54 774 L315 774 L315 792 L27 792 L27 450 L315 450 L315 468 L54 468 Z " opacity="1" stroke="#000000" stroke-opacity="1" stroke-width="1" stroke-linecap="butt" stroke-linejoin="miter" stroke-dasharray="none" fill-opacity="0" /><path d="M117 432 L117 738 L378 738 L378 756 L90.00002 756 L89.99998 414 L377.9999 414 L377.9999 432 L117 432 Z " opacity="1" stroke="#000000" stroke-opacity="1" stroke-width="1" stroke-linecap="butt" stroke-linejoin="miter" stroke-dasharray="none" fill-opacity="0" transform="rotate(180 234 585)" /><g><g><g transform="rotate(90 99 621)"><path d="M54 585 L54 657 L126 585 L54 585 Z " opacity="1" stroke="#000000" stroke-opacity="1" stroke-width="1" stroke-linecap="butt" stroke-linejoin="miter" stroke-dasharray="none" fill-opacity="0" /><path d="M144 657 L144 585 L72 657 L144 657 Z " opacity="1" stroke="#000000" stroke-opacity="1" stroke-width="1" stroke-linecap="butt" stroke-linejoin="miter" stroke-dasharray="none" fill-opacity="0" /></g><g transform="rotate(90 198 621)"><path d="M153 585 L153 657 L225 585 L153 585 Z " opacity="1" stroke="#000000" stroke-opacity="1" stroke-width="1" stroke-linecap="butt" stroke-linejoin="miter" stroke-dasharray="none" fill-opacity="0" /><path d="M243 657 L243 585 L171 657 L243 657 Z " opacity="1" stroke="#000000" stroke-opacity="1" stroke-width="1" stroke-linecap="butt" stroke-linejoin="miter" stroke-dasharray="none" fill-opacity="0" /></g><g transform="rotate(90 297 621)"><path d="M252 585 L252 657 L324 585 L252 585 Z " opacity="1" stroke="#000000" stroke-opacity="1" stroke-width="1" stroke-linecap="butt" stroke-linejoin="miter" stroke-dasharray="none" fill-opacity="0" /><path d="M342 657 L342 585 L270 657 L342 657 Z " opacity="1" stroke="#000000" stroke-opacity="1" stroke-width="1" stroke-linecap="butt" stroke-linejoin="miter" stroke-dasharray="none" fill-opacity="0" /></g></g><g><g transform="rotate(90 99 522)"><path d="M54 486 L54 558 L126 486 L54 486 Z " opacity="1" stroke="#000000" stroke-opacity="1" stroke-width="1" stroke-linecap="butt" stroke-linejoin="miter" stroke-dasharray="none" fill-opacity="0" /><path d="M144 558 L144 486 L72 558 L144 558 Z " opacity="1" stroke="#000000" stroke-opacity="1" stroke-width="1" stroke-linecap="butt" stroke-linejoin="miter" stroke-dasharray="none" fill-opacity="0" /></g><g transform="rotate(90 198 522)"><path d="M153 486 L153 558 L225 486 L153 486 Z " opacity="1" stroke="#000000" stroke-opacity="1" stroke-width="1" stroke-linecap="butt" stroke-linejoin="miter" stroke-dasharray="none" fill-opacity="0" /><path d="M243 558 L243 486 L171 558 L243 558 Z " opacity="1" stroke="#000000" stroke-opacity="1" stroke-width="1" stroke-linecap="butt" stroke-linejoin="miter" stroke-dasharray="none" fill-opacity="0" /></g><g transform="rotate(90 297 522)"><path d="M252 486 L252 558 L324 486 L252 486 Z " opacity="1" stroke="#000000" stroke-opacity="1" stroke-width="1" stroke-linecap="butt" stroke-linejoin="miter" stroke-dasharray="none" fill-opacity="0" /><path d="M342 558 L342 486 L270 558 L342 558 Z " opacity="1" stroke="#000000" stroke-opacity="1" stroke-width="1" stroke-linecap="butt" stroke-linejoin="miter" stroke-dasharray="none" fill-opacity="0" /></g></g></g></g><g><path d="M432 468 L432 774 L692.9999 774 L692.9999 792 L405 792 L405 450 L692.9999 450 L692.9999 468 L432 468 Z " opacity="1" stroke="#000000" stroke-opacity="1" stroke-width="1" stroke-linecap="butt" stroke-linejoin="miter" stroke-dasharray="none" fill-opacity="0" /><path d="M494.9999 432 L494.9999 738 L755.9999 738 L755.9999 756 L467.9999 756 L467.9999 414 L756 414 L756 432 L494.9999 432 Z " opacity="1" stroke="#000000" stroke-opacity="1" stroke-width="1" stroke-linecap="butt" stroke-linejoin="miter" stroke-dasharray="none" fill-opacity="0" transform="rotate(180 612 585)" /><g><g><g transform="rotate(90 476.9999 621)"><path d="M431.9999 585 L431.9999 657 L503.9999 585 L431.9999 585 Z " opacity="1" stroke="#000000" stroke-opacity="1" stroke-width="1" stroke-linecap="butt" stroke-linejoin="miter" stroke-dasharray="none" fill-opacity="0" /><path d="M521.9999 656.9999 L521.9999 585 L449.9999 657 L521.9999 656.9999 Z " opacity="1" stroke="#000000" stroke-opacity="1" stroke-width="1" stroke-linecap="butt" stroke-linejoin="miter" stroke-dasharray="none" fill-opacity="0" /></g><g transform="rotate(90 575.9999 621)"><path d="M530.9999 585 L530.9999 657 L602.9999 585 L530.9999 585 Z " opacity="1" stroke="#000000" stroke-opacity="1" stroke-width="1" stroke-linecap="butt" stroke-linejoin="miter" stroke-dasharray="none" fill-opacity="0" /><path d="M620.9999 657 L620.9999 585 L548.9999 657 L620.9999 657 Z " opacity="1" stroke="#000000" stroke-opacity="1" stroke-width="1" stroke-linecap="butt" stroke-linejoin="miter" stroke-dasharray="none" fill-opacity="0" /></g><g transform="rotate(90 674.9999 621)"><path d="M629.9999 585 L629.9999 657 L701.9999 585 L629.9999 585 Z " opacity="1" stroke="#000000" stroke-opacity="1" stroke-width="1" stroke-linecap="butt" stroke-linejoin="miter" stroke-dasharray="none" fill-opacity="0" /><path d="M719.9999 657 L719.9999 585 L647.9999 657 L719.9999 657 Z " opacity="1" stroke="#000000" stroke-opacity="1" stroke-width="1" stroke-linecap="butt" stroke-linejoin="miter" stroke-dasharray="none" fill-opacity="0" /></g></g><g><g transform="rotate(90 476.9999 522)"><path d="M431.9999 486 L431.9999 558 L503.9999 486 L431.9999 486 Z " opacity="1" stroke="#000000" stroke-opacity="1" stroke-width="1" stroke-linecap="butt" stroke-linejoin="miter" stroke-dasharray="none" fill-opacity="0" /><path d="M521.9999 557.9999 L521.9999 486 L449.9999 558 L521.9999 557.9999 Z " opacity="1" stroke="#000000" stroke-opacity="1" stroke-width="1" stroke-linecap="butt" stroke-linejoin="miter" stroke-dasharray="none" fill-opacity="0" /></g><g transform="rotate(90 575.9999 522)"><path d="M530.9999 486 L530.9999 558 L602.9999 486 L530.9999 486 Z " opacity="1" stroke="#000000" stroke-opacity="1" stroke-width="1" stroke-linecap="butt" stroke-linejoin="miter" stroke-dasharray="none" fill-opacity="0" /><path d="M620.9999 558 L620.9999 486 L548.9999 558 L620.9999 558 Z " opacity="1" stroke="#000000" stroke-opacity="1" stroke-width="1" stroke-linecap="butt" stroke-linejoin="miter" stroke-dasharray="none" fill-opacity="0" /></g><g transform="rotate(90 674.9999 522)"><path d="M629.9999 486 L629.9999 558 L701.9999 486 L629.9999 486 Z " opacity="1" stroke="#000000" stroke-opacity="1" stroke-width="1" stroke-linecap="butt" stroke-linejoin="miter" stroke-dasharray="none" fill-opacity="0" /><path d="M719.9999 558 L719.9999 486 L647.9999 558 L719.9999 558 Z " opacity="1" stroke="#000000" stroke-opacity="1" stroke-width="1" stroke-linecap="butt" stroke-linejoin="miter" stroke-dasharray="none" fill-opacity="0" /></g></g></g></g></g><g><g><path d="M54 864 L54 1170 L315 1170 L315 1188 L27 1188 L27 846 L315 846 L315 864 L54 864 Z " opacity="1" stroke="#000000" stroke-opacity="1" stroke-width="1" stroke-linecap="butt" stroke-linejoin="miter" stroke-dasharray="none" fill-opacity="0" /><path d="M117 828 L117 1134 L378 1134 L378 1152 L90.00002 1152 L89.99998 810 L377.9999 810 L377.9999 828 L117 828 Z " opacity="1" stroke="#000000" stroke-opacity="1" stroke-width="1" stroke-linecap="butt" stroke-linejoin="miter" stroke-dasharray="none" fill-opacity="0" transform="rotate(180 234 981)" /><g><g><g transform="rotate(90 99 1017)"><path d="M54 981 L54 1053 L126 981 L54 981 Z " opacity="1" stroke="#000000" stroke-opacity="1" stroke-width="1" stroke-linecap="butt" stroke-linejoin="miter" stroke-dasharray="none" fill-opacity="0" /><path d="M144 1053 L144 981 L72 1053 L144 1053 Z " opacity="1" stroke="#000000" stroke-opacity="1" stroke-width="1" stroke-linecap="butt" stroke-linejoin="miter" stroke-dasharray="none" fill-opacity="0" /></g><g transform="rotate(90 198 1017)"><path d="M153 981 L153 1053 L225 981 L153 981 Z " opacity="1" stroke="#000000" stroke-opacity="1" stroke-width="1" stroke-linecap="butt" stroke-linejoin="miter" stroke-dasharray="none" fill-opacity="0" /><path d="M243 1053 L243 981 L171 1053 L243 1053 Z " opacity="1" stroke="#000000" stroke-opacity="1" stroke-width="1" stroke-linecap="butt" stroke-linejoin="miter" stroke-dasharray="none" fill-opacity="0" /></g><g transform="rotate(90 297 1017)"><path d="M252 981 L252 1053 L324 981 L252 981 Z " opacity="1" stroke="#000000" stroke-opacity="1" stroke-width="1" stroke-linecap="butt" stroke-linejoin="miter" stroke-dasharray="none" fill-opacity="0" /><path d="M342 1053 L342 981 L270 1053 L342 1053 Z " opacity="1" stroke="#000000" stroke-opacity="1" stroke-width="1" stroke-linecap="butt" stroke-linejoin="miter" stroke-dasharray="none" fill-opacity="0" /></g></g><g><g transform="rotate(90 99 918)"><path d="M54 882 L54 954 L126 882 L54 882 Z " opacity="1" stroke="#000000" stroke-opacity="1" stroke-width="1" stroke-linecap="butt" stroke-linejoin="miter" stroke-dasharray="none" fill-opacity="0" /><path d="M144 954 L144 882 L72 954 L144 954 Z " opacity="1" stroke="#000000" stroke-opacity="1" stroke-width="1" stroke-linecap="butt" stroke-linejoin="miter" stroke-dasharray="none" fill-opacity="0" /></g><g transform="rotate(90 198 918)"><path d="M153 882 L153 954 L225 882 L153 882 Z " opacity="1" stroke="#000000" stroke-opacity="1" stroke-width="1" stroke-linecap="butt" stroke-linejoin="miter" stroke-dasharray="none" fill-opacity="0" /><path d="M243 954 L243 882 L171 954 L243 954 Z " opacity="1" stroke="#000000" stroke-opacity="1" stroke-width="1" stroke-linecap="butt" stroke-linejoin="miter" stroke-dasharray="none" fill-opacity="0" /></g><g transform="rotate(90 297 918)"><path d="M252 882 L252 954 L324 882 L252 882 Z " opacity="1" stroke="#000000" stroke-opacity="1" stroke-width="1" stroke-linecap="butt" stroke-linejoin="miter" stroke-dasharray="none" fill-opacity="0" /><path d="M342 954 L342 882 L270 954 L342 954 Z " opacity="1" stroke="#000000" stroke-opacity="1" stroke-width="1" stroke-linecap="butt" stroke-linejoin="miter" stroke-dasharray="none" fill-opacity="0" /></g></g></g></g><g><path d="M432 864 L432 1170 L692.9999 1170 L692.9999 1188 L405 1188 L405 846 L692.9999 846 L692.9999 864 L432 864 Z " opacity="1" stroke="#000000" stroke-opacity="1" stroke-width="1" stroke-linecap="butt" stroke-linejoin="miter" stroke-dasharray="none" fill-opacity="0" /><path d="M494.9999 828 L494.9999 1134 L755.9999 1134 L755.9999 1152 L467.9999 1152 L467.9999 810 L756 810 L756 828 L494.9999 828 Z " opacity="1" stroke="#000000" stroke-opacity="1" stroke-width="1" stroke-linecap="butt" stroke-linejoin="miter" stroke-dasharray="none" fill-opacity="0" transform="rotate(180 612 981)" /><g><g><g transform="rotate(90 476.9999 1017)"><path d="M431.9999 981 L431.9999 1053 L503.9999 981 L431.9999 981 Z " opacity="1" stroke="#000000" stroke-opacity="1" stroke-width="1" stroke-linecap="butt" stroke-linejoin="miter" stroke-dasharray="none" fill-opacity="0" /><path d="M521.9999 1053 L521.9999 981 L449.9999 1053 L521.9999 1053 Z " opacity="1" stroke="#000000" stroke-opacity="1" stroke-width="1" stroke-linecap="butt" stroke-linejoin="miter" stroke-dasharray="none" fill-opacity="0" /></g><g transform="rotate(90 575.9999 1017)"><path d="M530.9999 981 L530.9999 1053 L602.9999 981 L530.9999 981 Z " opacity="1" stroke="#000000" stroke-opacity="1" stroke-width="1" stroke-linecap="butt" stroke-linejoin="miter" stroke-dasharray="none" fill-opacity="0" /><path d="M620.9999 1053 L620.9999 981 L548.9999 1053 L620.9999 1053 Z " opacity="1" stroke="#000000" stroke-opacity="1" stroke-width="1" stroke-linecap="butt" stroke-linejoin="miter" stroke-dasharray="none" fill-opacity="0" /></g><g transform="rotate(90 674.9999 1017)"><path d="M629.9999 981 L629.9999 1053 L701.9999 981 L629.9999 981 Z " opacity="1" stroke="#000000" stroke-opacity="1" stroke-width="1" stroke-linecap="butt" stroke-linejoin="miter" stroke-dasharray="none" fill-opacity="0" /><path d="M719.9999 1053 L719.9999 981 L647.9999 1053 L719.9999 1053 Z " opacity="1" stroke="#000000" stroke-opacity="1" stroke-width="1" stroke-linecap="butt" stroke-linejoin="miter" stroke-dasharray="none" fill-opacity="0" /></g></g><g><g transform="rotate(90 476.9999 918)"><path d="M431.9999 882 L431.9999 954 L503.9999 882 L431.9999 882 Z " opacity="1" stroke="#000000" stroke-opacity="1" stroke-width="1" stroke-linecap="butt" stroke-linejoin="miter" stroke-dasharray="none" fill-opacity="0" /><path d="M521.9999 954 L521.9999 882 L449.9999 954 L521.9999 954 Z " opacity="1" stroke="#000000" stroke-opacity="1" stroke-width="1" stroke-linecap="butt" stroke-linejoin="miter" stroke-dasharray="none" fill-opacity="0" /></g><g transform="rotate(90 575.9999 918)"><path d="M530.9999 882 L530.9999 954 L602.9999 882 L530.9999 882 Z " opacity="1" stroke="#000000" stroke-opacity="1" stroke-width="1" stroke-linecap="butt" stroke-linejoin="miter" stroke-dasharray="none" fill-opacity="0" /><path d="M620.9999 954 L620.9999 882 L548.9999 954 L620.9999 954 Z " opacity="1" stroke="#000000" stroke-opacity="1" stroke-width="1" stroke-linecap="butt" stroke-linejoin="miter" stroke-dasharray="none" fill-opacity="0" /></g><g transform="rotate(90 674.9999 918)"><path d="M629.9999 882 L629.9999 954 L701.9999 882 L629.9999 882 Z " opacity="1" stroke="#000000" stroke-opacity="1" stroke-width="1" stroke-linecap="butt" stroke-linejoin="miter" stroke-dasharray="none" fill-opacity="0" /><path d="M719.9999 954 L719.9999 882 L647.9999 954 L719.9999 954 Z " opacity="1" stroke="#000000" stroke-opacity="1" stroke-width="1" stroke-linecap="butt" stroke-linejoin="miter" stroke-dasharray="none" fill-opacity="0" /></g></g></g></g></g></g></g><g id="layer2" inkscape:label="Layer 20" inkscape:groupmode="layer" /></svg>