<?xml version="1.0" encoding="utf-8"?><svg width="100%" height="100%" version="1.1" viewBox="-12 6.000137 1311 2325.37" style="background-color:#FFFFFF" xmlns:xlink="http://www.w3.org/1999/xlink" xmlns:inkscape="http://www.inkscape.org/namespaces/inkscape" xmlns="http://www.w3.org/2000/svg"><defs /><g id="layer1" inkscape:label="Base horiz" inkscape:groupmode="layer"><g><path d="M1287 570.1681 L963 1131.336 L315 1131.336 L-9 570.1681 L315.0001 9.000137 L962.9999 9.000137 Z " opacity="1" stroke="#000000" stroke-opacity="1" stroke-width="1" stroke-linecap="butt" stroke-linejoin="miter" stroke-dasharray="none" fill-opacity="0" /><path d="M124.56 558 C124.56 547.308 133.308 538.56 144 538.56 C154.692 538.56 163.44 547.308 163.44 558 C163.44 568.692 154.692 577.4401 144 577.4401 C133.308 577.4401 124.56 568.692 124.56 558 Z " opacity="1" stroke="#000000" stroke-opacity="1" stroke-width="1" stroke-linecap="butt" stroke-linejoin="miter" stroke-dasharray="none" fill-opacity="0" /><path d="M190.8 486 C190.8 472.14 202.14 460.8 216 460.8 C229.86 460.8 241.2 472.14 241.2 486 C241.2 499.86 229.86 511.2 216 511.2 C202.14 511.2 190.8 499.86 190.8 486 Z " opacity="1" stroke="#000000" stroke-opacity="1" stroke-width="1" stroke-linecap="butt" stroke-linejoin="miter" stroke-dasharray="none" fill-opacity="0" /><path d="M201.6 630 C201.6 622.08 208.08 615.6 216 615.6 C223.92 615.6 230.4 622.08 230.4 630 C230.4 637.92 223.92 644.4 216 644.4 C208.08 644.4 201.6 637.92 201.6 630 Z " opacity="1" stroke="#000000" stroke-opacity="1" stroke-width="1" stroke-linecap="butt" stroke-linejoin="miter" stroke-dasharray="none" fill-opacity="0" /><g><path d="M720 180 C720 170.1 728.1 162 738 162 C747.9 162 756 170.1 756 180 C756 189.9 747.9 198 738 198 C728.1 198 720 189.9 720 180 Z " opacity="1" stroke="#000000" stroke-opacity="1" stroke-width="1" stroke-linecap="butt" stroke-linejoin="miter" stroke-dasharray="none" fill-opacity="0" /><g><g><ellipse cx="605.7003" cy="131.4" rx="4.500069" ry="4.500018" opacity="1" stroke="#000000" stroke-opacity="1" stroke-width="1" stroke-linecap="butt" stroke-linejoin="miter" stroke-dasharray="none" fill-opacity="0" /><ellipse cx="702.9" cy="131.4" rx="4.500036" ry="4.500018" opacity="1" stroke="#000000" stroke-opacity="1" stroke-width="1" stroke-linecap="butt" stroke-linejoin="miter" stroke-dasharray="none" fill-opacity="0" /></g><g><ellipse cx="605.7003" cy="228.5999" rx="4.500069" ry="4.499993" opacity="1" stroke="#000000" stroke-opacity="1" stroke-width="1" stroke-linecap="butt" stroke-linejoin="miter" stroke-dasharray="none" fill-opacity="0" /><ellipse cx="702.9" cy="228.5999" rx="4.500036" ry="4.499993" opacity="1" stroke="#000000" stroke-opacity="1" stroke-width="1" stroke-linecap="butt" stroke-linejoin="miter" stroke-dasharray="none" fill-opacity="0" /></g></g></g><g><path d="M720 936 C720 926.1 728.1 918 738 918 C747.9 918 756 926.1 756 936 C756 945.9 747.9 954 738 954 C728.1 954 720 945.9 720 936 Z " opacity="1" stroke="#000000" stroke-opacity="1" stroke-width="1" stroke-linecap="butt" stroke-linejoin="miter" stroke-dasharray="none" fill-opacity="0" /><g><g><ellipse cx="605.7003" cy="887.4" rx="4.500069" ry="4.500069" opacity="1" stroke="#000000" stroke-opacity="1" stroke-width="1" stroke-linecap="butt" stroke-linejoin="miter" stroke-dasharray="none" fill-opacity="0" /><ellipse cx="702.9" cy="887.4" rx="4.500036" ry="4.500069" opacity="1" stroke="#000000" stroke-opacity="1" stroke-width="1" stroke-linecap="butt" stroke-linejoin="miter" stroke-dasharray="none" fill-opacity="0" /></g><g><ellipse cx="605.7003" cy="984.6002" rx="4.500069" ry="4.500137" opacity="1" stroke="#000000" stroke-opacity="1" stroke-width="1" stroke-linecap="butt" stroke-linejoin="miter" stroke-dasharray="none" fill-opacity="0" /><ellipse cx="702.9" cy="984.6002" rx="4.500036" ry="4.500137" opacity="1" stroke="#000000" stroke-opacity="1" stroke-width="1" stroke-linecap="butt" stroke-linejoin="miter" stroke-dasharray="none" fill-opacity="0" /></g></g></g><g><g><g transform="rotate(270 909 210.168)"><path d="M902.25 237.1681 C902.25 233.4556 905.2875 230.4181 909 230.4181 C912.7125 230.4181 915.75 233.4556 915.75 237.1681 C915.75 240.8806 912.7125 243.9181 909 243.9181 C905.2875 243.9181 902.25 240.8806 902.25 237.1681 Z " opacity="1" stroke="#000000" stroke-opacity="1" stroke-width="1" stroke-linecap="butt" stroke-linejoin="miter" stroke-dasharray="none" fill="#FFFFFF" fill-opacity="1" /><rect x="882" y="165.168" width="54" height="90" rx="18" ry="18" opacity="1" stroke="#00FF00" stroke-opacity="1" stroke-width="1" stroke-linecap="butt" stroke-linejoin="miter" stroke-dasharray="2,2" fill-opacity="0" /></g><g transform="rotate(90 387 210.1681)"><path d="M380.25 237.1681 C380.25 233.4556 383.2875 230.4181 387 230.4181 C390.7125 230.4181 393.75 233.4556 393.75 237.1681 C393.75 240.8806 390.7125 243.9181 387 243.9181 C383.2875 243.9181 380.25 240.8806 380.25 237.1681 Z " opacity="1" stroke="#000000" stroke-opacity="1" stroke-width="1" stroke-linecap="butt" stroke-linejoin="miter" stroke-dasharray="none" fill="#FFFFFF" fill-opacity="1" /><rect x="360" y="165.1681" width="54" height="90" rx="18" ry="18" opacity="1" stroke="#00FF00" stroke-opacity="1" stroke-width="1" stroke-linecap="butt" stroke-linejoin="miter" stroke-dasharray="2,2" fill-opacity="0" /></g></g><g><g transform="rotate(270 909 930.168)"><path d="M902.25 957.168 C902.25 953.4555 905.2875 950.418 909 950.418 C912.7125 950.418 915.75 953.4555 915.75 957.168 C915.75 960.8805 912.7125 963.918 909 963.918 C905.2875 963.918 902.25 960.8805 902.25 957.168 Z " opacity="1" stroke="#000000" stroke-opacity="1" stroke-width="1" stroke-linecap="butt" stroke-linejoin="miter" stroke-dasharray="none" fill="#FFFFFF" fill-opacity="1" /><rect x="882" y="885.168" width="54" height="90.00007" rx="18" ry="18" opacity="1" stroke="#00FF00" stroke-opacity="1" stroke-width="1" stroke-linecap="butt" stroke-linejoin="miter" stroke-dasharray="2,2" fill-opacity="0" /></g><g transform="rotate(90 387.0001 930.1679)"><path d="M380.25 957.168 C380.25 953.4555 383.2875 950.418 387 950.418 C390.7125 950.418 393.75 953.4555 393.75 957.168 C393.75 960.8805 390.7125 963.918 387 963.918 C383.2875 963.918 380.25 960.8805 380.25 957.168 Z " opacity="1" stroke="#000000" stroke-opacity="1" stroke-width="1" stroke-linecap="butt" stroke-linejoin="miter" stroke-dasharray="none" fill="#FFFFFF" fill-opacity="1" /><rect x="360.0003" y="885.168" width="53.99959" height="89.99993" rx="18" ry="18" opacity="1" stroke="#00FF00" stroke-opacity="1" stroke-width="1" stroke-linecap="butt" stroke-linejoin="miter" stroke-dasharray="2,2" fill-opacity="0" /></g></g></g><path d="M721.8 567 C721.8 553.14 733.14 541.8 747 541.8 C760.86 541.8 772.2 553.14 772.2 567 C772.2 580.86 760.86 592.2 747 592.2 C733.14 592.2 721.8 580.86 721.8 567 Z " opacity="1" stroke="#000000" stroke-opacity="1" stroke-width="1" stroke-linecap="butt" stroke-linejoin="miter" stroke-dasharray="none" fill-opacity="0" /></g><g><g><line x1="504" y1="1206" x2="324.0001" y2="1206" opacity="1" stroke="#000000" stroke-opacity="1" stroke-width="1" stroke-linecap="butt" stroke-linejoin="miter" stroke-dasharray="none" /><line x1="324.0001" y1="1206" x2="0" y2="1767.185" opacity="1" stroke="#000000" stroke-opacity="1" stroke-width="1" stroke-linecap="butt" stroke-linejoin="miter" stroke-dasharray="none" /><line x1="0" y1="1767.185" x2="324.0001" y2="1206" opacity="1" stroke="#000000" stroke-opacity="1" stroke-width="1" stroke-linecap="butt" stroke-linejoin="miter" stroke-dasharray="none" /><line x1="1296" y1="1767.185" x2="972" y2="1206" opacity="1" stroke="#000000" stroke-opacity="1" stroke-width="1" stroke-linecap="butt" stroke-linejoin="miter" stroke-dasharray="none" /><line x1="972" y1="1206" x2="1296" y2="1767.185" opacity="1" stroke="#000000" stroke-opacity="1" stroke-width="1" stroke-linecap="butt" stroke-linejoin="miter" stroke-dasharray="none" /><line x1="504" y1="1206" x2="504" y2="1314" opacity="1" stroke="#000000" stroke-opacity="1" stroke-width="1" stroke-linecap="butt" stroke-linejoin="miter" stroke-dasharray="none" /><line x1="792" y1="1206" x2="792" y2="1314" opacity="1" stroke="#000000" stroke-opacity="1" stroke-width="1" stroke-linecap="butt" stroke-linejoin="miter" stroke-dasharray="none" /><line x1="504" y1="1314" x2="792" y2="1314" opacity="1" stroke="#000000" stroke-opacity="1" stroke-width="1" stroke-linecap="butt" stroke-linejoin="miter" stroke-dasharray="none" /><line x1="972" y1="1206" x2="792" y2="1206" opacity="1" stroke="#000000" stroke-opacity="1" stroke-width="1" stroke-linecap="butt" stroke-linejoin="miter" stroke-dasharray="none" /><g><g><rect x="594.72" y="1314" width="106.56" height="144" opacity="1" stroke="#00FF00" stroke-opacity="1" stroke-width="0.5" stroke-linecap="butt" stroke-linejoin="miter" stroke-dasharray="1,1" fill-opacity="0" /><g><g><ellipse cx="604.4401" cy="1334.16" rx="4.5" ry="4.500069" opacity="1" stroke="#000000" stroke-opacity="1" stroke-width="1" stroke-linecap="butt" stroke-linejoin="miter" stroke-dasharray="none" fill="#FFFFFF" fill-opacity="1" /><ellipse cx="604.4401" cy="1352.16" rx="4.5" ry="4.5" opacity="1" stroke="#000000" stroke-opacity="1" stroke-width="1" stroke-linecap="butt" stroke-linejoin="miter" stroke-dasharray="none" fill="#FFFFFF" fill-opacity="1" /><ellipse cx="604.4401" cy="1370.16" rx="4.5" ry="4.5" opacity="1" stroke="#000000" stroke-opacity="1" stroke-width="1" stroke-linecap="butt" stroke-linejoin="miter" stroke-dasharray="none" fill="#FFFFFF" fill-opacity="1" /><ellipse cx="604.4401" cy="1388.16" rx="4.5" ry="4.5" opacity="1" stroke="#000000" stroke-opacity="1" stroke-width="1" stroke-linecap="butt" stroke-linejoin="miter" stroke-dasharray="none" fill="#FFFFFF" fill-opacity="1" /><ellipse cx="604.4401" cy="1406.16" rx="4.5" ry="4.5" opacity="1" stroke="#000000" stroke-opacity="1" stroke-width="1" stroke-linecap="butt" stroke-linejoin="miter" stroke-dasharray="none" fill="#FFFFFF" fill-opacity="1" /><ellipse cx="604.4401" cy="1424.16" rx="4.5" ry="4.5" opacity="1" stroke="#000000" stroke-opacity="1" stroke-width="1" stroke-linecap="butt" stroke-linejoin="miter" stroke-dasharray="none" fill="#FFFFFF" fill-opacity="1" /><ellipse cx="604.4401" cy="1442.16" rx="4.5" ry="4.5" opacity="1" stroke="#000000" stroke-opacity="1" stroke-width="1" stroke-linecap="butt" stroke-linejoin="miter" stroke-dasharray="none" fill="#FFFFFF" fill-opacity="1" /></g><g><ellipse cx="693" cy="1334.16" rx="4.5" ry="4.500069" opacity="1" stroke="#000000" stroke-opacity="1" stroke-width="1" stroke-linecap="butt" stroke-linejoin="miter" stroke-dasharray="none" fill="#FFFFFF" fill-opacity="1" /><ellipse cx="693" cy="1352.16" rx="4.5" ry="4.5" opacity="1" stroke="#000000" stroke-opacity="1" stroke-width="1" stroke-linecap="butt" stroke-linejoin="miter" stroke-dasharray="none" fill="#FFFFFF" fill-opacity="1" /><ellipse cx="693" cy="1370.16" rx="4.5" ry="4.5" opacity="1" stroke="#000000" stroke-opacity="1" stroke-width="1" stroke-linecap="butt" stroke-linejoin="miter" stroke-dasharray="none" fill="#FFFFFF" fill-opacity="1" /><ellipse cx="693" cy="1388.16" rx="4.5" ry="4.5" opacity="1" stroke="#000000" stroke-opacity="1" stroke-width="1" stroke-linecap="butt" stroke-linejoin="miter" stroke-dasharray="none" fill="#FFFFFF" fill-opacity="1" /><ellipse cx="693" cy="1406.16" rx="4.5" ry="4.5" opacity="1" stroke="#000000" stroke-opacity="1" stroke-width="1" stroke-linecap="butt" stroke-linejoin="miter" stroke-dasharray="none" fill="#FFFFFF" fill-opacity="1" /><ellipse cx="693" cy="1424.16" rx="4.5" ry="4.5" opacity="1" stroke="#000000" stroke-opacity="1" stroke-width="1" stroke-linecap="butt" stroke-linejoin="miter" stroke-dasharray="none" fill="#FFFFFF" fill-opacity="1" /><ellipse cx="693" cy="1442.16" rx="4.5" ry="4.5" opacity="1" stroke="#000000" stroke-opacity="1" stroke-width="1" stroke-linecap="butt" stroke-linejoin="miter" stroke-dasharray="none" fill="#FFFFFF" fill-opacity="1" /></g></g><g><line x1="639.72" y1="1332" x2="639.72" y2="1404" opacity="1" stroke="#00FF00" stroke-opacity="1" stroke-width="0.5" stroke-linecap="butt" stroke-linejoin="miter" stroke-dasharray="1,1" /><line x1="639.72" y1="1332" x2="648.72" y2="1359" opacity="1" stroke="#00FF00" stroke-opacity="1" stroke-width="0.5" stroke-linecap="butt" stroke-linejoin="miter" stroke-dasharray="1,1" /></g></g><line x1="576" y1="1314" x2="720" y2="1314" opacity="1" stroke="#00FF00" stroke-opacity="1" stroke-width="0.5" stroke-linecap="butt" stroke-linejoin="miter" stroke-dasharray="1,1" /></g></g><path d="M81 1765.592 C81 1691.342 141.75 1630.592 216 1630.592 C290.25 1630.592 351 1691.342 351 1765.592 C351 1839.842 290.25 1900.592 216 1900.592 C141.75 1900.592 81 1839.842 81 1765.592 Z " opacity="1" stroke="#000000" stroke-opacity="1" stroke-width="1" stroke-linecap="butt" stroke-linejoin="miter" stroke-dasharray="none" fill-opacity="0" /><path d="M945 1765.592 C945 1691.342 1005.75 1630.592 1080 1630.592 C1154.25 1630.592 1215 1691.342 1215 1765.592 C1215 1839.842 1154.25 1900.592 1080 1900.592 C1005.75 1900.592 945 1839.842 945 1765.592 Z " opacity="1" stroke="#000000" stroke-opacity="1" stroke-width="1" stroke-linecap="butt" stroke-linejoin="miter" stroke-dasharray="none" fill-opacity="0" /><g><line x1="504" y1="2328.37" x2="324.0001" y2="2328.37" opacity="1" stroke="#000000" stroke-opacity="1" stroke-width="1" stroke-linecap="butt" stroke-linejoin="miter" stroke-dasharray="none" /><line x1="324.0001" y1="2328.37" x2="0" y2="1767.185" opacity="1" stroke="#000000" stroke-opacity="1" stroke-width="1" stroke-linecap="butt" stroke-linejoin="miter" stroke-dasharray="none" /><line x1="0" y1="1767.185" x2="324.0001" y2="2328.37" opacity="1" stroke="#000000" stroke-opacity="1" stroke-width="1" stroke-linecap="butt" stroke-linejoin="miter" stroke-dasharray="none" /><line x1="1296" y1="1767.185" x2="972" y2="2328.37" opacity="1" stroke="#000000" stroke-opacity="1" stroke-width="1" stroke-linecap="butt" stroke-linejoin="miter" stroke-dasharray="none" /><line x1="972" y1="2328.37" x2="1296" y2="1767.185" opacity="1" stroke="#000000" stroke-opacity="1" stroke-width="1" stroke-linecap="butt" stroke-linejoin="miter" stroke-dasharray="none" /><line x1="504" y1="2328.37" x2="504" y2="2220.37" opacity="1" stroke="#000000" stroke-opacity="1" stroke-width="1" stroke-linecap="butt" stroke-linejoin="miter" stroke-dasharray="none" /><line x1="792" y1="2328.37" x2="792" y2="2220.37" opacity="1" stroke="#000000" stroke-opacity="1" stroke-width="1" stroke-linecap="butt" stroke-linejoin="miter" stroke-dasharray="none" /><line x1="504" y1="2220.37" x2="792" y2="2220.37" opacity="1" stroke="#000000" stroke-opacity="1" stroke-width="1" stroke-linecap="butt" stroke-linejoin="miter" stroke-dasharray="none" /><line x1="972" y1="2328.37" x2="792" y2="2328.37" opacity="1" stroke="#000000" stroke-opacity="1" stroke-width="1" stroke-linecap="butt" stroke-linejoin="miter" stroke-dasharray="none" /><g><g><rect x="594.72" y="2076.37" width="106.56" height="144" opacity="1" stroke="#00FF00" stroke-opacity="1" stroke-width="0.5" stroke-linecap="butt" stroke-linejoin="miter" stroke-dasharray="1,1" fill-opacity="0" /><g><g><ellipse cx="604.4401" cy="2200.21" rx="4.5" ry="4.5" opacity="1" stroke="#000000" stroke-opacity="1" stroke-width="1" stroke-linecap="butt" stroke-linejoin="miter" stroke-dasharray="none" fill="#FFFFFF" fill-opacity="1" /><ellipse cx="604.4401" cy="2182.21" rx="4.5" ry="4.5" opacity="1" stroke="#000000" stroke-opacity="1" stroke-width="1" stroke-linecap="butt" stroke-linejoin="miter" stroke-dasharray="none" fill="#FFFFFF" fill-opacity="1" /><ellipse cx="604.4401" cy="2164.21" rx="4.5" ry="4.5" opacity="1" stroke="#000000" stroke-opacity="1" stroke-width="1" stroke-linecap="butt" stroke-linejoin="miter" stroke-dasharray="none" fill="#FFFFFF" fill-opacity="1" /><ellipse cx="604.4401" cy="2146.21" rx="4.5" ry="4.5" opacity="1" stroke="#000000" stroke-opacity="1" stroke-width="1" stroke-linecap="butt" stroke-linejoin="miter" stroke-dasharray="none" fill="#FFFFFF" fill-opacity="1" /><ellipse cx="604.4401" cy="2128.21" rx="4.5" ry="4.5" opacity="1" stroke="#000000" stroke-opacity="1" stroke-width="1" stroke-linecap="butt" stroke-linejoin="miter" stroke-dasharray="none" fill="#FFFFFF" fill-opacity="1" /><ellipse cx="604.4401" cy="2110.21" rx="4.5" ry="4.5" opacity="1" stroke="#000000" stroke-opacity="1" stroke-width="1" stroke-linecap="butt" stroke-linejoin="miter" stroke-dasharray="none" fill="#FFFFFF" fill-opacity="1" /><ellipse cx="604.4401" cy="2092.21" rx="4.5" ry="4.5" opacity="1" stroke="#000000" stroke-opacity="1" stroke-width="1" stroke-linecap="butt" stroke-linejoin="miter" stroke-dasharray="none" fill="#FFFFFF" fill-opacity="1" /></g><g><ellipse cx="693" cy="2200.21" rx="4.5" ry="4.5" opacity="1" stroke="#000000" stroke-opacity="1" stroke-width="1" stroke-linecap="butt" stroke-linejoin="miter" stroke-dasharray="none" fill="#FFFFFF" fill-opacity="1" /><ellipse cx="693" cy="2182.21" rx="4.5" ry="4.5" opacity="1" stroke="#000000" stroke-opacity="1" stroke-width="1" stroke-linecap="butt" stroke-linejoin="miter" stroke-dasharray="none" fill="#FFFFFF" fill-opacity="1" /><ellipse cx="693" cy="2164.21" rx="4.5" ry="4.5" opacity="1" stroke="#000000" stroke-opacity="1" stroke-width="1" stroke-linecap="butt" stroke-linejoin="miter" stroke-dasharray="none" fill="#FFFFFF" fill-opacity="1" /><ellipse cx="693" cy="2146.21" rx="4.5" ry="4.5" opacity="1" stroke="#000000" stroke-opacity="1" stroke-width="1" stroke-linecap="butt" stroke-linejoin="miter" stroke-dasharray="none" fill="#FFFFFF" fill-opacity="1" /><ellipse cx="693" cy="2128.21" rx="4.5" ry="4.5" opacity="1" stroke="#000000" stroke-opacity="1" stroke-width="1" stroke-linecap="butt" stroke-linejoin="miter" stroke-dasharray="none" fill="#FFFFFF" fill-opacity="1" /><ellipse cx="693" cy="2110.21" rx="4.5" ry="4.5" opacity="1" stroke="#000000" stroke-opacity="1" stroke-width="1" stroke-linecap="butt" stroke-linejoin="miter" stroke-dasharray="none" fill="#FFFFFF" fill-opacity="1" /><ellipse cx="693" cy="2092.21" rx="4.5" ry="4.5" opacity="1" stroke="#000000" stroke-opacity="1" stroke-width="1" stroke-linecap="butt" stroke-linejoin="miter" stroke-dasharray="none" fill="#FFFFFF" fill-opacity="1" /></g></g><g><line x1="639.72" y1="2202.37" x2="639.72" y2="2130.37" opacity="1" stroke="#00FF00" stroke-opacity="1" stroke-width="0.5" stroke-linecap="butt" stroke-linejoin="miter" stroke-dasharray="1,1" /><line x1="639.72" y1="2202.37" x2="648.72" y2="2175.37" opacity="1" stroke="#00FF00" stroke-opacity="1" stroke-width="0.5" stroke-linecap="butt" stroke-linejoin="miter" stroke-dasharray="1,1" /></g></g><line x1="576" y1="2220.37" x2="720" y2="2220.37" opacity="1" stroke="#00FF00" stroke-opacity="1" stroke-width="0.5" stroke-linecap="butt" stroke-linejoin="miter" stroke-dasharray="1,1" /></g></g></g></g><g id="layer2" inkscape:label="Layer 20" inkscape:groupmode="layer" /></svg>