<?xml version="1.0" encoding="utf-8"?><svg width="100%" height="100%" version="1.1" viewBox="-3 -3 1338 1914" style="background-color:#FFFFFF" xmlns:xlink="http://www.w3.org/1999/xlink" xmlns:inkscape="http://www.inkscape.org/namespaces/inkscape" xmlns="http://www.w3.org/2000/svg"><defs /><g id="layer1" inkscape:label="Base side panels" inkscape:groupmode="layer"><g><g><g><line x1="684" y1="0" x2="1332" y2="0" opacity="1" stroke="#000000" stroke-opacity="1" stroke-width="1" stroke-linecap="butt" stroke-linejoin="round" stroke-dasharray="none" /><line x1="1332" y1="360" x2="1332" y2="0" opacity="1" stroke="#000000" stroke-opacity="1" stroke-width="1" stroke-linecap="butt" stroke-linejoin="round" stroke-dasharray="none" /><line x1="1332" y1="360" x2="1152" y2="360" opacity="1" stroke="#000000" stroke-opacity="1" stroke-width="1" stroke-linecap="butt" stroke-linejoin="round" stroke-dasharray="none" /><line x1="1152" y1="360" x2="1014" y2="216" opacity="1" stroke="#000000" stroke-opacity="1" stroke-width="1" stroke-linecap="butt" stroke-linejoin="round" stroke-dasharray="none" /><line x1="858.0002" y1="360" x2="1014" y2="216" opacity="1" stroke="#000000" stroke-opacity="1" stroke-width="1" stroke-linecap="butt" stroke-linejoin="round" stroke-dasharray="none" /><line x1="684" y1="360" x2="684" y2="0" opacity="1" stroke="#000000" stroke-opacity="1" stroke-width="1" stroke-linecap="butt" stroke-linejoin="round" stroke-dasharray="none" /><line x1="858.0002" y1="360" x2="684" y2="360" opacity="1" stroke="#000000" stroke-opacity="1" stroke-width="1" stroke-linecap="butt" stroke-linejoin="round" stroke-dasharray="none" /></g><ellipse cx="1008" cy="36" rx="9" ry="9" opacity="1" stroke="#000000" stroke-opacity="1" stroke-width="1" stroke-linecap="butt" stroke-linejoin="miter" stroke-dasharray="none" fill="#FFFFFF" fill-opacity="1" /></g><g><g><line x1="0" y1="0" x2="648" y2="0" opacity="1" stroke="#000000" stroke-opacity="1" stroke-width="1" stroke-linecap="butt" stroke-linejoin="round" stroke-dasharray="none" /><line x1="648" y1="360" x2="648" y2="0" opacity="1" stroke="#000000" stroke-opacity="1" stroke-width="1" stroke-linecap="butt" stroke-linejoin="round" stroke-dasharray="none" /><line x1="648" y1="360" x2="468" y2="360" opacity="1" stroke="#000000" stroke-opacity="1" stroke-width="1" stroke-linecap="butt" stroke-linejoin="round" stroke-dasharray="none" /><line x1="468" y1="360" x2="329.9998" y2="216" opacity="1" stroke="#000000" stroke-opacity="1" stroke-width="1" stroke-linecap="butt" stroke-linejoin="round" stroke-dasharray="none" /><line x1="174.0002" y1="360" x2="329.9998" y2="216" opacity="1" stroke="#000000" stroke-opacity="1" stroke-width="1" stroke-linecap="butt" stroke-linejoin="round" stroke-dasharray="none" /><line x1="0" y1="360" x2="0" y2="0" opacity="1" stroke="#000000" stroke-opacity="1" stroke-width="1" stroke-linecap="butt" stroke-linejoin="round" stroke-dasharray="none" /><line x1="174.0002" y1="360" x2="0" y2="360" opacity="1" stroke="#000000" stroke-opacity="1" stroke-width="1" stroke-linecap="butt" stroke-linejoin="round" stroke-dasharray="none" /></g><ellipse cx="324" cy="36" rx="9" ry="9" opacity="1" stroke="#000000" stroke-opacity="1" stroke-width="1" stroke-linecap="butt" stroke-linejoin="miter" stroke-dasharray="none" fill="#FFFFFF" fill-opacity="1" /></g></g><g><rect x="684" y="792" width="648" height="360" opacity="1" stroke="#000000" stroke-opacity="1" stroke-width="1" stroke-linecap="butt" stroke-linejoin="miter" stroke-dasharray="none" fill-opacity="0" /><ellipse cx="1008" cy="828" rx="9" ry="9" opacity="1" stroke="#000000" stroke-opacity="1" stroke-width="1" stroke-linecap="butt" stroke-linejoin="miter" stroke-dasharray="none" fill="#FFFFFF" fill-opacity="1" /><g><rect x="0" y="792" width="648" height="360" opacity="1" stroke="#000000" stroke-opacity="1" stroke-width="1" stroke-linecap="butt" stroke-linejoin="miter" stroke-dasharray="none" fill-opacity="0" /><ellipse cx="324" cy="828" rx="9" ry="9" opacity="1" stroke="#000000" stroke-opacity="1" stroke-width="1" stroke-linecap="butt" stroke-linejoin="miter" stroke-dasharray="none" fill="#FFFFFF" fill-opacity="1" /></g></g><g><g><rect x="720" y="1188" width="612" height="72" opacity="1" stroke="#000000" stroke-opacity="1" stroke-width="1" stroke-linecap="butt" stroke-linejoin="miter" stroke-dasharray="none" fill-opacity="0" /><ellipse cx="1026" cy="1224" rx="9" ry="9" opacity="1" stroke="#000000" stroke-opacity="1" stroke-width="1" stroke-linecap="butt" stroke-linejoin="miter" stroke-dasharray="none" fill="#FFFFFF" fill-opacity="1" /></g><g><rect x="18" y="1188" width="612" height="72" opacity="1" stroke="#000000" stroke-opacity="1" stroke-width="1" stroke-linecap="butt" stroke-linejoin="miter" stroke-dasharray="none" fill-opacity="0" /><ellipse cx="324" cy="1224" rx="9" ry="9" opacity="1" stroke="#000000" stroke-opacity="1" stroke-width="1" stroke-linecap="butt" stroke-linejoin="miter" stroke-dasharray="none" fill="#FFFFFF" fill-opacity="1" /></g></g><rect x="18" y="1512" width="279" height="72" opacity="1" stroke="#000000" stroke-opacity="1" stroke-width="1" stroke-linecap="butt" stroke-linejoin="miter" stroke-dasharray="none" fill-opacity="0" /><rect x="648" y="1620" width="288" height="72" opacity="1" stroke="#000000" stroke-opacity="1" stroke-width="1" stroke-linecap="butt" stroke-linejoin="miter" stroke-dasharray="none" fill-opacity="0" /><g><rect x="18" y="1620" width="576" height="72" opacity="1" stroke="#000000" stroke-opacity="1" stroke-width="1" stroke-linecap="butt" stroke-linejoin="miter" stroke-dasharray="none" fill-opacity="0" /><path d="M46.98 1656 C46.98 1652.139 50.139 1648.98 54 1648.98 C57.861 1648.98 61.02 1652.139 61.02 1656 C61.02 1659.861 57.861 1663.02 54 1663.02 C50.139 1663.02 46.98 1659.861 46.98 1656 Z " opacity="1" stroke="#000000" stroke-opacity="1" stroke-width="1" stroke-linecap="butt" stroke-linejoin="miter" stroke-dasharray="none" fill="#FFFFFF" fill-opacity="1" /><path d="M550.98 1656 C550.98 1652.139 554.139 1648.98 558 1648.98 C561.861 1648.98 565.02 1652.139 565.02 1656 C565.02 1659.861 561.861 1663.02 558 1663.02 C554.139 1663.02 550.98 1659.861 550.98 1656 Z " opacity="1" stroke="#000000" stroke-opacity="1" stroke-width="1" stroke-linecap="butt" stroke-linejoin="miter" stroke-dasharray="none" fill="#FFFFFF" fill-opacity="1" /></g><g><rect x="360" y="1512" width="576" height="72" opacity="1" stroke="#000000" stroke-opacity="1" stroke-width="1" stroke-linecap="butt" stroke-linejoin="miter" stroke-dasharray="none" fill-opacity="0" /><path d="M388.98 1548 C388.98 1544.139 392.139 1540.98 396 1540.98 C399.861 1540.98 403.02 1544.139 403.02 1548 C403.02 1551.861 399.861 1555.02 396 1555.02 C392.139 1555.02 388.98 1551.861 388.98 1548 Z " opacity="1" stroke="#000000" stroke-opacity="1" stroke-width="1" stroke-linecap="butt" stroke-linejoin="miter" stroke-dasharray="none" fill="#FFFFFF" fill-opacity="1" /><path d="M892.98 1548 C892.98 1544.139 896.139 1540.98 900 1540.98 C903.861 1540.98 907.02 1544.139 907.02 1548 C907.02 1551.861 903.861 1555.02 900 1555.02 C896.139 1555.02 892.98 1551.861 892.98 1548 Z " opacity="1" stroke="#000000" stroke-opacity="1" stroke-width="1" stroke-linecap="butt" stroke-linejoin="miter" stroke-dasharray="none" fill="#FFFFFF" fill-opacity="1" /></g><g><rect x="18" y="1836" width="360" height="72" opacity="1" stroke="#000000" stroke-opacity="1" stroke-width="1" stroke-linecap="butt" stroke-linejoin="miter" stroke-dasharray="none" fill-opacity="0" /><rect x="450" y="1836" width="360" height="72" opacity="1" stroke="#000000" stroke-opacity="1" stroke-width="1" stroke-linecap="butt" stroke-linejoin="miter" stroke-dasharray="none" fill-opacity="0" /></g><g><rect x="18" y="1728" width="360" height="72" opacity="1" stroke="#000000" stroke-opacity="1" stroke-width="1" stroke-linecap="butt" stroke-linejoin="miter" stroke-dasharray="none" fill-opacity="0" /><rect x="450" y="1728" width="360" height="72" opacity="1" stroke="#000000" stroke-opacity="1" stroke-width="1" stroke-linecap="butt" stroke-linejoin="miter" stroke-dasharray="none" fill-opacity="0" /></g><g><rect x="864" y="1836" width="144" height="72" opacity="1" stroke="#000000" stroke-opacity="1" stroke-width="1" stroke-linecap="butt" stroke-linejoin="miter" stroke-dasharray="none" fill-opacity="0" /><rect x="1035" y="1836" width="144" height="72" opacity="1" stroke="#000000" stroke-opacity="1" stroke-width="1" stroke-linecap="butt" stroke-linejoin="miter" stroke-dasharray="none" fill-opacity="0" /></g><g><rect x="864" y="1728" width="144.0001" height="72" opacity="1" stroke="#000000" stroke-opacity="1" stroke-width="1" stroke-linecap="butt" stroke-linejoin="miter" stroke-dasharray="none" fill-opacity="0" /><rect x="1035" y="1728" width="143.9999" height="72" opacity="1" stroke="#000000" stroke-opacity="1" stroke-width="1" stroke-linecap="butt" stroke-linejoin="miter" stroke-dasharray="none" fill-opacity="0" /></g><g><rect x="684" y="396" width="648" height="360" opacity="1" stroke="#000000" stroke-opacity="1" stroke-width="1" stroke-linecap="butt" stroke-linejoin="miter" stroke-dasharray="none" fill-opacity="0" /><ellipse cx="1008" cy="432" rx="9" ry="9" opacity="1" stroke="#000000" stroke-opacity="1" stroke-width="1" stroke-linecap="butt" stroke-linejoin="miter" stroke-dasharray="none" fill="#FFFFFF" fill-opacity="1" /><g><rect x="0" y="396" width="648" height="360" opacity="1" stroke="#000000" stroke-opacity="1" stroke-width="1" stroke-linecap="butt" stroke-linejoin="miter" stroke-dasharray="none" fill-opacity="0" /><ellipse cx="324" cy="432" rx="9" ry="9" opacity="1" stroke="#000000" stroke-opacity="1" stroke-width="1" stroke-linecap="butt" stroke-linejoin="miter" stroke-dasharray="none" fill="#FFFFFF" fill-opacity="1" /></g></g><g><g><rect x="720" y="1296" width="612" height="72" opacity="1" stroke="#000000" stroke-opacity="1" stroke-width="1" stroke-linecap="butt" stroke-linejoin="miter" stroke-dasharray="none" fill-opacity="0" /><ellipse cx="1026" cy="1332" rx="9" ry="9" opacity="1" stroke="#000000" stroke-opacity="1" stroke-width="1" stroke-linecap="butt" stroke-linejoin="miter" stroke-dasharray="none" fill="#FFFFFF" fill-opacity="1" /></g><g><rect x="18" y="1296" width="612" height="72" opacity="1" stroke="#000000" stroke-opacity="1" stroke-width="1" stroke-linecap="butt" stroke-linejoin="miter" stroke-dasharray="none" fill-opacity="0" /><ellipse cx="324" cy="1332" rx="9" ry="9" opacity="1" stroke="#000000" stroke-opacity="1" stroke-width="1" stroke-linecap="butt" stroke-linejoin="miter" stroke-dasharray="none" fill="#FFFFFF" fill-opacity="1" /></g></g><g><g><rect x="720" y="1404" width="612" height="72" opacity="1" stroke="#000000" stroke-opacity="1" stroke-width="1" stroke-linecap="butt" stroke-linejoin="miter" stroke-dasharray="none" fill-opacity="0" /><ellipse cx="1026" cy="1440" rx="9" ry="9" opacity="1" stroke="#000000" stroke-opacity="1" stroke-width="1" stroke-linecap="butt" stroke-linejoin="miter" stroke-dasharray="none" fill="#FFFFFF" fill-opacity="1" /></g><g><rect x="18" y="1404" width="612" height="72" opacity="1" stroke="#000000" stroke-opacity="1" stroke-width="1" stroke-linecap="butt" stroke-linejoin="miter" stroke-dasharray="none" fill-opacity="0" /><ellipse cx="324" cy="1440" rx="9" ry="9" opacity="1" stroke="#000000" stroke-opacity="1" stroke-width="1" stroke-linecap="butt" stroke-linejoin="miter" stroke-dasharray="none" fill="#FFFFFF" fill-opacity="1" /></g></g></g></svg>