<?xml version="1.0" encoding="utf-8"?><svg width="100%" height="100%" version="1.1" viewBox="-3 33 2094 1266" style="background-color:#FFFFFF" xmlns:xlink="http://www.w3.org/1999/xlink" xmlns:inkscape="http://www.inkscape.org/namespaces/inkscape" xmlns="http://www.w3.org/2000/svg"><defs /><g id="layer1" inkscape:label="Front panel" inkscape:groupmode="layer"><g><line x1="0" y1="36" x2="0" y2="1296" opacity="1" stroke="#000000" stroke-opacity="1" stroke-width="1" stroke-linecap="butt" stroke-linejoin="miter" stroke-dasharray="none" /><line x1="1008" y1="36" x2="1008" y2="1296" opacity="1" stroke="#000000" stroke-opacity="1" stroke-width="1" stroke-linecap="butt" stroke-linejoin="miter" stroke-dasharray="none" /><line x1="0" y1="36" x2="1008" y2="36" opacity="1" stroke="#000000" stroke-opacity="1" stroke-width="1" stroke-linecap="butt" stroke-linejoin="miter" stroke-dasharray="none" /><line x1="1008" y1="1296" x2="0" y2="1296" opacity="1" stroke="#000000" stroke-opacity="1" stroke-width="1" stroke-linecap="butt" stroke-linejoin="miter" stroke-dasharray="none" /><path d="M180 648 L252 648 L576 234 L576 180 L540 144 L198 144 L144 198 L144 576 L180 648 Z " opacity="1" stroke="#000000" stroke-opacity="1" stroke-width="1" stroke-linecap="butt" stroke-linejoin="miter" stroke-dasharray="none" fill-opacity="0" /><path d="M144 1062 L144 1008 L702 288 L810 252 L864 306 L864 1062 L810 1116 L198 1116 L144 1062 Z " opacity="1" stroke="#000000" stroke-opacity="1" stroke-width="1" stroke-linecap="butt" stroke-linejoin="miter" stroke-dasharray="none" fill-opacity="0" /><g><ellipse cx="108" cy="1152" rx="4.5" ry="4.5" opacity="1" stroke="#000000" stroke-opacity="1" stroke-width="1" stroke-linecap="butt" stroke-linejoin="miter" stroke-dasharray="none" fill="#FFFFFF" fill-opacity="1" /><ellipse cx="909" cy="1152" rx="4.5" ry="4.5" opacity="1" stroke="#000000" stroke-opacity="1" stroke-width="1" stroke-linecap="butt" stroke-linejoin="miter" stroke-dasharray="none" fill="#FFFFFF" fill-opacity="1" /></g><g><ellipse cx="108" cy="112.5" rx="4.5" ry="4.5" opacity="1" stroke="#000000" stroke-opacity="1" stroke-width="1" stroke-linecap="butt" stroke-linejoin="miter" stroke-dasharray="none" fill="#FFFFFF" fill-opacity="1" /><ellipse cx="909" cy="112.5" rx="4.5" ry="4.5" opacity="1" stroke="#000000" stroke-opacity="1" stroke-width="1" stroke-linecap="butt" stroke-linejoin="miter" stroke-dasharray="none" fill="#FFFFFF" fill-opacity="1" /></g><g transform="rotate(270 504 1251)"><g transform="rotate(270 503.9999 891)"><ellipse cx="504" cy="918" rx="6.749964" ry="6.75" opacity="1" stroke="#000000" stroke-opacity="1" stroke-width="1" stroke-linecap="butt" stroke-linejoin="miter" stroke-dasharray="none" fill="#FFFFFF" fill-opacity="1" /><rect x="476.9998" y="846" width="54.00027" height="90" rx="18" ry="18" opacity="1" stroke="#00FF00" stroke-opacity="1" stroke-width="1" stroke-linecap="butt" stroke-linejoin="miter" stroke-dasharray="2,2" fill-opacity="0" /></g><g transform="rotate(270 504.0001 1611)"><ellipse cx="504" cy="1638" rx="6.749931" ry="6.75" opacity="1" stroke="#000000" stroke-opacity="1" stroke-width="1" stroke-linecap="butt" stroke-linejoin="miter" stroke-dasharray="none" fill="#FFFFFF" fill-opacity="1" /><rect x="477.0003" y="1566" width="53.99945" height="90" rx="18" ry="18" opacity="1" stroke="#00FF00" stroke-opacity="1" stroke-width="1" stroke-linecap="butt" stroke-linejoin="miter" stroke-dasharray="2,2" fill-opacity="0" /></g></g></g><rect x="1080" y="36" width="1008" height="1260" opacity="1" stroke="#000000" stroke-opacity="1" stroke-width="1" stroke-linecap="butt" stroke-linejoin="miter" stroke-dasharray="none" fill-opacity="0" /><g transform="rotate(270 1584 1251)"><g transform="rotate(270 1584 891)"><ellipse cx="1584" cy="918" rx="6.749964" ry="6.75" opacity="1" stroke="#000000" stroke-opacity="1" stroke-width="1" stroke-linecap="butt" stroke-linejoin="miter" stroke-dasharray="none" fill="#FFFFFF" fill-opacity="1" /><rect x="1557" y="846" width="54.00027" height="90" rx="18" ry="18" opacity="1" stroke="#00FF00" stroke-opacity="1" stroke-width="1" stroke-linecap="butt" stroke-linejoin="miter" stroke-dasharray="2,2" fill-opacity="0" /></g><g transform="rotate(270 1584 1611)"><ellipse cx="1584" cy="1638" rx="6.749931" ry="6.75" opacity="1" stroke="#000000" stroke-opacity="1" stroke-width="1" stroke-linecap="butt" stroke-linejoin="miter" stroke-dasharray="none" fill="#FFFFFF" fill-opacity="1" /><rect x="1557" y="1566" width="53.99945" height="90" rx="18" ry="18" opacity="1" stroke="#00FF00" stroke-opacity="1" stroke-width="1" stroke-linecap="butt" stroke-linejoin="miter" stroke-dasharray="2,2" fill-opacity="0" /></g></g></g><g id="layer2" inkscape:label="Layer 20" inkscape:groupmode="layer" /></svg>