  0
SECTION
  2
HEADER
  9
$ACADVER
  1
AC1014
  9
$HANDSEED
  5
FFFF
  9
$MEASUREMENT
 70
     1
  0
ENDSEC
  0
SECTION
  2
TABLES
  0
TABLE
  2
VPORT
  5
8
330
0
100
AcDbSymbolTable
 70
     4
  0
VPORT
  5
2E
330
8
100
AcDbSymbolTableRecord
100
AcDbViewportTableRecord
  2
*ACTIVE
 70
     0
 10
0.0
 20
0.0
 11
1.0
 21
1.0
 12
210.0
 22
148.5
 13
0.0
 23
0.0
 14
10.0
 24
10.0
 15
10.0
 25
10.0
 16
0.0
 26
0.0
 36
1.0
 17
0.0
 27
0.0
 37
0.0
 40
341.0
 41
1.24
 42
50.0
 43
0.0
 44
0.0
 50
0.0
 51
0.0
 71
     0
 72
   100
 73
     1
 74
     3
 75
     0
 76
     0
 77
     0
 78
     0
  0
ENDTAB
  0
TABLE
  2
LTYPE
  5
5
330
0
100
AcDbSymbolTable
 70
     1
  0
LTYPE
  5
14
330
5
100
AcDbSymbolTableRecord
100
AcDbLinetypeTableRecord
  2
BYBLOCK
 70
     0
  3

 72
    65
 73
     0
 40
0.0
  0
LTYPE
  5
15
330
5
100
AcDbSymbolTableRecord
100
AcDbLinetypeTableRecord
  2
BYLAYER
 70
     0
  3

 72
    65
 73
     0
 40
0.0
  0
LTYPE
  5
16
330
5
100
AcDbSymbolTableRecord
100
AcDbLinetypeTableRecord
  2
CONTINUOUS
 70
     0
  3
Solid line
 72
    65
 73
     0
 40
0.0
  0
ENDTAB
  0
TABLE
  2
LAYER
  5
2
100
AcDbSymbolTable
 70
3
  0
LAYER
  5
50
100
AcDbSymbolTableRecord
100
AcDbLayerTableRecord
  2
0
 70
0
  6
CONTINUOUS
  0
LAYER
  5
51
100
AcDbSymbolTableRecord
100
AcDbLayerTableRecord
  2
Base_horiz
 70
0
  6
CONTINUOUS
  0
LAYER
  5
52
100
AcDbSymbolTableRecord
100
AcDbLayerTableRecord
  2
Layer_20
 70
0
  6
CONTINUOUS
  0
ENDTAB
  0
TABLE
  2
STYLE
  5
3
330
0
100
AcDbSymbolTable
 70
     1
  0
STYLE
  5
11
330
3
100
AcDbSymbolTableRecord
100
AcDbTextStyleTableRecord
  2
STANDARD
 70
     0
 40
0.0
 41
1.0
 50
0.0
 71
     0
 42
2.5
  3
txt
  4

  0
ENDTAB
  0
TABLE
  2
VIEW
  5
6
330
0
100
AcDbSymbolTable
 70
     0
  0
ENDTAB
  0
TABLE
  2
UCS
  5
7
330
0
100
AcDbSymbolTable
 70
     0
  0
ENDTAB
  0
TABLE
  2
APPID
  5
9
330
0
100
AcDbSymbolTable
 70
     2
  0
APPID
  5
12
330
9
100
AcDbSymbolTableRecord
100
AcDbRegAppTableRecord
  2
ACAD
 70
     0
  0
ENDTAB
  0
TABLE
  2
DIMSTYLE
  5
A
330
0
100
AcDbSymbolTable
 70
     1
  0
DIMSTYLE
105
27
330
A
100
AcDbSymbolTableRecord
100
AcDbDimStyleTableRecord
  2
ISO-25
 70
     0
  3

  4

  5

  6

  7

 40
1.0
 41
2.5
 42
0.625
 43
3.75
 44
1.25
 45
0.0
 46
0.0
 47
0.0
 48
0.0
140
2.5
141
2.5
142
0.0
143
0.03937007874016
144
1.0
145
0.0
146
1.0
147
0.625
 71
     0
 72
     0
 73
     0
 74
     0
 75
     0
 76
     0
 77
     1
 78
     8
170
     0
171
     3
172
     1
173
     0
174
     0
175
     0
176
     0
177
     0
178
     0
270
     2
271
     2
272
     2
273
     2
274
     3
340
11
275
     0
280
     0
281
     0
282
     0
283
     0
284
     8
285
     0
286
     0
287
     3
288
     0
  0
ENDTAB
  0
TABLE
  2
BLOCK_RECORD
  5
1
330
0
100
AcDbSymbolTable
 70
     1
  0
BLOCK_RECORD
  5
1F
330
1
100
AcDbSymbolTableRecord
100
AcDbBlockTableRecord
  2
*MODEL_SPACE
  0
BLOCK_RECORD
  5
1B
330
1
100
AcDbSymbolTableRecord
100
AcDbBlockTableRecord
  2
*PAPER_SPACE
  0
ENDTAB
  0
ENDSEC
  0
SECTION
  2
BLOCKS
  0
BLOCK
  5
20
330
1F
100
AcDbEntity
  8
0
100
AcDbBlockBegin
  2
*MODEL_SPACE
 70
     0
 10
0.0
 20
0.0
 30
0.0
  3
*MODEL_SPACE
  1

  0
ENDBLK
  5
21
330
1F
100
AcDbEntity
  8
0
100
AcDbBlockEnd
  0
BLOCK
  5
1C
330
1B
100
AcDbEntity
 67
     1
  8
0
100
AcDbBlockBegin
  2
*PAPER_SPACE
  1

  0
ENDBLK
  5
1D
330
1B
100
AcDbEntity
 67
     1
  8
0
100
AcDbBlockEnd
  0
ENDSEC
  0
SECTION
  2
ENTITIES
  0
SPLINE
  5
100
100
AcDbEntity
  8
Base_horiz
 62
7
100
AcDbSpline
 70
8
 71
3
 72
8
 73
4
 74
0
 40
0
 40
0
 40
0
 40
0
 40
1
 40
1
 40
1
 40
1
 10
51.616481
 20
-99.494562
 30
0.0
 10
51.616481
 20
-96.643391
 30
0.0
 10
53.949258
 20
-94.310614
 30
0.0
 10
56.800430
 20
-94.310614
 30
0.0
  0
SPLINE
  5
101
100
AcDbEntity
  8
Base_horiz
 62
7
100
AcDbSpline
 70
8
 71
3
 72
8
 73
4
 74
0
 40
0
 40
0
 40
0
 40
0
 40
1
 40
1
 40
1
 40
1
 10
56.800430
 20
-94.310614
 30
0.0
 10
59.651601
 20
-94.310614
 30
0.0
 10
61.984378
 20
-96.643391
 30
0.0
 10
61.984378
 20
-99.494562
 30
0.0
  0
SPLINE
  5
102
100
AcDbEntity
  8
Base_horiz
 62
7
100
AcDbSpline
 70
8
 71
3
 72
8
 73
4
 74
0
 40
0
 40
0
 40
0
 40
0
 40
1
 40
1
 40
1
 40
1
 10
61.984378
 20
-99.494562
 30
0.0
 10
61.984378
 20
-102.345734
 30
0.0
 10
59.651601
 20
-104.678537
 30
0.0
 10
56.800430
 20
-104.678537
 30
0.0
  0
SPLINE
  5
103
100
AcDbEntity
  8
Base_horiz
 62
7
100
AcDbSpline
 70
8
 71
3
 72
8
 73
4
 74
0
 40
0
 40
0
 40
0
 40
0
 40
1
 40
1
 40
1
 40
1
 10
56.800430
 20
-104.678537
 30
0.0
 10
53.949258
 20
-104.678537
 30
0.0
 10
51.616481
 20
-102.345734
 30
0.0
 10
51.616481
 20
-99.494562
 30
0.0
  0
LWPOLYLINE
  5
104
100
AcDbEntity
  8
Base_horiz
 62
7
100
AcDbPolyline
 90
7
 70
0
 10
361.597382
 20
-102.739357
 30
0.0
 10
275.198246
 20
-252.382634
 30
0.0
 10
102.399974
 20
-252.382634
 30
0.0
 10
16.000838
 20
-102.739357
 30
0.0
 10
102.400000
 20
46.903937
 30
0.0
 10
275.198219
 20
46.903937
 30
0.0
 10
361.597382
 20
-102.739357
 30
0.0
  0
SPLINE
  5
105
100
AcDbEntity
  8
Base_horiz
 62
7
100
AcDbSpline
 70
8
 71
3
 72
8
 73
4
 74
0
 40
0
 40
0
 40
0
 40
0
 40
1
 40
1
 40
1
 40
1
 10
69.280305
 20
-80.294754
 30
0.0
 10
69.280305
 20
-76.598791
 30
0.0
 10
72.304275
 20
-73.574822
 30
0.0
 10
76.000238
 20
-73.574822
 30
0.0
  0
SPLINE
  5
106
100
AcDbEntity
  8
Base_horiz
 62
7
100
AcDbSpline
 70
8
 71
3
 72
8
 73
4
 74
0
 40
0
 40
0
 40
0
 40
0
 40
1
 40
1
 40
1
 40
1
 10
76.000238
 20
-73.574822
 30
0.0
 10
79.696201
 20
-73.574822
 30
0.0
 10
82.720170
 20
-76.598791
 30
0.0
 10
82.720170
 20
-80.294754
 30
0.0
  0
SPLINE
  5
107
100
AcDbEntity
  8
Base_horiz
 62
7
100
AcDbSpline
 70
8
 71
3
 72
8
 73
4
 74
0
 40
0
 40
0
 40
0
 40
0
 40
1
 40
1
 40
1
 40
1
 10
82.720170
 20
-80.294754
 30
0.0
 10
82.720170
 20
-83.990717
 30
0.0
 10
79.696201
 20
-87.014687
 30
0.0
 10
76.000238
 20
-87.014687
 30
0.0
  0
SPLINE
  5
108
100
AcDbEntity
  8
Base_horiz
 62
7
100
AcDbSpline
 70
8
 71
3
 72
8
 73
4
 74
0
 40
0
 40
0
 40
0
 40
0
 40
1
 40
1
 40
1
 40
1
 10
76.000238
 20
-87.014687
 30
0.0
 10
72.304275
 20
-87.014687
 30
0.0
 10
69.280305
 20
-83.990717
 30
0.0
 10
69.280305
 20
-80.294754
 30
0.0
  0
LWPOLYLINE
  5
109
100
AcDbEntity
  8
Base_horiz
 62
7
100
AcDbPolyline
 90
2
 70
0
 10
51.616481
 20
-99.494562
 30
0.0
 10
51.616481
 20
-99.494562
 30
0.0
  0
SPLINE
  5
10a
100
AcDbEntity
  8
Base_horiz
 62
7
100
AcDbSpline
 70
8
 71
3
 72
8
 73
4
 74
0
 40
0
 40
0
 40
0
 40
0
 40
1
 40
1
 40
1
 40
1
 10
72.160276
 20
-118.694370
 30
0.0
 10
72.160276
 20
-116.582392
 30
0.0
 10
73.888259
 20
-114.854409
 30
0.0
 10
76.000238
 20
-114.854409
 30
0.0
  0
SPLINE
  5
10b
100
AcDbEntity
  8
Base_horiz
 62
7
100
AcDbSpline
 70
8
 71
3
 72
8
 73
4
 74
0
 40
0
 40
0
 40
0
 40
0
 40
1
 40
1
 40
1
 40
1
 10
76.000238
 20
-114.854409
 30
0.0
 10
78.112216
 20
-114.854409
 30
0.0
 10
79.840199
 20
-116.582392
 30
0.0
 10
79.840199
 20
-118.694370
 30
0.0
  0
SPLINE
  5
10c
100
AcDbEntity
  8
Base_horiz
 62
7
100
AcDbSpline
 70
8
 71
3
 72
8
 73
4
 74
0
 40
0
 40
0
 40
0
 40
0
 40
1
 40
1
 40
1
 40
1
 10
79.840199
 20
-118.694370
 30
0.0
 10
79.840199
 20
-120.806349
 30
0.0
 10
78.112216
 20
-122.534332
 30
0.0
 10
76.000238
 20
-122.534332
 30
0.0
  0
SPLINE
  5
10d
100
AcDbEntity
  8
Base_horiz
 62
7
100
AcDbSpline
 70
8
 71
3
 72
8
 73
4
 74
0
 40
0
 40
0
 40
0
 40
0
 40
1
 40
1
 40
1
 40
1
 10
76.000238
 20
-122.534332
 30
0.0
 10
73.888259
 20
-122.534332
 30
0.0
 10
72.160276
 20
-120.806349
 30
0.0
 10
72.160276
 20
-118.694370
 30
0.0
  0
LWPOLYLINE
  5
10e
100
AcDbEntity
  8
Base_horiz
 62
7
100
AcDbPolyline
 90
2
 70
0
 10
69.280305
 20
-80.294754
 30
0.0
 10
69.280305
 20
-80.294754
 30
0.0
  0
SPLINE
  5
10f
100
AcDbEntity
  8
Base_horiz
 62
7
100
AcDbSpline
 70
8
 71
3
 72
8
 73
4
 74
0
 40
0
 40
0
 40
0
 40
0
 40
1
 40
1
 40
1
 40
1
 10
210.398894
 20
1.304430
 30
0.0
 10
210.398894
 20
3.944403
 30
0.0
 10
212.558872
 20
6.104382
 30
0.0
 10
215.198846
 20
6.104382
 30
0.0
  0
SPLINE
  5
110
100
AcDbEntity
  8
Base_horiz
 62
7
100
AcDbSpline
 70
8
 71
3
 72
8
 73
4
 74
0
 40
0
 40
0
 40
0
 40
0
 40
1
 40
1
 40
1
 40
1
 10
215.198846
 20
6.104382
 30
0.0
 10
217.838819
 20
6.104382
 30
0.0
 10
219.998798
 20
3.944403
 30
0.0
 10
219.998798
 20
1.304430
 30
0.0
  0
SPLINE
  5
111
100
AcDbEntity
  8
Base_horiz
 62
7
100
AcDbSpline
 70
8
 71
3
 72
8
 73
4
 74
0
 40
0
 40
0
 40
0
 40
0
 40
1
 40
1
 40
1
 40
1
 10
219.998798
 20
1.304430
 30
0.0
 10
219.998798
 20
-1.335544
 30
0.0
 10
217.838819
 20
-3.495522
 30
0.0
 10
215.198846
 20
-3.495522
 30
0.0
  0
SPLINE
  5
112
100
AcDbEntity
  8
Base_horiz
 62
7
100
AcDbSpline
 70
8
 71
3
 72
8
 73
4
 74
0
 40
0
 40
0
 40
0
 40
0
 40
1
 40
1
 40
1
 40
1
 10
215.198846
 20
-3.495522
 30
0.0
 10
212.558872
 20
-3.495522
 30
0.0
 10
210.398894
 20
-1.335544
 30
0.0
 10
210.398894
 20
1.304430
 30
0.0
  0
LWPOLYLINE
  5
113
100
AcDbEntity
  8
Base_horiz
 62
7
100
AcDbPolyline
 90
2
 70
0
 10
72.160276
 20
-118.694370
 30
0.0
 10
72.160276
 20
-118.694370
 30
0.0
  0
SPLINE
  5
114
100
AcDbEntity
  8
Base_horiz
 62
7
100
AcDbSpline
 70
8
 71
3
 72
8
 73
4
 74
0
 40
0
 40
0
 40
0
 40
0
 40
1
 40
1
 40
1
 40
1
 10
210.398894
 20
-200.293554
 30
0.0
 10
210.398894
 20
-197.653581
 30
0.0
 10
212.558872
 20
-195.493602
 30
0.0
 10
215.198846
 20
-195.493602
 30
0.0
  0
SPLINE
  5
115
100
AcDbEntity
  8
Base_horiz
 62
7
100
AcDbSpline
 70
8
 71
3
 72
8
 73
4
 74
0
 40
0
 40
0
 40
0
 40
0
 40
1
 40
1
 40
1
 40
1
 10
215.198846
 20
-195.493602
 30
0.0
 10
217.838819
 20
-195.493602
 30
0.0
 10
219.998798
 20
-197.653581
 30
0.0
 10
219.998798
 20
-200.293554
 30
0.0
  0
SPLINE
  5
116
100
AcDbEntity
  8
Base_horiz
 62
7
100
AcDbSpline
 70
8
 71
3
 72
8
 73
4
 74
0
 40
0
 40
0
 40
0
 40
0
 40
1
 40
1
 40
1
 40
1
 10
219.998798
 20
-200.293554
 30
0.0
 10
219.998798
 20
-202.933528
 30
0.0
 10
217.838819
 20
-205.093506
 30
0.0
 10
215.198846
 20
-205.093506
 30
0.0
  0
SPLINE
  5
117
100
AcDbEntity
  8
Base_horiz
 62
7
100
AcDbSpline
 70
8
 71
3
 72
8
 73
4
 74
0
 40
0
 40
0
 40
0
 40
0
 40
1
 40
1
 40
1
 40
1
 10
215.198846
 20
-205.093506
 30
0.0
 10
212.558872
 20
-205.093506
 30
0.0
 10
210.398894
 20
-202.933528
 30
0.0
 10
210.398894
 20
-200.293554
 30
0.0
  0
LWPOLYLINE
  5
118
100
AcDbEntity
  8
Base_horiz
 62
7
100
AcDbPolyline
 90
2
 70
0
 10
210.398894
 20
1.304430
 30
0.0
 10
210.398894
 20
1.304430
 30
0.0
  0
SPLINE
  5
119
100
AcDbEntity
  8
Base_horiz
 62
7
100
AcDbSpline
 70
8
 71
3
 72
8
 73
4
 74
0
 40
0
 40
0
 40
0
 40
0
 40
1
 40
1
 40
1
 40
1
 10
267.998344
 20
-8.540272
 30
0.0
 10
267.008354
 20
-8.540272
 30
0.0
 10
266.198362
 20
-7.730280
 30
0.0
 10
266.198362
 20
-6.740290
 30
0.0
  0
SPLINE
  5
11a
100
AcDbEntity
  8
Base_horiz
 62
7
100
AcDbSpline
 70
8
 71
3
 72
8
 73
4
 74
0
 40
0
 40
0
 40
0
 40
0
 40
1
 40
1
 40
1
 40
1
 10
266.198362
 20
-6.740290
 30
0.0
 10
266.198362
 20
-5.750300
 30
0.0
 10
267.008354
 20
-4.940308
 30
0.0
 10
267.998344
 20
-4.940308
 30
0.0
  0
SPLINE
  5
11b
100
AcDbEntity
  8
Base_horiz
 62
7
100
AcDbSpline
 70
8
 71
3
 72
8
 73
4
 74
0
 40
0
 40
0
 40
0
 40
0
 40
1
 40
1
 40
1
 40
1
 10
267.998344
 20
-4.940308
 30
0.0
 10
268.988334
 20
-4.940308
 30
0.0
 10
269.798326
 20
-5.750300
 30
0.0
 10
269.798326
 20
-6.740290
 30
0.0
  0
SPLINE
  5
11c
100
AcDbEntity
  8
Base_horiz
 62
7
100
AcDbSpline
 70
8
 71
3
 72
8
 73
4
 74
0
 40
0
 40
0
 40
0
 40
0
 40
1
 40
1
 40
1
 40
1
 10
269.798326
 20
-6.740290
 30
0.0
 10
269.798326
 20
-7.730280
 30
0.0
 10
268.988334
 20
-8.540272
 30
0.0
 10
267.998344
 20
-8.540272
 30
0.0
  0
LWPOLYLINE
  5
11d
100
AcDbEntity
  8
Base_horiz
 62
7
100
AcDbPolyline
 90
2
 70
0
 10
210.398894
 20
-200.293554
 30
0.0
 10
210.398894
 20
-200.293554
 30
0.0
  0
LWPOLYLINE
  5
11e
100
AcDbEntity
  8
Base_horiz
 62
7
100
AcDbPolyline
 90
2
 70
0
 10
267.998344
 20
-8.540272
 30
0.0
 10
267.998344
 20
-8.540272
 30
0.0
  0
SPLINE
  5
11f
100
AcDbEntity
  8
Base_horiz
 62
7
100
AcDbSpline
 70
8
 71
3
 72
8
 73
4
 74
0
 40
0
 40
0
 40
0
 40
0
 40
1
 40
1
 40
1
 40
1
 10
114.399854
 20
-4.940335
 30
0.0
 10
115.389844
 20
-4.940335
 30
0.0
 10
116.199836
 20
-5.750327
 30
0.0
 10
116.199836
 20
-6.740317
 30
0.0
  0
SPLINE
  5
120
100
AcDbEntity
  8
Base_horiz
 62
7
100
AcDbSpline
 70
8
 71
3
 72
8
 73
4
 74
0
 40
0
 40
0
 40
0
 40
0
 40
1
 40
1
 40
1
 40
1
 10
116.199836
 20
-6.740317
 30
0.0
 10
116.199836
 20
-7.730307
 30
0.0
 10
115.389844
 20
-8.540299
 30
0.0
 10
114.399854
 20
-8.540299
 30
0.0
  0
SPLINE
  5
121
100
AcDbEntity
  8
Base_horiz
 62
7
100
AcDbSpline
 70
8
 71
3
 72
8
 73
4
 74
0
 40
0
 40
0
 40
0
 40
0
 40
1
 40
1
 40
1
 40
1
 10
114.399854
 20
-8.540299
 30
0.0
 10
113.409863
 20
-8.540299
 30
0.0
 10
112.599872
 20
-7.730307
 30
0.0
 10
112.599872
 20
-6.740317
 30
0.0
  0
SPLINE
  5
122
100
AcDbEntity
  8
Base_horiz
 62
7
100
AcDbSpline
 70
8
 71
3
 72
8
 73
4
 74
0
 40
0
 40
0
 40
0
 40
0
 40
1
 40
1
 40
1
 40
1
 10
112.599872
 20
-6.740317
 30
0.0
 10
112.599872
 20
-5.750327
 30
0.0
 10
113.409863
 20
-4.940335
 30
0.0
 10
114.399854
 20
-4.940335
 30
0.0
  0
LWPOLYLINE
  5
123
100
AcDbEntity
  8
Base_horiz
 62
3
100
AcDbPolyline
 90
5
 70
0
 10
248.798510
 20
-13.940218
 30
0.0
 10
248.798510
 20
0.459638
 30
0.0
 10
272.798270
 20
0.459638
 30
0.0
 10
272.798270
 20
-13.940218
 30
0.0
 10
248.798510
 20
-13.940218
 30
0.0
  0
LWPOLYLINE
  5
124
100
AcDbEntity
  8
Base_horiz
 62
7
100
AcDbPolyline
 90
2
 70
0
 10
114.399854
 20
-4.940335
 30
0.0
 10
114.399854
 20
-4.940335
 30
0.0
  0
SPLINE
  5
125
100
AcDbEntity
  8
Base_horiz
 62
7
100
AcDbSpline
 70
8
 71
3
 72
8
 73
4
 74
0
 40
0
 40
0
 40
0
 40
0
 40
1
 40
1
 40
1
 40
1
 10
267.998318
 20
-200.538352
 30
0.0
 10
267.008328
 20
-200.538352
 30
0.0
 10
266.198336
 20
-199.728360
 30
0.0
 10
266.198336
 20
-198.738370
 30
0.0
  0
SPLINE
  5
126
100
AcDbEntity
  8
Base_horiz
 62
7
100
AcDbSpline
 70
8
 71
3
 72
8
 73
4
 74
0
 40
0
 40
0
 40
0
 40
0
 40
1
 40
1
 40
1
 40
1
 10
266.198336
 20
-198.738370
 30
0.0
 10
266.198336
 20
-197.748380
 30
0.0
 10
267.008328
 20
-196.938388
 30
0.0
 10
267.998318
 20
-196.938388
 30
0.0
  0
SPLINE
  5
127
100
AcDbEntity
  8
Base_horiz
 62
7
100
AcDbSpline
 70
8
 71
3
 72
8
 73
4
 74
0
 40
0
 40
0
 40
0
 40
0
 40
1
 40
1
 40
1
 40
1
 10
267.998318
 20
-196.938388
 30
0.0
 10
268.988308
 20
-196.938388
 30
0.0
 10
269.798300
 20
-197.748380
 30
0.0
 10
269.798300
 20
-198.738370
 30
0.0
  0
SPLINE
  5
128
100
AcDbEntity
  8
Base_horiz
 62
7
100
AcDbSpline
 70
8
 71
3
 72
8
 73
4
 74
0
 40
0
 40
0
 40
0
 40
0
 40
1
 40
1
 40
1
 40
1
 10
269.798300
 20
-198.738370
 30
0.0
 10
269.798300
 20
-199.728360
 30
0.0
 10
268.988308
 20
-200.538352
 30
0.0
 10
267.998318
 20
-200.538352
 30
0.0
  0
LWPOLYLINE
  5
129
100
AcDbEntity
  8
Base_horiz
 62
3
100
AcDbPolyline
 90
5
 70
0
 10
133.599659
 20
0.459611
 30
0.0
 10
133.599659
 20
-13.940245
 30
0.0
 10
109.599899
 20
-13.940245
 30
0.0
 10
109.599899
 20
0.459611
 30
0.0
 10
133.599659
 20
0.459611
 30
0.0
  0
LWPOLYLINE
  5
12a
100
AcDbEntity
  8
Base_horiz
 62
7
100
AcDbPolyline
 90
2
 70
0
 10
267.998318
 20
-200.538352
 30
0.0
 10
267.998318
 20
-200.538352
 30
0.0
  0
SPLINE
  5
12b
100
AcDbEntity
  8
Base_horiz
 62
7
100
AcDbSpline
 70
8
 71
3
 72
8
 73
4
 74
0
 40
0
 40
0
 40
0
 40
0
 40
1
 40
1
 40
1
 40
1
 10
114.399854
 20
-196.938335
 30
0.0
 10
115.389844
 20
-196.938335
 30
0.0
 10
116.199836
 20
-197.748327
 30
0.0
 10
116.199836
 20
-198.738317
 30
0.0
  0
SPLINE
  5
12c
100
AcDbEntity
  8
Base_horiz
 62
7
100
AcDbSpline
 70
8
 71
3
 72
8
 73
4
 74
0
 40
0
 40
0
 40
0
 40
0
 40
1
 40
1
 40
1
 40
1
 10
116.199836
 20
-198.738317
 30
0.0
 10
116.199836
 20
-199.728307
 30
0.0
 10
115.389844
 20
-200.538299
 30
0.0
 10
114.399854
 20
-200.538299
 30
0.0
  0
SPLINE
  5
12d
100
AcDbEntity
  8
Base_horiz
 62
7
100
AcDbSpline
 70
8
 71
3
 72
8
 73
4
 74
0
 40
0
 40
0
 40
0
 40
0
 40
1
 40
1
 40
1
 40
1
 10
114.399854
 20
-200.538299
 30
0.0
 10
113.409863
 20
-200.538299
 30
0.0
 10
112.599872
 20
-199.728307
 30
0.0
 10
112.599872
 20
-198.738317
 30
0.0
  0
SPLINE
  5
12e
100
AcDbEntity
  8
Base_horiz
 62
7
100
AcDbSpline
 70
8
 71
3
 72
8
 73
4
 74
0
 40
0
 40
0
 40
0
 40
0
 40
1
 40
1
 40
1
 40
1
 10
112.599872
 20
-198.738317
 30
0.0
 10
112.599872
 20
-197.748327
 30
0.0
 10
113.409863
 20
-196.938335
 30
0.0
 10
114.399854
 20
-196.938335
 30
0.0
  0
LWPOLYLINE
  5
12f
100
AcDbEntity
  8
Base_horiz
 62
3
100
AcDbPolyline
 90
5
 70
0
 10
248.798518
 20
-205.938298
 30
0.0
 10
248.798518
 20
-191.538442
 30
0.0
 10
272.798296
 20
-191.538442
 30
0.0
 10
272.798296
 20
-205.938298
 30
0.0
 10
248.798518
 20
-205.938298
 30
0.0
  0
LWPOLYLINE
  5
130
100
AcDbEntity
  8
Base_horiz
 62
7
100
AcDbPolyline
 90
2
 70
0
 10
114.399854
 20
-196.938335
 30
0.0
 10
114.399854
 20
-196.938335
 30
0.0
  0
SPLINE
  5
131
100
AcDbEntity
  8
Base_horiz
 62
7
100
AcDbSpline
 70
8
 71
3
 72
8
 73
4
 74
0
 40
0
 40
0
 40
0
 40
0
 40
1
 40
1
 40
1
 40
1
 10
210.878889
 20
-101.894538
 30
0.0
 10
210.878889
 20
-98.198575
 30
0.0
 10
213.902859
 20
-95.174606
 30
0.0
 10
217.598822
 20
-95.174606
 30
0.0
  0
SPLINE
  5
132
100
AcDbEntity
  8
Base_horiz
 62
7
100
AcDbSpline
 70
8
 71
3
 72
8
 73
4
 74
0
 40
0
 40
0
 40
0
 40
0
 40
1
 40
1
 40
1
 40
1
 10
217.598822
 20
-95.174606
 30
0.0
 10
221.294785
 20
-95.174606
 30
0.0
 10
224.318754
 20
-98.198575
 30
0.0
 10
224.318754
 20
-101.894538
 30
0.0
  0
SPLINE
  5
133
100
AcDbEntity
  8
Base_horiz
 62
7
100
AcDbSpline
 70
8
 71
3
 72
8
 73
4
 74
0
 40
0
 40
0
 40
0
 40
0
 40
1
 40
1
 40
1
 40
1
 10
224.318754
 20
-101.894538
 30
0.0
 10
224.318754
 20
-105.590501
 30
0.0
 10
221.294785
 20
-108.614471
 30
0.0
 10
217.598822
 20
-108.614471
 30
0.0
  0
SPLINE
  5
134
100
AcDbEntity
  8
Base_horiz
 62
7
100
AcDbSpline
 70
8
 71
3
 72
8
 73
4
 74
0
 40
0
 40
0
 40
0
 40
0
 40
1
 40
1
 40
1
 40
1
 10
217.598822
 20
-108.614471
 30
0.0
 10
213.902859
 20
-108.614471
 30
0.0
 10
210.878889
 20
-105.590501
 30
0.0
 10
210.878889
 20
-101.894538
 30
0.0
  0
LWPOLYLINE
  5
135
100
AcDbEntity
  8
Base_horiz
 62
3
100
AcDbPolyline
 90
5
 70
0
 10
133.599654
 20
-191.538471
 30
0.0
 10
133.599654
 20
-205.938218
 30
0.0
 10
109.599912
 20
-205.938218
 30
0.0
 10
109.599912
 20
-191.538471
 30
0.0
 10
133.599654
 20
-191.538471
 30
0.0
  0
LWPOLYLINE
  5
136
100
AcDbEntity
  8
Base_horiz
 62
7
100
AcDbPolyline
 90
2
 70
0
 10
210.878889
 20
-101.894538
 30
0.0
 10
210.878889
 20
-101.894538
 30
0.0
  0
SPLINE
  5
137
100
AcDbEntity
  8
Base_horiz
 62
7
100
AcDbSpline
 70
8
 71
3
 72
8
 73
4
 74
0
 40
0
 40
0
 40
0
 40
0
 40
1
 40
1
 40
1
 40
1
 10
389.600624
 20
-102.319105
 30
0.0
 10
389.600624
 20
-82.519303
 30
0.0
 10
405.800462
 20
-66.319465
 30
0.0
 10
425.600264
 20
-66.319465
 30
0.0
  0
SPLINE
  5
138
100
AcDbEntity
  8
Base_horiz
 62
7
100
AcDbSpline
 70
8
 71
3
 72
8
 73
4
 74
0
 40
0
 40
0
 40
0
 40
0
 40
1
 40
1
 40
1
 40
1
 10
425.600264
 20
-66.319465
 30
0.0
 10
445.400066
 20
-66.319465
 30
0.0
 10
461.599904
 20
-82.519303
 30
0.0
 10
461.599904
 20
-102.319105
 30
0.0
  0
SPLINE
  5
139
100
AcDbEntity
  8
Base_horiz
 62
7
100
AcDbSpline
 70
8
 71
3
 72
8
 73
4
 74
0
 40
0
 40
0
 40
0
 40
0
 40
1
 40
1
 40
1
 40
1
 10
461.599904
 20
-102.319105
 30
0.0
 10
461.599904
 20
-122.118907
 30
0.0
 10
445.400066
 20
-138.318745
 30
0.0
 10
425.600264
 20
-138.318745
 30
0.0
  0
SPLINE
  5
13a
100
AcDbEntity
  8
Base_horiz
 62
7
100
AcDbSpline
 70
8
 71
3
 72
8
 73
4
 74
0
 40
0
 40
0
 40
0
 40
0
 40
1
 40
1
 40
1
 40
1
 10
425.600264
 20
-138.318745
 30
0.0
 10
405.800462
 20
-138.318745
 30
0.0
 10
389.600624
 20
-122.118907
 30
0.0
 10
389.600624
 20
-102.319105
 30
0.0
  0
LWPOLYLINE
  5
13b
100
AcDbEntity
  8
Base_horiz
 62
3
100
AcDbPolyline
 90
5
 70
0
 10
526.591246
 20
18.104224
 30
0.0
 10
555.006962
 20
18.104224
 30
0.0
 10
555.006962
 20
-20.295392
 30
0.0
 10
526.591246
 20
-20.295392
 30
0.0
 10
526.591246
 20
18.104224
 30
0.0
  0
SPLINE
  5
13c
100
AcDbEntity
  8
Base_horiz
 62
7
100
AcDbSpline
 70
8
 71
3
 72
8
 73
4
 74
0
 40
0
 40
0
 40
0
 40
0
 40
1
 40
1
 40
1
 40
1
 10
619.998320
 20
-102.319105
 30
0.0
 10
619.998320
 20
-82.519303
 30
0.0
 10
636.198158
 20
-66.319465
 30
0.0
 10
655.997960
 20
-66.319465
 30
0.0
  0
SPLINE
  5
13d
100
AcDbEntity
  8
Base_horiz
 62
7
100
AcDbSpline
 70
8
 71
3
 72
8
 73
4
 74
0
 40
0
 40
0
 40
0
 40
0
 40
1
 40
1
 40
1
 40
1
 10
655.997960
 20
-66.319465
 30
0.0
 10
675.797762
 20
-66.319465
 30
0.0
 10
691.997600
 20
-82.519303
 30
0.0
 10
691.997600
 20
-102.319105
 30
0.0
  0
SPLINE
  5
13e
100
AcDbEntity
  8
Base_horiz
 62
7
100
AcDbSpline
 70
8
 71
3
 72
8
 73
4
 74
0
 40
0
 40
0
 40
0
 40
0
 40
1
 40
1
 40
1
 40
1
 10
691.997600
 20
-102.319105
 30
0.0
 10
691.997600
 20
-122.118907
 30
0.0
 10
675.797762
 20
-138.318745
 30
0.0
 10
655.997960
 20
-138.318745
 30
0.0
  0
SPLINE
  5
13f
100
AcDbEntity
  8
Base_horiz
 62
7
100
AcDbSpline
 70
8
 71
3
 72
8
 73
4
 74
0
 40
0
 40
0
 40
0
 40
0
 40
1
 40
1
 40
1
 40
1
 10
655.997960
 20
-138.318745
 30
0.0
 10
636.198158
 20
-138.318745
 30
0.0
 10
619.998320
 20
-122.118907
 30
0.0
 10
619.998320
 20
-102.319105
 30
0.0
  0
LWPOLYLINE
  5
140
100
AcDbEntity
  8
Base_horiz
 62
7
100
AcDbPolyline
 90
2
 70
0
 10
389.600624
 20
-102.319105
 30
0.0
 10
389.600624
 20
-102.319105
 30
0.0
  0
LWPOLYLINE
  5
141
100
AcDbEntity
  8
Base_horiz
 62
7
100
AcDbPolyline
 90
2
 70
0
 10
619.998320
 20
-102.319105
 30
0.0
 10
619.998320
 20
-102.319105
 30
0.0
  0
LWPOLYLINE
  5
142
100
AcDbEntity
  8
Base_horiz
 62
3
100
AcDbPolyline
 90
5
 70
0
 10
526.591246
 20
-185.192436
 30
0.0
 10
555.006962
 20
-185.192436
 30
0.0
 10
555.006962
 20
-223.592052
 30
0.0
 10
526.591246
 20
-223.592052
 30
0.0
 10
526.591246
 20
-185.192436
 30
0.0
  0
LWPOLYLINE
  5
143
100
AcDbEntity
  8
Base_horiz
 62
7
100
AcDbPolyline
 90
10
 70
0
 10
65.599808
 20
-425.094624
 30
0.0
 10
84.799616
 20
-425.094624
 30
0.0
 10
171.198752
 20
-314.695728
 30
0.0
 10
171.198752
 20
-300.295872
 30
0.0
 10
161.598848
 20
-290.695968
 30
0.0
 10
70.399760
 20
-290.695968
 30
0.0
 10
55.999904
 20
-305.095824
 30
0.0
 10
55.999904
 20
-405.894816
 30
0.0
 10
65.599808
 20
-425.094624
 30
0.0
 10
65.599808
 20
-425.094624
 30
0.0
  0
LWPOLYLINE
  5
144
100
AcDbEntity
  8
Base_horiz
 62
7
100
AcDbPolyline
 90
10
 70
0
 10
55.999904
 20
-535.493520
 30
0.0
 10
55.999904
 20
-521.093664
 30
0.0
 10
204.798416
 20
-329.095584
 30
0.0
 10
233.598128
 20
-319.495680
 30
0.0
 10
247.997984
 20
-333.895536
 30
0.0
 10
247.997984
 20
-535.493520
 30
0.0
 10
233.598128
 20
-549.893376
 30
0.0
 10
70.399760
 20
-549.893376
 30
0.0
 10
55.999904
 20
-535.493520
 30
0.0
 10
55.999904
 20
-535.493520
 30
0.0
  0
LWPOLYLINE
  5
145
100
AcDbEntity
  8
Base_horiz
 62
3
100
AcDbPolyline
 90
5
 70
0
 10
63.199861
 20
-597.892923
 30
0.0
 10
48.799933
 20
-597.892923
 30
0.0
 10
48.799933
 20
-573.893163
 30
0.0
 10
63.199861
 20
-573.893163
 30
0.0
 10
63.199861
 20
-597.892923
 30
0.0
  0
LWPOLYLINE
  5
146
100
AcDbEntity
  8
Base_horiz
 62
3
100
AcDbPolyline
 90
5
 70
0
 10
255.197856
 20
-597.892869
 30
0.0
 10
240.798146
 20
-597.892869
 30
0.0
 10
240.798146
 20
-573.893109
 30
0.0
 10
255.197856
 20
-573.893109
 30
0.0
 10
255.197856
 20
-597.892869
 30
0.0
  0
LWPOLYLINE
  5
147
100
AcDbEntity
  8
Base_horiz
 62
7
100
AcDbPolyline
 90
5
 70
0
 10
305.597408
 20
-261.896256
 30
0.0
 10
574.394720
 20
-261.896256
 30
0.0
 10
574.394720
 20
-597.892896
 30
0.0
 10
305.597408
 20
-597.892896
 30
0.0
 10
305.597408
 20
-261.896256
 30
0.0
  0
LWPOLYLINE
  5
148
100
AcDbEntity
  8
Base_horiz
 62
3
100
AcDbPolyline
 90
5
 70
0
 10
351.196952
 20
-597.892896
 30
0.0
 10
336.797024
 20
-597.892896
 30
0.0
 10
336.797024
 20
-573.893136
 30
0.0
 10
351.196952
 20
-573.893136
 30
0.0
 10
351.196952
 20
-597.892896
 30
0.0
  0
LWPOLYLINE
  5
149
100
AcDbEntity
  8
Base_horiz
 62
3
100
AcDbPolyline
 90
5
 70
0
 10
543.195032
 20
-597.892896
 30
0.0
 10
528.795322
 20
-597.892896
 30
0.0
 10
528.795322
 20
-573.893136
 30
0.0
 10
543.195032
 20
-573.893136
 30
0.0
 10
543.195032
 20
-597.892896
 30
0.0
  0
LWPOLYLINE
  5
14a
100
AcDbEntity
  8
Base_horiz
 62
7
100
AcDbPolyline
 90
5
 70
0
 10
200.000864
 20
-821.094024
 30
0.0
 10
372.799136
 20
-821.094024
 30
0.0
 10
372.799136
 20
-917.093064
 30
0.0
 10
200.000864
 20
-917.093064
 30
0.0
 10
200.000864
 20
-821.094024
 30
0.0
  0
LWPOLYLINE
  5
14b
100
AcDbEntity
  8
Base_horiz
 62
7
100
AcDbPolyline
 90
5
 70
0
 10
17.602688
 20
-821.094024
 30
0.0
 10
190.400960
 20
-821.094024
 30
0.0
 10
190.400960
 20
-917.093064
 30
0.0
 10
17.602688
 20
-917.093064
 30
0.0
 10
17.602688
 20
-821.094024
 30
0.0
  0
LWPOLYLINE
  5
14c
100
AcDbEntity
  8
Base_horiz
 62
7
100
AcDbPolyline
 90
5
 70
0
 10
209.600768
 20
-926.692968
 30
0.0
 10
372.799136
 20
-926.692968
 30
0.0
 10
372.799136
 20
-945.892776
 30
0.0
 10
209.600768
 20
-945.892776
 30
0.0
 10
209.600768
 20
-926.692968
 30
0.0
  0
LWPOLYLINE
  5
14d
100
AcDbEntity
  8
Base_horiz
 62
7
100
AcDbPolyline
 90
5
 70
0
 10
22.402640
 20
-926.692968
 30
0.0
 10
185.601008
 20
-926.692968
 30
0.0
 10
185.601008
 20
-945.892776
 30
0.0
 10
22.402640
 20
-945.892776
 30
0.0
 10
22.402640
 20
-926.692968
 30
0.0
  0
LWPOLYLINE
  5
14e
100
AcDbEntity
  8
Base_horiz
 62
7
100
AcDbPolyline
 90
5
 70
0
 10
22.402640
 20
-1013.092104
 30
0.0
 10
96.801896
 20
-1013.092104
 30
0.0
 10
96.801896
 20
-1032.291912
 30
0.0
 10
22.402640
 20
-1032.291912
 30
0.0
 10
22.402640
 20
-1013.092104
 30
0.0
  0
LWPOLYLINE
  5
14f
100
AcDbEntity
  8
Base_horiz
 62
7
100
AcDbPolyline
 90
5
 70
0
 10
190.400960
 20
-1041.891816
 30
0.0
 10
267.200192
 20
-1041.891816
 30
0.0
 10
267.200192
 20
-1061.091624
 30
0.0
 10
190.400960
 20
-1061.091624
 30
0.0
 10
190.400960
 20
-1041.891816
 30
0.0
  0
SPLINE
  5
150
100
AcDbEntity
  8
Base_horiz
 62
7
100
AcDbSpline
 70
8
 71
3
 72
8
 73
4
 74
0
 40
0
 40
0
 40
0
 40
0
 40
1
 40
1
 40
1
 40
1
 10
30.130563
 20
-1051.491720
 30
0.0
 10
30.130563
 20
-1050.462130
 30
0.0
 10
30.972954
 20
-1049.619739
 30
0.0
 10
32.002544
 20
-1049.619739
 30
0.0
  0
SPLINE
  5
151
100
AcDbEntity
  8
Base_horiz
 62
7
100
AcDbSpline
 70
8
 71
3
 72
8
 73
4
 74
0
 40
0
 40
0
 40
0
 40
0
 40
1
 40
1
 40
1
 40
1
 10
32.002544
 20
-1049.619739
 30
0.0
 10
33.032134
 20
-1049.619739
 30
0.0
 10
33.874525
 20
-1050.462130
 30
0.0
 10
33.874525
 20
-1051.491720
 30
0.0
  0
SPLINE
  5
152
100
AcDbEntity
  8
Base_horiz
 62
7
100
AcDbSpline
 70
8
 71
3
 72
8
 73
4
 74
0
 40
0
 40
0
 40
0
 40
0
 40
1
 40
1
 40
1
 40
1
 10
33.874525
 20
-1051.491720
 30
0.0
 10
33.874525
 20
-1052.521310
 30
0.0
 10
33.032134
 20
-1053.363701
 30
0.0
 10
32.002544
 20
-1053.363701
 30
0.0
  0
SPLINE
  5
153
100
AcDbEntity
  8
Base_horiz
 62
7
100
AcDbSpline
 70
8
 71
3
 72
8
 73
4
 74
0
 40
0
 40
0
 40
0
 40
0
 40
1
 40
1
 40
1
 40
1
 10
32.002544
 20
-1053.363701
 30
0.0
 10
30.972954
 20
-1053.363701
 30
0.0
 10
30.130563
 20
-1052.521310
 30
0.0
 10
30.130563
 20
-1051.491720
 30
0.0
  0
LWPOLYLINE
  5
154
100
AcDbEntity
  8
Base_horiz
 62
7
100
AcDbPolyline
 90
5
 70
0
 10
22.402640
 20
-1041.891816
 30
0.0
 10
176.001104
 20
-1041.891816
 30
0.0
 10
176.001104
 20
-1061.091624
 30
0.0
 10
22.402640
 20
-1061.091624
 30
0.0
 10
22.402640
 20
-1041.891816
 30
0.0
  0
SPLINE
  5
155
100
AcDbEntity
  8
Base_horiz
 62
7
100
AcDbSpline
 70
8
 71
3
 72
8
 73
4
 74
0
 40
0
 40
0
 40
0
 40
0
 40
1
 40
1
 40
1
 40
1
 10
164.529219
 20
-1051.491720
 30
0.0
 10
164.529219
 20
-1050.462130
 30
0.0
 10
165.371610
 20
-1049.619739
 30
0.0
 10
166.401200
 20
-1049.619739
 30
0.0
  0
SPLINE
  5
156
100
AcDbEntity
  8
Base_horiz
 62
7
100
AcDbSpline
 70
8
 71
3
 72
8
 73
4
 74
0
 40
0
 40
0
 40
0
 40
0
 40
1
 40
1
 40
1
 40
1
 10
166.401200
 20
-1049.619739
 30
0.0
 10
167.430790
 20
-1049.619739
 30
0.0
 10
168.273181
 20
-1050.462130
 30
0.0
 10
168.273181
 20
-1051.491720
 30
0.0
  0
SPLINE
  5
157
100
AcDbEntity
  8
Base_horiz
 62
7
100
AcDbSpline
 70
8
 71
3
 72
8
 73
4
 74
0
 40
0
 40
0
 40
0
 40
0
 40
1
 40
1
 40
1
 40
1
 10
168.273181
 20
-1051.491720
 30
0.0
 10
168.273181
 20
-1052.521310
 30
0.0
 10
167.430790
 20
-1053.363701
 30
0.0
 10
166.401200
 20
-1053.363701
 30
0.0
  0
SPLINE
  5
158
100
AcDbEntity
  8
Base_horiz
 62
7
100
AcDbSpline
 70
8
 71
3
 72
8
 73
4
 74
0
 40
0
 40
0
 40
0
 40
0
 40
1
 40
1
 40
1
 40
1
 10
166.401200
 20
-1053.363701
 30
0.0
 10
165.371610
 20
-1053.363701
 30
0.0
 10
164.529219
 20
-1052.521310
 30
0.0
 10
164.529219
 20
-1051.491720
 30
0.0
  0
LWPOLYLINE
  5
159
100
AcDbEntity
  8
Base_horiz
 62
7
100
AcDbPolyline
 90
2
 70
0
 10
30.130563
 20
-1051.491720
 30
0.0
 10
30.130563
 20
-1051.491720
 30
0.0
  0
LWPOLYLINE
  5
15a
100
AcDbEntity
  8
Base_horiz
 62
7
100
AcDbPolyline
 90
2
 70
0
 10
164.529219
 20
-1051.491720
 30
0.0
 10
164.529219
 20
-1051.491720
 30
0.0
  0
SPLINE
  5
15b
100
AcDbEntity
  8
Base_horiz
 62
7
100
AcDbSpline
 70
8
 71
3
 72
8
 73
4
 74
0
 40
0
 40
0
 40
0
 40
0
 40
1
 40
1
 40
1
 40
1
 10
121.329651
 20
-1022.692008
 30
0.0
 10
121.329651
 20
-1021.662418
 30
0.0
 10
122.172042
 20
-1020.820027
 30
0.0
 10
123.201632
 20
-1020.820027
 30
0.0
  0
SPLINE
  5
15c
100
AcDbEntity
  8
Base_horiz
 62
7
100
AcDbSpline
 70
8
 71
3
 72
8
 73
4
 74
0
 40
0
 40
0
 40
0
 40
0
 40
1
 40
1
 40
1
 40
1
 10
123.201632
 20
-1020.820027
 30
0.0
 10
124.231222
 20
-1020.820027
 30
0.0
 10
125.073613
 20
-1021.662418
 30
0.0
 10
125.073613
 20
-1022.692008
 30
0.0
  0
SPLINE
  5
15d
100
AcDbEntity
  8
Base_horiz
 62
7
100
AcDbSpline
 70
8
 71
3
 72
8
 73
4
 74
0
 40
0
 40
0
 40
0
 40
0
 40
1
 40
1
 40
1
 40
1
 10
125.073613
 20
-1022.692008
 30
0.0
 10
125.073613
 20
-1023.721598
 30
0.0
 10
124.231222
 20
-1024.563989
 30
0.0
 10
123.201632
 20
-1024.563989
 30
0.0
  0
SPLINE
  5
15e
100
AcDbEntity
  8
Base_horiz
 62
7
100
AcDbSpline
 70
8
 71
3
 72
8
 73
4
 74
0
 40
0
 40
0
 40
0
 40
0
 40
1
 40
1
 40
1
 40
1
 10
123.201632
 20
-1024.563989
 30
0.0
 10
122.172042
 20
-1024.563989
 30
0.0
 10
121.329651
 20
-1023.721598
 30
0.0
 10
121.329651
 20
-1022.692008
 30
0.0
  0
LWPOLYLINE
  5
15f
100
AcDbEntity
  8
Base_horiz
 62
7
100
AcDbPolyline
 90
5
 70
0
 10
113.601728
 20
-1013.092104
 30
0.0
 10
267.200192
 20
-1013.092104
 30
0.0
 10
267.200192
 20
-1032.291912
 30
0.0
 10
113.601728
 20
-1032.291912
 30
0.0
 10
113.601728
 20
-1013.092104
 30
0.0
  0
SPLINE
  5
160
100
AcDbEntity
  8
Base_horiz
 62
7
100
AcDbSpline
 70
8
 71
3
 72
8
 73
4
 74
0
 40
0
 40
0
 40
0
 40
0
 40
1
 40
1
 40
1
 40
1
 10
255.728307
 20
-1022.692008
 30
0.0
 10
255.728307
 20
-1021.662418
 30
0.0
 10
256.570698
 20
-1020.820027
 30
0.0
 10
257.600288
 20
-1020.820027
 30
0.0
  0
SPLINE
  5
161
100
AcDbEntity
  8
Base_horiz
 62
7
100
AcDbSpline
 70
8
 71
3
 72
8
 73
4
 74
0
 40
0
 40
0
 40
0
 40
0
 40
1
 40
1
 40
1
 40
1
 10
257.600288
 20
-1020.820027
 30
0.0
 10
258.629878
 20
-1020.820027
 30
0.0
 10
259.472269
 20
-1021.662418
 30
0.0
 10
259.472269
 20
-1022.692008
 30
0.0
  0
SPLINE
  5
162
100
AcDbEntity
  8
Base_horiz
 62
7
100
AcDbSpline
 70
8
 71
3
 72
8
 73
4
 74
0
 40
0
 40
0
 40
0
 40
0
 40
1
 40
1
 40
1
 40
1
 10
259.472269
 20
-1022.692008
 30
0.0
 10
259.472269
 20
-1023.721598
 30
0.0
 10
258.629878
 20
-1024.563989
 30
0.0
 10
257.600288
 20
-1024.563989
 30
0.0
  0
SPLINE
  5
163
100
AcDbEntity
  8
Base_horiz
 62
7
100
AcDbSpline
 70
8
 71
3
 72
8
 73
4
 74
0
 40
0
 40
0
 40
0
 40
0
 40
1
 40
1
 40
1
 40
1
 10
257.600288
 20
-1024.563989
 30
0.0
 10
256.570698
 20
-1024.563989
 30
0.0
 10
255.728307
 20
-1023.721598
 30
0.0
 10
255.728307
 20
-1022.692008
 30
0.0
  0
LWPOLYLINE
  5
164
100
AcDbEntity
  8
Base_horiz
 62
7
100
AcDbPolyline
 90
2
 70
0
 10
121.329651
 20
-1022.692008
 30
0.0
 10
121.329651
 20
-1022.692008
 30
0.0
  0
LWPOLYLINE
  5
165
100
AcDbEntity
  8
Base_horiz
 62
7
100
AcDbPolyline
 90
2
 70
0
 10
255.728307
 20
-1022.692008
 30
0.0
 10
255.728307
 20
-1022.692008
 30
0.0
  0
LWPOLYLINE
  5
166
100
AcDbEntity
  8
Base_horiz
 62
7
100
AcDbPolyline
 90
5
 70
0
 10
22.402640
 20
-1099.491240
 30
0.0
 10
118.401680
 20
-1099.491240
 30
0.0
 10
118.401680
 20
-1118.691048
 30
0.0
 10
22.402640
 20
-1118.691048
 30
0.0
 10
22.402640
 20
-1099.491240
 30
0.0
  0
LWPOLYLINE
  5
167
100
AcDbEntity
  8
Base_horiz
 62
7
100
AcDbPolyline
 90
5
 70
0
 10
137.601488
 20
-1099.491240
 30
0.0
 10
233.600528
 20
-1099.491240
 30
0.0
 10
233.600528
 20
-1118.691048
 30
0.0
 10
137.601488
 20
-1118.691048
 30
0.0
 10
137.601488
 20
-1099.491240
 30
0.0
  0
LWPOLYLINE
  5
168
100
AcDbEntity
  8
Base_horiz
 62
7
100
AcDbPolyline
 90
5
 70
0
 10
22.402640
 20
-1070.691528
 30
0.0
 10
118.401680
 20
-1070.691528
 30
0.0
 10
118.401680
 20
-1089.891336
 30
0.0
 10
22.402640
 20
-1089.891336
 30
0.0
 10
22.402640
 20
-1070.691528
 30
0.0
  0
LWPOLYLINE
  5
169
100
AcDbEntity
  8
Base_horiz
 62
7
100
AcDbPolyline
 90
5
 70
0
 10
137.601488
 20
-1070.691528
 30
0.0
 10
233.600528
 20
-1070.691528
 30
0.0
 10
233.600528
 20
-1089.891336
 30
0.0
 10
137.601488
 20
-1089.891336
 30
0.0
 10
137.601488
 20
-1070.691528
 30
0.0
  0
LWPOLYLINE
  5
16a
100
AcDbEntity
  8
Base_horiz
 62
7
100
AcDbPolyline
 90
5
 70
0
 10
248.000384
 20
-1099.491240
 30
0.0
 10
286.400000
 20
-1099.491240
 30
0.0
 10
286.400000
 20
-1118.691048
 30
0.0
 10
248.000384
 20
-1118.691048
 30
0.0
 10
248.000384
 20
-1099.491240
 30
0.0
  0
LWPOLYLINE
  5
16b
100
AcDbEntity
  8
Base_horiz
 62
7
100
AcDbPolyline
 90
5
 70
0
 10
293.599928
 20
-1099.491240
 30
0.0
 10
331.999544
 20
-1099.491240
 30
0.0
 10
331.999544
 20
-1118.691048
 30
0.0
 10
293.599928
 20
-1118.691048
 30
0.0
 10
293.599928
 20
-1099.491240
 30
0.0
  0
LWPOLYLINE
  5
16c
100
AcDbEntity
  8
Base_horiz
 62
7
100
AcDbPolyline
 90
5
 70
0
 10
248.000384
 20
-1070.691528
 30
0.0
 10
286.400029
 20
-1070.691528
 30
0.0
 10
286.400029
 20
-1089.891336
 30
0.0
 10
248.000384
 20
-1089.891336
 30
0.0
 10
248.000384
 20
-1070.691528
 30
0.0
  0
LWPOLYLINE
  5
16d
100
AcDbEntity
  8
Base_horiz
 62
7
100
AcDbPolyline
 90
5
 70
0
 10
293.599928
 20
-1070.691528
 30
0.0
 10
331.999515
 20
-1070.691528
 30
0.0
 10
331.999515
 20
-1089.891336
 30
0.0
 10
293.599928
 20
-1089.891336
 30
0.0
 10
293.599928
 20
-1070.691528
 30
0.0
  0
LWPOLYLINE
  5
16e
100
AcDbEntity
  8
Base_horiz
 62
7
100
AcDbPolyline
 90
5
 70
0
 10
200.000864
 20
-715.495080
 30
0.0
 10
372.799136
 20
-715.495080
 30
0.0
 10
372.799136
 20
-811.494120
 30
0.0
 10
200.000864
 20
-811.494120
 30
0.0
 10
200.000864
 20
-715.495080
 30
0.0
  0
LWPOLYLINE
  5
16f
100
AcDbEntity
  8
Base_horiz
 62
7
100
AcDbPolyline
 90
5
 70
0
 10
17.602688
 20
-715.495080
 30
0.0
 10
190.400960
 20
-715.495080
 30
0.0
 10
190.400960
 20
-811.494120
 30
0.0
 10
17.602688
 20
-811.494120
 30
0.0
 10
17.602688
 20
-715.495080
 30
0.0
  0
LWPOLYLINE
  5
170
100
AcDbEntity
  8
Base_horiz
 62
7
100
AcDbPolyline
 90
5
 70
0
 10
209.600768
 20
-955.492680
 30
0.0
 10
372.799136
 20
-955.492680
 30
0.0
 10
372.799136
 20
-974.692488
 30
0.0
 10
209.600768
 20
-974.692488
 30
0.0
 10
209.600768
 20
-955.492680
 30
0.0
  0
LWPOLYLINE
  5
171
100
AcDbEntity
  8
Base_horiz
 62
7
100
AcDbPolyline
 90
5
 70
0
 10
22.402640
 20
-955.492680
 30
0.0
 10
185.601008
 20
-955.492680
 30
0.0
 10
185.601008
 20
-974.692488
 30
0.0
 10
22.402640
 20
-974.692488
 30
0.0
 10
22.402640
 20
-955.492680
 30
0.0
  0
LWPOLYLINE
  5
172
100
AcDbEntity
  8
Base_horiz
 62
7
100
AcDbPolyline
 90
5
 70
0
 10
209.600768
 20
-984.292392
 30
0.0
 10
372.799136
 20
-984.292392
 30
0.0
 10
372.799136
 20
-1003.492200
 30
0.0
 10
209.600768
 20
-1003.492200
 30
0.0
 10
209.600768
 20
-984.292392
 30
0.0
  0
LWPOLYLINE
  5
173
100
AcDbEntity
  8
Base_horiz
 62
7
100
AcDbPolyline
 90
5
 70
0
 10
22.402640
 20
-984.292392
 30
0.0
 10
185.601008
 20
-984.292392
 30
0.0
 10
185.601008
 20
-1003.492200
 30
0.0
 10
22.402640
 20
-1003.492200
 30
0.0
 10
22.402640
 20
-984.292392
 30
0.0
  0
LWPOLYLINE
  5
174
100
AcDbEntity
  8
Base_horiz
 62
7
100
AcDbPolyline
 90
5
 70
0
 10
390.400000
 20
-609.096064
 30
0.0
 10
505.598848
 20
-609.096064
 30
0.0
 10
505.598848
 20
-945.092704
 30
0.0
 10
390.400000
 20
-945.092704
 30
0.0
 10
390.400000
 20
-609.096064
 30
0.0
  0
LWPOLYLINE
  5
175
100
AcDbEntity
  8
Base_horiz
 62
7
100
AcDbPolyline
 90
5
 70
0
 10
409.599808
 20
-700.295152
 30
0.0
 10
486.399040
 20
-700.295152
 30
0.0
 10
486.399040
 20
-709.895056
 30
0.0
 10
409.599808
 20
-709.895056
 30
0.0
 10
409.599808
 20
-700.295152
 30
0.0
  0
LWPOLYLINE
  5
176
100
AcDbEntity
  8
Base_horiz
 62
7
100
AcDbPolyline
 90
5
 70
0
 10
409.599808
 20
-719.494960
 30
0.0
 10
486.399040
 20
-719.494960
 30
0.0
 10
486.399040
 20
-729.094864
 30
0.0
 10
409.599808
 20
-729.094864
 30
0.0
 10
409.599808
 20
-719.494960
 30
0.0
  0
LWPOLYLINE
  5
177
100
AcDbEntity
  8
Base_horiz
 62
7
100
AcDbPolyline
 90
5
 70
0
 10
409.599808
 20
-738.694768
 30
0.0
 10
486.399040
 20
-738.694768
 30
0.0
 10
486.399040
 20
-748.294672
 30
0.0
 10
409.599808
 20
-748.294672
 30
0.0
 10
409.599808
 20
-738.694768
 30
0.0
  0
LWPOLYLINE
  5
178
100
AcDbEntity
  8
Base_horiz
 62
7
100
AcDbPolyline
 90
5
 70
0
 10
409.599808
 20
-757.894576
 30
0.0
 10
486.399040
 20
-757.894576
 30
0.0
 10
486.399040
 20
-767.494480
 30
0.0
 10
409.599808
 20
-767.494480
 30
0.0
 10
409.599808
 20
-757.894576
 30
0.0
  0
LWPOLYLINE
  5
179
100
AcDbEntity
  8
Base_horiz
 62
7
100
AcDbPolyline
 90
5
 70
0
 10
409.599808
 20
-777.094384
 30
0.0
 10
486.399040
 20
-777.094384
 30
0.0
 10
486.399040
 20
-786.694288
 30
0.0
 10
409.599808
 20
-786.694288
 30
0.0
 10
409.599808
 20
-777.094384
 30
0.0
  0
LWPOLYLINE
  5
17a
100
AcDbEntity
  8
Base_horiz
 62
7
100
AcDbPolyline
 90
5
 70
0
 10
409.599808
 20
-796.294192
 30
0.0
 10
486.399040
 20
-796.294192
 30
0.0
 10
486.399040
 20
-805.894096
 30
0.0
 10
409.599808
 20
-805.894096
 30
0.0
 10
409.599808
 20
-796.294192
 30
0.0
  0
LWPOLYLINE
  5
17b
100
AcDbEntity
  8
Base_horiz
 62
7
100
AcDbPolyline
 90
5
 70
0
 10
409.599808
 20
-815.494000
 30
0.0
 10
486.399040
 20
-815.494000
 30
0.0
 10
486.399040
 20
-825.093904
 30
0.0
 10
409.599808
 20
-825.093904
 30
0.0
 10
409.599808
 20
-815.494000
 30
0.0
  0
LWPOLYLINE
  5
17c
100
AcDbEntity
  8
Base_horiz
 62
7
100
AcDbPolyline
 90
5
 70
0
 10
409.599808
 20
-834.693808
 30
0.0
 10
486.399040
 20
-834.693808
 30
0.0
 10
486.399040
 20
-844.293712
 30
0.0
 10
409.599808
 20
-844.293712
 30
0.0
 10
409.599808
 20
-834.693808
 30
0.0
  0
LWPOLYLINE
  5
17d
100
AcDbEntity
  8
Base_horiz
 62
7
100
AcDbPolyline
 90
5
 70
0
 10
409.599808
 20
-853.893616
 30
0.0
 10
486.399040
 20
-853.893616
 30
0.0
 10
486.399040
 20
-863.493520
 30
0.0
 10
409.599808
 20
-863.493520
 30
0.0
 10
409.599808
 20
-853.893616
 30
0.0
  0
LWPOLYLINE
  5
17e
100
AcDbEntity
  8
Base_horiz
 62
7
100
AcDbPolyline
 90
5
 70
0
 10
409.599808
 20
-873.093424
 30
0.0
 10
486.399040
 20
-873.093424
 30
0.0
 10
486.399040
 20
-882.693328
 30
0.0
 10
409.599808
 20
-882.693328
 30
0.0
 10
409.599808
 20
-873.093424
 30
0.0
  0
LWPOLYLINE
  5
17f
100
AcDbEntity
  8
Base_horiz
 62
7
100
AcDbPolyline
 90
5
 70
0
 10
409.599808
 20
-892.293232
 30
0.0
 10
486.399040
 20
-892.293232
 30
0.0
 10
486.399040
 20
-901.893136
 30
0.0
 10
409.599808
 20
-901.893136
 30
0.0
 10
409.599808
 20
-892.293232
 30
0.0
  0
LWPOLYLINE
  5
180
100
AcDbEntity
  8
Base_horiz
 62
7
100
AcDbPolyline
 90
5
 70
0
 10
409.599808
 20
-911.493040
 30
0.0
 10
486.399040
 20
-911.493040
 30
0.0
 10
486.399040
 20
-921.092944
 30
0.0
 10
409.599808
 20
-921.092944
 30
0.0
 10
409.599808
 20
-911.493040
 30
0.0
  0
LWPOLYLINE
  5
181
100
AcDbEntity
  8
Base_horiz
 62
7
100
AcDbPolyline
 90
5
 70
0
 10
718.797992
 20
-1098.691168
 30
0.0
 10
718.797992
 20
-1041.091744
 30
0.0
 10
757.197608
 20
-1041.091744
 30
0.0
 10
718.797992
 20
-1098.691168
 30
0.0
 10
718.797992
 20
-1098.691168
 30
0.0
  0
LWPOLYLINE
  5
182
100
AcDbEntity
  8
Base_horiz
 62
7
100
AcDbPolyline
 90
5
 70
0
 10
757.197608
 20
-1045.891696
 30
0.0
 10
757.197608
 20
-1103.491120
 30
0.0
 10
718.797992
 20
-1103.491120
 30
0.0
 10
757.197608
 20
-1045.891696
 30
0.0
 10
757.197608
 20
-1045.891696
 30
0.0
  0
LWPOLYLINE
  5
183
100
AcDbEntity
  8
Base_horiz
 62
7
100
AcDbPolyline
 90
5
 70
0
 10
677.998400
 20
-1098.691168
 30
0.0
 10
677.998400
 20
-1041.091744
 30
0.0
 10
716.398016
 20
-1041.091744
 30
0.0
 10
677.998400
 20
-1098.691168
 30
0.0
 10
677.998400
 20
-1098.691168
 30
0.0
  0
LWPOLYLINE
  5
184
100
AcDbEntity
  8
Base_horiz
 62
7
100
AcDbPolyline
 90
5
 70
0
 10
716.398016
 20
-1045.891696
 30
0.0
 10
716.398016
 20
-1103.491120
 30
0.0
 10
677.998400
 20
-1103.491120
 30
0.0
 10
716.398016
 20
-1045.891696
 30
0.0
 10
716.398016
 20
-1045.891696
 30
0.0
  0
LWPOLYLINE
  5
185
100
AcDbEntity
  8
Base_horiz
 62
7
100
AcDbPolyline
 90
5
 70
0
 10
637.198808
 20
-1098.691168
 30
0.0
 10
637.198808
 20
-1041.091744
 30
0.0
 10
675.598424
 20
-1041.091744
 30
0.0
 10
637.198808
 20
-1098.691168
 30
0.0
 10
637.198808
 20
-1098.691168
 30
0.0
  0
LWPOLYLINE
  5
186
100
AcDbEntity
  8
Base_horiz
 62
7
100
AcDbPolyline
 90
5
 70
0
 10
675.598424
 20
-1045.891696
 30
0.0
 10
675.598424
 20
-1103.491120
 30
0.0
 10
637.198808
 20
-1103.491120
 30
0.0
 10
675.598424
 20
-1045.891696
 30
0.0
 10
675.598424
 20
-1045.891696
 30
0.0
  0
LWPOLYLINE
  5
187
100
AcDbEntity
  8
Base_horiz
 62
7
100
AcDbPolyline
 90
10
 70
0
 10
553.199648
 20
-623.495920
 30
0.0
 10
553.199648
 20
-705.095104
 30
0.0
 10
622.798952
 20
-705.095104
 30
0.0
 10
622.798952
 20
-709.895056
 30
0.0
 10
545.999720
 20
-709.895056
 30
0.0
 10
545.999720
 20
-618.695968
 30
0.0
 10
622.798952
 20
-618.695968
 30
0.0
 10
622.798952
 20
-623.495920
 30
0.0
 10
553.199648
 20
-623.495920
 30
0.0
 10
553.199648
 20
-623.495920
 30
0.0
  0
LWPOLYLINE
  5
188
100
AcDbEntity
  8
Base_horiz
 62
7
100
AcDbPolyline
 90
10
 70
0
 10
632.398856
 20
-695.495200
 30
0.0
 10
632.398856
 20
-613.896016
 30
0.0
 10
562.799552
 20
-613.896016
 30
0.0
 10
562.799552
 20
-609.096064
 30
0.0
 10
639.598779
 20
-609.096064
 30
0.0
 10
639.598789
 20
-700.295152
 30
0.0
 10
562.799579
 20
-700.295152
 30
0.0
 10
562.799579
 20
-695.495200
 30
0.0
 10
632.398856
 20
-695.495200
 30
0.0
 10
632.398856
 20
-695.495200
 30
0.0
  0
LWPOLYLINE
  5
189
100
AcDbEntity
  8
Base_horiz
 62
7
100
AcDbPolyline
 90
5
 70
0
 10
574.799432
 20
-652.295632
 30
0.0
 10
555.599624
 20
-652.295632
 30
0.0
 10
574.799432
 20
-671.495440
 30
0.0
 10
574.799432
 20
-652.295632
 30
0.0
 10
574.799432
 20
-652.295632
 30
0.0
  0
LWPOLYLINE
  5
18a
100
AcDbEntity
  8
Base_horiz
 62
7
100
AcDbPolyline
 90
5
 70
0
 10
555.599624
 20
-676.295392
 30
0.0
 10
574.799432
 20
-676.295392
 30
0.0
 10
555.599624
 20
-657.095584
 30
0.0
 10
555.599624
 20
-676.295392
 30
0.0
 10
555.599624
 20
-676.295392
 30
0.0
  0
LWPOLYLINE
  5
18b
100
AcDbEntity
  8
Base_horiz
 62
7
100
AcDbPolyline
 90
5
 70
0
 10
601.199168
 20
-652.295632
 30
0.0
 10
581.999360
 20
-652.295632
 30
0.0
 10
601.199168
 20
-671.495440
 30
0.0
 10
601.199168
 20
-652.295632
 30
0.0
 10
601.199168
 20
-652.295632
 30
0.0
  0
LWPOLYLINE
  5
18c
100
AcDbEntity
  8
Base_horiz
 62
7
100
AcDbPolyline
 90
5
 70
0
 10
581.999360
 20
-676.295392
 30
0.0
 10
601.199168
 20
-676.295392
 30
0.0
 10
581.999360
 20
-657.095584
 30
0.0
 10
581.999360
 20
-676.295392
 30
0.0
 10
581.999360
 20
-676.295392
 30
0.0
  0
LWPOLYLINE
  5
18d
100
AcDbEntity
  8
Base_horiz
 62
7
100
AcDbPolyline
 90
5
 70
0
 10
627.598904
 20
-652.295632
 30
0.0
 10
608.399096
 20
-652.295632
 30
0.0
 10
627.598904
 20
-671.495440
 30
0.0
 10
627.598904
 20
-652.295632
 30
0.0
 10
627.598904
 20
-652.295632
 30
0.0
  0
LWPOLYLINE
  5
18e
100
AcDbEntity
  8
Base_horiz
 62
7
100
AcDbPolyline
 90
5
 70
0
 10
608.399096
 20
-676.295392
 30
0.0
 10
627.598904
 20
-676.295392
 30
0.0
 10
608.399096
 20
-657.095584
 30
0.0
 10
608.399096
 20
-676.295392
 30
0.0
 10
608.399096
 20
-676.295392
 30
0.0
  0
LWPOLYLINE
  5
18f
100
AcDbEntity
  8
Base_horiz
 62
7
100
AcDbPolyline
 90
5
 70
0
 10
574.799424
 20
-625.895896
 30
0.0
 10
555.599624
 20
-625.895896
 30
0.0
 10
574.799432
 20
-645.095704
 30
0.0
 10
574.799424
 20
-625.895896
 30
0.0
 10
574.799424
 20
-625.895896
 30
0.0
  0
LWPOLYLINE
  5
190
100
AcDbEntity
  8
Base_horiz
 62
7
100
AcDbPolyline
 90
5
 70
0
 10
555.599624
 20
-649.895656
 30
0.0
 10
574.799432
 20
-649.895656
 30
0.0
 10
555.599624
 20
-630.695848
 30
0.0
 10
555.599624
 20
-649.895656
 30
0.0
 10
555.599624
 20
-649.895656
 30
0.0
  0
LWPOLYLINE
  5
191
100
AcDbEntity
  8
Base_horiz
 62
7
100
AcDbPolyline
 90
5
 70
0
 10
601.199168
 20
-625.895896
 30
0.0
 10
581.999360
 20
-625.895896
 30
0.0
 10
601.199168
 20
-645.095704
 30
0.0
 10
601.199168
 20
-625.895896
 30
0.0
 10
601.199168
 20
-625.895896
 30
0.0
  0
LWPOLYLINE
  5
192
100
AcDbEntity
  8
Base_horiz
 62
7
100
AcDbPolyline
 90
5
 70
0
 10
581.999360
 20
-649.895656
 30
0.0
 10
601.199168
 20
-649.895656
 30
0.0
 10
581.999360
 20
-630.695848
 30
0.0
 10
581.999360
 20
-649.895656
 30
0.0
 10
581.999360
 20
-649.895656
 30
0.0
  0
LWPOLYLINE
  5
193
100
AcDbEntity
  8
Base_horiz
 62
7
100
AcDbPolyline
 90
5
 70
0
 10
627.598904
 20
-625.895896
 30
0.0
 10
608.399096
 20
-625.895896
 30
0.0
 10
627.598904
 20
-645.095704
 30
0.0
 10
627.598904
 20
-625.895896
 30
0.0
 10
627.598904
 20
-625.895896
 30
0.0
  0
LWPOLYLINE
  5
194
100
AcDbEntity
  8
Base_horiz
 62
7
100
AcDbPolyline
 90
5
 70
0
 10
608.399096
 20
-649.895656
 30
0.0
 10
627.598904
 20
-649.895656
 30
0.0
 10
608.399096
 20
-630.695848
 30
0.0
 10
608.399096
 20
-649.895656
 30
0.0
 10
608.399096
 20
-649.895656
 30
0.0
  0
LWPOLYLINE
  5
195
100
AcDbEntity
  8
Base_horiz
 62
7
100
AcDbPolyline
 90
10
 70
0
 10
653.998640
 20
-623.495920
 30
0.0
 10
653.998640
 20
-705.095104
 30
0.0
 10
723.597917
 20
-705.095104
 30
0.0
 10
723.597917
 20
-709.895056
 30
0.0
 10
646.798712
 20
-709.895056
 30
0.0
 10
646.798712
 20
-618.695968
 30
0.0
 10
723.597917
 20
-618.695968
 30
0.0
 10
723.597917
 20
-623.495920
 30
0.0
 10
653.998640
 20
-623.495920
 30
0.0
 10
653.998640
 20
-623.495920
 30
0.0
  0
LWPOLYLINE
  5
196
100
AcDbEntity
  8
Base_horiz
 62
7
100
AcDbPolyline
 90
10
 70
0
 10
733.197875
 20
-695.495200
 30
0.0
 10
733.197875
 20
-613.896016
 30
0.0
 10
663.598571
 20
-613.896016
 30
0.0
 10
663.598571
 20
-609.096064
 30
0.0
 10
740.397803
 20
-609.096064
 30
0.0
 10
740.397803
 20
-700.295152
 30
0.0
 10
663.598544
 20
-700.295152
 30
0.0
 10
663.598544
 20
-695.495200
 30
0.0
 10
733.197875
 20
-695.495200
 30
0.0
 10
733.197875
 20
-695.495200
 30
0.0
  0
LWPOLYLINE
  5
197
100
AcDbEntity
  8
Base_horiz
 62
7
100
AcDbPolyline
 90
5
 70
0
 10
675.598397
 20
-652.295632
 30
0.0
 10
656.398589
 20
-652.295632
 30
0.0
 10
675.598397
 20
-671.495440
 30
0.0
 10
675.598397
 20
-652.295632
 30
0.0
 10
675.598397
 20
-652.295632
 30
0.0
  0
LWPOLYLINE
  5
198
100
AcDbEntity
  8
Base_horiz
 62
7
100
AcDbPolyline
 90
5
 70
0
 10
656.398589
 20
-676.295392
 30
0.0
 10
675.598397
 20
-676.295392
 30
0.0
 10
656.398589
 20
-657.095584
 30
0.0
 10
656.398589
 20
-676.295392
 30
0.0
 10
656.398589
 20
-676.295392
 30
0.0
  0
LWPOLYLINE
  5
199
100
AcDbEntity
  8
Base_horiz
 62
7
100
AcDbPolyline
 90
5
 70
0
 10
701.998133
 20
-652.295632
 30
0.0
 10
682.798325
 20
-652.295632
 30
0.0
 10
701.998133
 20
-671.495440
 30
0.0
 10
701.998133
 20
-652.295632
 30
0.0
 10
701.998133
 20
-652.295632
 30
0.0
  0
LWPOLYLINE
  5
19a
100
AcDbEntity
  8
Base_horiz
 62
7
100
AcDbPolyline
 90
5
 70
0
 10
682.798325
 20
-676.295392
 30
0.0
 10
701.998133
 20
-676.295392
 30
0.0
 10
682.798325
 20
-657.095584
 30
0.0
 10
682.798325
 20
-676.295392
 30
0.0
 10
682.798325
 20
-676.295392
 30
0.0
  0
LWPOLYLINE
  5
19b
100
AcDbEntity
  8
Base_horiz
 62
7
100
AcDbPolyline
 90
5
 70
0
 10
728.397869
 20
-652.295632
 30
0.0
 10
709.198061
 20
-652.295632
 30
0.0
 10
728.397869
 20
-671.495440
 30
0.0
 10
728.397869
 20
-652.295632
 30
0.0
 10
728.397869
 20
-652.295632
 30
0.0
  0
LWPOLYLINE
  5
19c
100
AcDbEntity
  8
Base_horiz
 62
7
100
AcDbPolyline
 90
5
 70
0
 10
709.198061
 20
-676.295392
 30
0.0
 10
728.397869
 20
-676.295392
 30
0.0
 10
709.198061
 20
-657.095584
 30
0.0
 10
709.198061
 20
-676.295392
 30
0.0
 10
709.198061
 20
-676.295392
 30
0.0
  0
LWPOLYLINE
  5
19d
100
AcDbEntity
  8
Base_horiz
 62
7
100
AcDbPolyline
 90
5
 70
0
 10
675.598397
 20
-625.895896
 30
0.0
 10
656.398589
 20
-625.895896
 30
0.0
 10
675.598397
 20
-645.095704
 30
0.0
 10
675.598397
 20
-625.895896
 30
0.0
 10
675.598397
 20
-625.895896
 30
0.0
  0
LWPOLYLINE
  5
19e
100
AcDbEntity
  8
Base_horiz
 62
7
100
AcDbPolyline
 90
5
 70
0
 10
656.398589
 20
-649.895656
 30
0.0
 10
675.598397
 20
-649.895656
 30
0.0
 10
656.398589
 20
-630.695848
 30
0.0
 10
656.398589
 20
-649.895656
 30
0.0
 10
656.398589
 20
-649.895656
 30
0.0
  0
LWPOLYLINE
  5
19f
100
AcDbEntity
  8
Base_horiz
 62
7
100
AcDbPolyline
 90
5
 70
0
 10
701.998133
 20
-625.895896
 30
0.0
 10
682.798325
 20
-625.895896
 30
0.0
 10
701.998133
 20
-645.095704
 30
0.0
 10
701.998133
 20
-625.895896
 30
0.0
 10
701.998133
 20
-625.895896
 30
0.0
  0
LWPOLYLINE
  5
1a0
100
AcDbEntity
  8
Base_horiz
 62
7
100
AcDbPolyline
 90
5
 70
0
 10
682.798325
 20
-649.895656
 30
0.0
 10
701.998133
 20
-649.895656
 30
0.0
 10
682.798325
 20
-630.695848
 30
0.0
 10
682.798325
 20
-649.895656
 30
0.0
 10
682.798325
 20
-649.895656
 30
0.0
  0
LWPOLYLINE
  5
1a1
100
AcDbEntity
  8
Base_horiz
 62
7
100
AcDbPolyline
 90
5
 70
0
 10
728.397869
 20
-625.895896
 30
0.0
 10
709.198061
 20
-625.895896
 30
0.0
 10
728.397869
 20
-645.095704
 30
0.0
 10
728.397869
 20
-625.895896
 30
0.0
 10
728.397869
 20
-625.895896
 30
0.0
  0
LWPOLYLINE
  5
1a2
100
AcDbEntity
  8
Base_horiz
 62
7
100
AcDbPolyline
 90
5
 70
0
 10
709.198061
 20
-649.895656
 30
0.0
 10
728.397869
 20
-649.895656
 30
0.0
 10
709.198061
 20
-630.695848
 30
0.0
 10
709.198061
 20
-649.895656
 30
0.0
 10
709.198061
 20
-649.895656
 30
0.0
  0
LWPOLYLINE
  5
1a3
100
AcDbEntity
  8
Base_horiz
 62
7
100
AcDbPolyline
 90
10
 70
0
 10
553.199648
 20
-729.094864
 30
0.0
 10
553.199648
 20
-810.694048
 30
0.0
 10
622.798952
 20
-810.694048
 30
0.0
 10
622.798952
 20
-815.494000
 30
0.0
 10
545.999720
 20
-815.494000
 30
0.0
 10
545.999720
 20
-724.294912
 30
0.0
 10
622.798952
 20
-724.294912
 30
0.0
 10
622.798952
 20
-729.094864
 30
0.0
 10
553.199648
 20
-729.094864
 30
0.0
 10
553.199648
 20
-729.094864
 30
0.0
  0
LWPOLYLINE
  5
1a4
100
AcDbEntity
  8
Base_horiz
 62
7
100
AcDbPolyline
 90
10
 70
0
 10
632.398856
 20
-801.094144
 30
0.0
 10
632.398856
 20
-719.494960
 30
0.0
 10
562.799552
 20
-719.494960
 30
0.0
 10
562.799552
 20
-714.695008
 30
0.0
 10
639.598779
 20
-714.695008
 30
0.0
 10
639.598789
 20
-805.894096
 30
0.0
 10
562.799579
 20
-805.894096
 30
0.0
 10
562.799579
 20
-801.094144
 30
0.0
 10
632.398856
 20
-801.094144
 30
0.0
 10
632.398856
 20
-801.094144
 30
0.0
  0
LWPOLYLINE
  5
1a5
100
AcDbEntity
  8
Base_horiz
 62
7
100
AcDbPolyline
 90
5
 70
0
 10
574.799432
 20
-757.894576
 30
0.0
 10
555.599624
 20
-757.894576
 30
0.0
 10
574.799432
 20
-777.094384
 30
0.0
 10
574.799432
 20
-757.894576
 30
0.0
 10
574.799432
 20
-757.894576
 30
0.0
  0
LWPOLYLINE
  5
1a6
100
AcDbEntity
  8
Base_horiz
 62
7
100
AcDbPolyline
 90
5
 70
0
 10
555.599624
 20
-781.894336
 30
0.0
 10
574.799432
 20
-781.894336
 30
0.0
 10
555.599624
 20
-762.694528
 30
0.0
 10
555.599624
 20
-781.894336
 30
0.0
 10
555.599624
 20
-781.894336
 30
0.0
  0
LWPOLYLINE
  5
1a7
100
AcDbEntity
  8
Base_horiz
 62
7
100
AcDbPolyline
 90
5
 70
0
 10
601.199168
 20
-757.894576
 30
0.0
 10
581.999360
 20
-757.894576
 30
0.0
 10
601.199168
 20
-777.094384
 30
0.0
 10
601.199168
 20
-757.894576
 30
0.0
 10
601.199168
 20
-757.894576
 30
0.0
  0
LWPOLYLINE
  5
1a8
100
AcDbEntity
  8
Base_horiz
 62
7
100
AcDbPolyline
 90
5
 70
0
 10
581.999360
 20
-781.894336
 30
0.0
 10
601.199168
 20
-781.894336
 30
0.0
 10
581.999360
 20
-762.694528
 30
0.0
 10
581.999360
 20
-781.894336
 30
0.0
 10
581.999360
 20
-781.894336
 30
0.0
  0
LWPOLYLINE
  5
1a9
100
AcDbEntity
  8
Base_horiz
 62
7
100
AcDbPolyline
 90
5
 70
0
 10
627.598904
 20
-757.894576
 30
0.0
 10
608.399096
 20
-757.894576
 30
0.0
 10
627.598904
 20
-777.094384
 30
0.0
 10
627.598904
 20
-757.894576
 30
0.0
 10
627.598904
 20
-757.894576
 30
0.0
  0
LWPOLYLINE
  5
1aa
100
AcDbEntity
  8
Base_horiz
 62
7
100
AcDbPolyline
 90
5
 70
0
 10
608.399096
 20
-781.894336
 30
0.0
 10
627.598904
 20
-781.894336
 30
0.0
 10
608.399096
 20
-762.694528
 30
0.0
 10
608.399096
 20
-781.894336
 30
0.0
 10
608.399096
 20
-781.894336
 30
0.0
  0
LWPOLYLINE
  5
1ab
100
AcDbEntity
  8
Base_horiz
 62
7
100
AcDbPolyline
 90
5
 70
0
 10
574.799432
 20
-731.494840
 30
0.0
 10
555.599624
 20
-731.494840
 30
0.0
 10
574.799432
 20
-750.694648
 30
0.0
 10
574.799432
 20
-731.494840
 30
0.0
 10
574.799432
 20
-731.494840
 30
0.0
  0
LWPOLYLINE
  5
1ac
100
AcDbEntity
  8
Base_horiz
 62
7
100
AcDbPolyline
 90
5
 70
0
 10
555.599624
 20
-755.494600
 30
0.0
 10
574.799432
 20
-755.494600
 30
0.0
 10
555.599624
 20
-736.294792
 30
0.0
 10
555.599624
 20
-755.494600
 30
0.0
 10
555.599624
 20
-755.494600
 30
0.0
  0
LWPOLYLINE
  5
1ad
100
AcDbEntity
  8
Base_horiz
 62
7
100
AcDbPolyline
 90
5
 70
0
 10
601.199168
 20
-731.494840
 30
0.0
 10
581.999360
 20
-731.494840
 30
0.0
 10
601.199168
 20
-750.694648
 30
0.0
 10
601.199168
 20
-731.494840
 30
0.0
 10
601.199168
 20
-731.494840
 30
0.0
  0
LWPOLYLINE
  5
1ae
100
AcDbEntity
  8
Base_horiz
 62
7
100
AcDbPolyline
 90
5
 70
0
 10
581.999360
 20
-755.494600
 30
0.0
 10
601.199168
 20
-755.494600
 30
0.0
 10
581.999360
 20
-736.294792
 30
0.0
 10
581.999360
 20
-755.494600
 30
0.0
 10
581.999360
 20
-755.494600
 30
0.0
  0
LWPOLYLINE
  5
1af
100
AcDbEntity
  8
Base_horiz
 62
7
100
AcDbPolyline
 90
5
 70
0
 10
627.598904
 20
-731.494840
 30
0.0
 10
608.399096
 20
-731.494840
 30
0.0
 10
627.598904
 20
-750.694648
 30
0.0
 10
627.598904
 20
-731.494840
 30
0.0
 10
627.598904
 20
-731.494840
 30
0.0
  0
LWPOLYLINE
  5
1b0
100
AcDbEntity
  8
Base_horiz
 62
7
100
AcDbPolyline
 90
5
 70
0
 10
608.399096
 20
-755.494600
 30
0.0
 10
627.598904
 20
-755.494600
 30
0.0
 10
608.399096
 20
-736.294792
 30
0.0
 10
608.399096
 20
-755.494600
 30
0.0
 10
608.399096
 20
-755.494600
 30
0.0
  0
LWPOLYLINE
  5
1b1
100
AcDbEntity
  8
Base_horiz
 62
7
100
AcDbPolyline
 90
10
 70
0
 10
653.998640
 20
-729.094864
 30
0.0
 10
653.998640
 20
-810.694048
 30
0.0
 10
723.597917
 20
-810.694048
 30
0.0
 10
723.597917
 20
-815.494000
 30
0.0
 10
646.798712
 20
-815.494000
 30
0.0
 10
646.798712
 20
-724.294912
 30
0.0
 10
723.597917
 20
-724.294912
 30
0.0
 10
723.597917
 20
-729.094864
 30
0.0
 10
653.998640
 20
-729.094864
 30
0.0
 10
653.998640
 20
-729.094864
 30
0.0
  0
LWPOLYLINE
  5
1b2
100
AcDbEntity
  8
Base_horiz
 62
7
100
AcDbPolyline
 90
10
 70
0
 10
733.197875
 20
-801.094144
 30
0.0
 10
733.197875
 20
-719.494960
 30
0.0
 10
663.598571
 20
-719.494960
 30
0.0
 10
663.598571
 20
-714.695008
 30
0.0
 10
740.397803
 20
-714.695008
 30
0.0
 10
740.397803
 20
-805.894096
 30
0.0
 10
663.598544
 20
-805.894096
 30
0.0
 10
663.598544
 20
-801.094144
 30
0.0
 10
733.197875
 20
-801.094144
 30
0.0
 10
733.197875
 20
-801.094144
 30
0.0
  0
LWPOLYLINE
  5
1b3
100
AcDbEntity
  8
Base_horiz
 62
7
100
AcDbPolyline
 90
5
 70
0
 10
675.598397
 20
-757.894576
 30
0.0
 10
656.398589
 20
-757.894576
 30
0.0
 10
675.598397
 20
-777.094384
 30
0.0
 10
675.598397
 20
-757.894576
 30
0.0
 10
675.598397
 20
-757.894576
 30
0.0
  0
LWPOLYLINE
  5
1b4
100
AcDbEntity
  8
Base_horiz
 62
7
100
AcDbPolyline
 90
5
 70
0
 10
656.398616
 20
-781.894336
 30
0.0
 10
675.598397
 20
-781.894336
 30
0.0
 10
656.398589
 20
-762.694528
 30
0.0
 10
656.398616
 20
-781.894336
 30
0.0
 10
656.398616
 20
-781.894336
 30
0.0
  0
LWPOLYLINE
  5
1b5
100
AcDbEntity
  8
Base_horiz
 62
7
100
AcDbPolyline
 90
5
 70
0
 10
701.998133
 20
-757.894576
 30
0.0
 10
682.798325
 20
-757.894576
 30
0.0
 10
701.998133
 20
-777.094384
 30
0.0
 10
701.998133
 20
-757.894576
 30
0.0
 10
701.998133
 20
-757.894576
 30
0.0
  0
LWPOLYLINE
  5
1b6
100
AcDbEntity
  8
Base_horiz
 62
7
100
AcDbPolyline
 90
5
 70
0
 10
682.798325
 20
-781.894336
 30
0.0
 10
701.998133
 20
-781.894336
 30
0.0
 10
682.798325
 20
-762.694528
 30
0.0
 10
682.798325
 20
-781.894336
 30
0.0
 10
682.798325
 20
-781.894336
 30
0.0
  0
LWPOLYLINE
  5
1b7
100
AcDbEntity
  8
Base_horiz
 62
7
100
AcDbPolyline
 90
5
 70
0
 10
728.397869
 20
-757.894576
 30
0.0
 10
709.198061
 20
-757.894576
 30
0.0
 10
728.397869
 20
-777.094384
 30
0.0
 10
728.397869
 20
-757.894576
 30
0.0
 10
728.397869
 20
-757.894576
 30
0.0
  0
LWPOLYLINE
  5
1b8
100
AcDbEntity
  8
Base_horiz
 62
7
100
AcDbPolyline
 90
5
 70
0
 10
709.198061
 20
-781.894336
 30
0.0
 10
728.397869
 20
-781.894336
 30
0.0
 10
709.198061
 20
-762.694528
 30
0.0
 10
709.198061
 20
-781.894336
 30
0.0
 10
709.198061
 20
-781.894336
 30
0.0
  0
LWPOLYLINE
  5
1b9
100
AcDbEntity
  8
Base_horiz
 62
7
100
AcDbPolyline
 90
5
 70
0
 10
675.598397
 20
-731.494840
 30
0.0
 10
656.398589
 20
-731.494840
 30
0.0
 10
675.598397
 20
-750.694648
 30
0.0
 10
675.598397
 20
-731.494840
 30
0.0
 10
675.598397
 20
-731.494840
 30
0.0
  0
LWPOLYLINE
  5
1ba
100
AcDbEntity
  8
Base_horiz
 62
7
100
AcDbPolyline
 90
5
 70
0
 10
656.398616
 20
-755.494600
 30
0.0
 10
675.598397
 20
-755.494600
 30
0.0
 10
656.398589
 20
-736.294792
 30
0.0
 10
656.398616
 20
-755.494600
 30
0.0
 10
656.398616
 20
-755.494600
 30
0.0
  0
LWPOLYLINE
  5
1bb
100
AcDbEntity
  8
Base_horiz
 62
7
100
AcDbPolyline
 90
5
 70
0
 10
701.998133
 20
-731.494840
 30
0.0
 10
682.798325
 20
-731.494840
 30
0.0
 10
701.998133
 20
-750.694648
 30
0.0
 10
701.998133
 20
-731.494840
 30
0.0
 10
701.998133
 20
-731.494840
 30
0.0
  0
LWPOLYLINE
  5
1bc
100
AcDbEntity
  8
Base_horiz
 62
7
100
AcDbPolyline
 90
5
 70
0
 10
682.798325
 20
-755.494600
 30
0.0
 10
701.998133
 20
-755.494600
 30
0.0
 10
682.798325
 20
-736.294792
 30
0.0
 10
682.798325
 20
-755.494600
 30
0.0
 10
682.798325
 20
-755.494600
 30
0.0
  0
LWPOLYLINE
  5
1bd
100
AcDbEntity
  8
Base_horiz
 62
7
100
AcDbPolyline
 90
5
 70
0
 10
728.397869
 20
-731.494840
 30
0.0
 10
709.198061
 20
-731.494840
 30
0.0
 10
728.397869
 20
-750.694648
 30
0.0
 10
728.397869
 20
-731.494840
 30
0.0
 10
728.397869
 20
-731.494840
 30
0.0
  0
LWPOLYLINE
  5
1be
100
AcDbEntity
  8
Base_horiz
 62
7
100
AcDbPolyline
 90
5
 70
0
 10
709.198061
 20
-755.494600
 30
0.0
 10
728.397869
 20
-755.494600
 30
0.0
 10
709.198061
 20
-736.294792
 30
0.0
 10
709.198061
 20
-755.494600
 30
0.0
 10
709.198061
 20
-755.494600
 30
0.0
  0
LWPOLYLINE
  5
1bf
100
AcDbEntity
  8
Base_horiz
 62
7
100
AcDbPolyline
 90
10
 70
0
 10
553.199648
 20
-834.693808
 30
0.0
 10
553.199648
 20
-916.292992
 30
0.0
 10
622.798952
 20
-916.292992
 30
0.0
 10
622.798952
 20
-921.092944
 30
0.0
 10
545.999720
 20
-921.092944
 30
0.0
 10
545.999720
 20
-829.893856
 30
0.0
 10
622.798952
 20
-829.893856
 30
0.0
 10
622.798952
 20
-834.693808
 30
0.0
 10
553.199648
 20
-834.693808
 30
0.0
 10
553.199648
 20
-834.693808
 30
0.0
  0
LWPOLYLINE
  5
1c0
100
AcDbEntity
  8
Base_horiz
 62
7
100
AcDbPolyline
 90
10
 70
0
 10
632.398856
 20
-906.693088
 30
0.0
 10
632.398856
 20
-825.093904
 30
0.0
 10
562.799552
 20
-825.093904
 30
0.0
 10
562.799552
 20
-820.293952
 30
0.0
 10
639.598779
 20
-820.293952
 30
0.0
 10
639.598789
 20
-911.493040
 30
0.0
 10
562.799579
 20
-911.493040
 30
0.0
 10
562.799579
 20
-906.693088
 30
0.0
 10
632.398856
 20
-906.693088
 30
0.0
 10
632.398856
 20
-906.693088
 30
0.0
  0
LWPOLYLINE
  5
1c1
100
AcDbEntity
  8
Base_horiz
 62
7
100
AcDbPolyline
 90
5
 70
0
 10
574.799432
 20
-863.493520
 30
0.0
 10
555.599624
 20
-863.493520
 30
0.0
 10
574.799432
 20
-882.693328
 30
0.0
 10
574.799432
 20
-863.493520
 30
0.0
 10
574.799432
 20
-863.493520
 30
0.0
  0
LWPOLYLINE
  5
1c2
100
AcDbEntity
  8
Base_horiz
 62
7
100
AcDbPolyline
 90
5
 70
0
 10
555.599624
 20
-887.493280
 30
0.0
 10
574.799432
 20
-887.493280
 30
0.0
 10
555.599624
 20
-868.293472
 30
0.0
 10
555.599624
 20
-887.493280
 30
0.0
 10
555.599624
 20
-887.493280
 30
0.0
  0
LWPOLYLINE
  5
1c3
100
AcDbEntity
  8
Base_horiz
 62
7
100
AcDbPolyline
 90
5
 70
0
 10
601.199168
 20
-863.493520
 30
0.0
 10
581.999360
 20
-863.493520
 30
0.0
 10
601.199168
 20
-882.693328
 30
0.0
 10
601.199168
 20
-863.493520
 30
0.0
 10
601.199168
 20
-863.493520
 30
0.0
  0
LWPOLYLINE
  5
1c4
100
AcDbEntity
  8
Base_horiz
 62
7
100
AcDbPolyline
 90
5
 70
0
 10
581.999360
 20
-887.493280
 30
0.0
 10
601.199168
 20
-887.493280
 30
0.0
 10
581.999360
 20
-868.293472
 30
0.0
 10
581.999360
 20
-887.493280
 30
0.0
 10
581.999360
 20
-887.493280
 30
0.0
  0
LWPOLYLINE
  5
1c5
100
AcDbEntity
  8
Base_horiz
 62
7
100
AcDbPolyline
 90
5
 70
0
 10
627.598904
 20
-863.493520
 30
0.0
 10
608.399096
 20
-863.493520
 30
0.0
 10
627.598904
 20
-882.693328
 30
0.0
 10
627.598904
 20
-863.493520
 30
0.0
 10
627.598904
 20
-863.493520
 30
0.0
  0
LWPOLYLINE
  5
1c6
100
AcDbEntity
  8
Base_horiz
 62
7
100
AcDbPolyline
 90
5
 70
0
 10
608.399096
 20
-887.493280
 30
0.0
 10
627.598904
 20
-887.493280
 30
0.0
 10
608.399096
 20
-868.293472
 30
0.0
 10
608.399096
 20
-887.493280
 30
0.0
 10
608.399096
 20
-887.493280
 30
0.0
  0
LWPOLYLINE
  5
1c7
100
AcDbEntity
  8
Base_horiz
 62
7
100
AcDbPolyline
 90
5
 70
0
 10
574.799432
 20
-837.093784
 30
0.0
 10
555.599624
 20
-837.093784
 30
0.0
 10
574.799432
 20
-856.293592
 30
0.0
 10
574.799432
 20
-837.093784
 30
0.0
 10
574.799432
 20
-837.093784
 30
0.0
  0
LWPOLYLINE
  5
1c8
100
AcDbEntity
  8
Base_horiz
 62
7
100
AcDbPolyline
 90
5
 70
0
 10
555.599624
 20
-861.093544
 30
0.0
 10
574.799432
 20
-861.093544
 30
0.0
 10
555.599624
 20
-841.893736
 30
0.0
 10
555.599624
 20
-861.093544
 30
0.0
 10
555.599624
 20
-861.093544
 30
0.0
  0
LWPOLYLINE
  5
1c9
100
AcDbEntity
  8
Base_horiz
 62
7
100
AcDbPolyline
 90
5
 70
0
 10
601.199168
 20
-837.093784
 30
0.0
 10
581.999360
 20
-837.093784
 30
0.0
 10
601.199168
 20
-856.293592
 30
0.0
 10
601.199168
 20
-837.093784
 30
0.0
 10
601.199168
 20
-837.093784
 30
0.0
  0
LWPOLYLINE
  5
1ca
100
AcDbEntity
  8
Base_horiz
 62
7
100
AcDbPolyline
 90
5
 70
0
 10
581.999360
 20
-861.093544
 30
0.0
 10
601.199168
 20
-861.093544
 30
0.0
 10
581.999360
 20
-841.893736
 30
0.0
 10
581.999360
 20
-861.093544
 30
0.0
 10
581.999360
 20
-861.093544
 30
0.0
  0
LWPOLYLINE
  5
1cb
100
AcDbEntity
  8
Base_horiz
 62
7
100
AcDbPolyline
 90
5
 70
0
 10
627.598904
 20
-837.093784
 30
0.0
 10
608.399096
 20
-837.093784
 30
0.0
 10
627.598904
 20
-856.293592
 30
0.0
 10
627.598904
 20
-837.093784
 30
0.0
 10
627.598904
 20
-837.093784
 30
0.0
  0
LWPOLYLINE
  5
1cc
100
AcDbEntity
  8
Base_horiz
 62
7
100
AcDbPolyline
 90
5
 70
0
 10
608.399096
 20
-861.093544
 30
0.0
 10
627.598904
 20
-861.093544
 30
0.0
 10
608.399096
 20
-841.893736
 30
0.0
 10
608.399096
 20
-861.093544
 30
0.0
 10
608.399096
 20
-861.093544
 30
0.0
  0
LWPOLYLINE
  5
1cd
100
AcDbEntity
  8
Base_horiz
 62
7
100
AcDbPolyline
 90
10
 70
0
 10
653.998640
 20
-834.693808
 30
0.0
 10
653.998640
 20
-916.292992
 30
0.0
 10
723.597917
 20
-916.292992
 30
0.0
 10
723.597917
 20
-921.092944
 30
0.0
 10
646.798712
 20
-921.092944
 30
0.0
 10
646.798712
 20
-829.893856
 30
0.0
 10
723.597917
 20
-829.893856
 30
0.0
 10
723.597917
 20
-834.693808
 30
0.0
 10
653.998640
 20
-834.693808
 30
0.0
 10
653.998640
 20
-834.693808
 30
0.0
  0
LWPOLYLINE
  5
1ce
100
AcDbEntity
  8
Base_horiz
 62
7
100
AcDbPolyline
 90
10
 70
0
 10
733.197875
 20
-906.693088
 30
0.0
 10
733.197875
 20
-825.093904
 30
0.0
 10
663.598571
 20
-825.093904
 30
0.0
 10
663.598571
 20
-820.293952
 30
0.0
 10
740.397803
 20
-820.293952
 30
0.0
 10
740.397803
 20
-911.493040
 30
0.0
 10
663.598544
 20
-911.493040
 30
0.0
 10
663.598544
 20
-906.693088
 30
0.0
 10
733.197875
 20
-906.693088
 30
0.0
 10
733.197875
 20
-906.693088
 30
0.0
  0
LWPOLYLINE
  5
1cf
100
AcDbEntity
  8
Base_horiz
 62
7
100
AcDbPolyline
 90
5
 70
0
 10
675.598397
 20
-863.493520
 30
0.0
 10
656.398589
 20
-863.493520
 30
0.0
 10
675.598397
 20
-882.693328
 30
0.0
 10
675.598397
 20
-863.493520
 30
0.0
 10
675.598397
 20
-863.493520
 30
0.0
  0
LWPOLYLINE
  5
1d0
100
AcDbEntity
  8
Base_horiz
 62
7
100
AcDbPolyline
 90
5
 70
0
 10
656.398589
 20
-887.493280
 30
0.0
 10
675.598397
 20
-887.493280
 30
0.0
 10
656.398589
 20
-868.293472
 30
0.0
 10
656.398589
 20
-887.493280
 30
0.0
 10
656.398589
 20
-887.493280
 30
0.0
  0
LWPOLYLINE
  5
1d1
100
AcDbEntity
  8
Base_horiz
 62
7
100
AcDbPolyline
 90
5
 70
0
 10
701.998133
 20
-863.493520
 30
0.0
 10
682.798325
 20
-863.493520
 30
0.0
 10
701.998133
 20
-882.693328
 30
0.0
 10
701.998133
 20
-863.493520
 30
0.0
 10
701.998133
 20
-863.493520
 30
0.0
  0
LWPOLYLINE
  5
1d2
100
AcDbEntity
  8
Base_horiz
 62
7
100
AcDbPolyline
 90
5
 70
0
 10
682.798325
 20
-887.493280
 30
0.0
 10
701.998133
 20
-887.493280
 30
0.0
 10
682.798325
 20
-868.293472
 30
0.0
 10
682.798325
 20
-887.493280
 30
0.0
 10
682.798325
 20
-887.493280
 30
0.0
  0
LWPOLYLINE
  5
1d3
100
AcDbEntity
  8
Base_horiz
 62
7
100
AcDbPolyline
 90
5
 70
0
 10
728.397869
 20
-863.493520
 30
0.0
 10
709.198061
 20
-863.493520
 30
0.0
 10
728.397869
 20
-882.693328
 30
0.0
 10
728.397869
 20
-863.493520
 30
0.0
 10
728.397869
 20
-863.493520
 30
0.0
  0
LWPOLYLINE
  5
1d4
100
AcDbEntity
  8
Base_horiz
 62
7
100
AcDbPolyline
 90
5
 70
0
 10
709.198061
 20
-887.493280
 30
0.0
 10
728.397869
 20
-887.493280
 30
0.0
 10
709.198061
 20
-868.293472
 30
0.0
 10
709.198061
 20
-887.493280
 30
0.0
 10
709.198061
 20
-887.493280
 30
0.0
  0
LWPOLYLINE
  5
1d5
100
AcDbEntity
  8
Base_horiz
 62
7
100
AcDbPolyline
 90
5
 70
0
 10
675.598397
 20
-837.093784
 30
0.0
 10
656.398589
 20
-837.093784
 30
0.0
 10
675.598397
 20
-856.293592
 30
0.0
 10
675.598397
 20
-837.093784
 30
0.0
 10
675.598397
 20
-837.093784
 30
0.0
  0
LWPOLYLINE
  5
1d6
100
AcDbEntity
  8
Base_horiz
 62
7
100
AcDbPolyline
 90
5
 70
0
 10
656.398589
 20
-861.093544
 30
0.0
 10
675.598397
 20
-861.093544
 30
0.0
 10
656.398589
 20
-841.893736
 30
0.0
 10
656.398589
 20
-861.093544
 30
0.0
 10
656.398589
 20
-861.093544
 30
0.0
  0
LWPOLYLINE
  5
1d7
100
AcDbEntity
  8
Base_horiz
 62
7
100
AcDbPolyline
 90
5
 70
0
 10
701.998133
 20
-837.093784
 30
0.0
 10
682.798325
 20
-837.093784
 30
0.0
 10
701.998133
 20
-856.293592
 30
0.0
 10
701.998133
 20
-837.093784
 30
0.0
 10
701.998133
 20
-837.093784
 30
0.0
  0
LWPOLYLINE
  5
1d8
100
AcDbEntity
  8
Base_horiz
 62
7
100
AcDbPolyline
 90
5
 70
0
 10
682.798325
 20
-861.093544
 30
0.0
 10
701.998133
 20
-861.093544
 30
0.0
 10
682.798325
 20
-841.893736
 30
0.0
 10
682.798325
 20
-861.093544
 30
0.0
 10
682.798325
 20
-861.093544
 30
0.0
  0
LWPOLYLINE
  5
1d9
100
AcDbEntity
  8
Base_horiz
 62
7
100
AcDbPolyline
 90
5
 70
0
 10
728.397869
 20
-837.093784
 30
0.0
 10
709.198061
 20
-837.093784
 30
0.0
 10
728.397869
 20
-856.293592
 30
0.0
 10
728.397869
 20
-837.093784
 30
0.0
 10
728.397869
 20
-837.093784
 30
0.0
  0
LWPOLYLINE
  5
1da
100
AcDbEntity
  8
Base_horiz
 62
7
100
AcDbPolyline
 90
5
 70
0
 10
709.198061
 20
-861.093544
 30
0.0
 10
728.397869
 20
-861.093544
 30
0.0
 10
709.198061
 20
-841.893736
 30
0.0
 10
709.198061
 20
-861.093544
 30
0.0
 10
709.198061
 20
-861.093544
 30
0.0
  0
LWPOLYLINE
  5
1db
100
AcDbEntity
  8
Base_horiz
 62
7
100
AcDbPolyline
 90
7
 70
0
 10
377.597408
 20
-1299.452744
 30
0.0
 10
291.198272
 20
-1449.096047
 30
0.0
 10
118.400000
 20
-1449.096047
 30
0.0
 10
32.000864
 20
-1299.452744
 30
0.0
 10
118.400027
 20
-1149.809422
 30
0.0
 10
291.198245
 20
-1149.809422
 30
0.0
 10
377.597408
 20
-1299.452744
 30
0.0
  0
LWPOLYLINE
  5
1dc
100
AcDbEntity
  8
Base_horiz
 62
7
100
AcDbPolyline
 90
7
 70
0
 10
372.797456
 20
-1606.649672
 30
0.0
 10
286.398320
 20
-1756.292975
 30
0.0
 10
113.600048
 20
-1756.292975
 30
0.0
 10
27.200912
 20
-1606.649672
 30
0.0
 10
113.600075
 20
-1457.006368
 30
0.0
 10
286.398293
 20
-1457.006368
 30
0.0
 10
372.797456
 20
-1606.649672
 30
0.0
  0
LWPOLYLINE
  5
1dd
100
AcDbEntity
  8
Base_horiz
 62
7
100
AcDbPolyline
 90
5
 70
0
 10
391.997264
 20
-1245.808480
 30
0.0
 10
681.683994
 20
-1245.808480
 30
0.0
 10
681.683994
 20
-1313.007808
 30
0.0
 10
391.997264
 20
-1313.007808
 30
0.0
 10
391.997264
 20
-1245.808480
 30
0.0
  0
LWPOLYLINE
  5
1de
100
AcDbEntity
  8
Base_horiz
 62
7
100
AcDbPolyline
 90
5
 70
0
 10
391.997264
 20
-1322.607712
 30
0.0
 10
564.795536
 20
-1322.607712
 30
0.0
 10
564.795536
 20
-1389.807040
 30
0.0
 10
391.997264
 20
-1389.807040
 30
0.0
 10
391.997264
 20
-1322.607712
 30
0.0
  0
LWPOLYLINE
  5
1df
100
AcDbEntity
  8
Base_horiz
 62
7
100
AcDbPolyline
 90
5
 70
0
 10
391.997264
 20
-1399.406944
 30
0.0
 10
564.795536
 20
-1399.406944
 30
0.0
 10
564.795536
 20
-1466.606272
 30
0.0
 10
391.997264
 20
-1466.606272
 30
0.0
 10
391.997264
 20
-1399.406944
 30
0.0
  0
LWPOLYLINE
  5
1e0
100
AcDbEntity
  8
Base_horiz
 62
7
100
AcDbPolyline
 90
5
 70
0
 10
391.997264
 20
-1476.206176
 30
0.0
 10
564.795536
 20
-1476.206176
 30
0.0
 10
564.795536
 20
-1543.405504
 30
0.0
 10
391.997264
 20
-1543.405504
 30
0.0
 10
391.997264
 20
-1476.206176
 30
0.0
  0
LWPOLYLINE
  5
1e1
100
AcDbEntity
  8
Base_horiz
 62
7
100
AcDbPolyline
 90
5
 70
0
 10
391.997264
 20
-1553.005408
 30
0.0
 10
564.795536
 20
-1553.005408
 30
0.0
 10
564.795536
 20
-1620.204736
 30
0.0
 10
391.997264
 20
-1620.204736
 30
0.0
 10
391.997264
 20
-1553.005408
 30
0.0
  0
LWPOLYLINE
  5
1e2
100
AcDbEntity
  8
Base_horiz
 62
7
100
AcDbPolyline
 90
4
 70
0
 10
403.383283
 20
-1236.082817
 30
0.0
 10
391.997264
 20
-1236.082817
 30
0.0
 10
391.997264
 20
-1145.135247
 30
0.0
 10
403.383283
 20
-1145.135247
 30
0.0
  0
LWPOLYLINE
  5
1e3
100
AcDbEntity
  8
Base_horiz
 62
7
100
AcDbPolyline
 90
3
 70
0
 10
403.383283
 20
-1236.208576
 30
0.0
 10
430.396880
 20
-1190.609032
 30
0.0
 10
403.383283
 20
-1145.009488
 30
0.0
  0
LWPOLYLINE
  5
1e4
100
AcDbEntity
  8
Base_horiz
 62
7
100
AcDbPolyline
 90
4
 70
0
 10
446.582851
 20
-1236.082817
 30
0.0
 10
435.196832
 20
-1236.082817
 30
0.0
 10
435.196832
 20
-1145.135247
 30
0.0
 10
446.582851
 20
-1145.135247
 30
0.0
  0
LWPOLYLINE
  5
1e5
100
AcDbEntity
  8
Base_horiz
 62
7
100
AcDbPolyline
 90
3
 70
0
 10
446.582851
 20
-1236.208576
 30
0.0
 10
473.596448
 20
-1190.609032
 30
0.0
 10
446.582851
 20
-1145.009488
 30
0.0
  0
ENDSEC
  0
SECTION
  2
OBJECTS
  0
DICTIONARY
  5
C
330
0
100
AcDbDictionary
  3
ACAD_GROUP
350
D
  3
ACAD_MLINESTYLE
350
17
  0
DICTIONARY
  5
D
330
C
100
AcDbDictionary
  0
DICTIONARY
  5
1A
330
C
100
AcDbDictionary
  0
DICTIONARY
  5
17
330
C
100
AcDbDictionary
  3
STANDARD
350
18
  0
DICTIONARY
  5
19
330
C
100
AcDbDictionary
  0
ENDSEC
  0
EOF
